<?xml version="1.0" encoding="utf-8" standalone="no"?>
<!DOCTYPE svg PUBLIC "-//W3C//DTD SVG 1.1//EN"
  "http://www.w3.org/Graphics/SVG/1.1/DTD/svg11.dtd">
<svg xmlns:xlink="http://www.w3.org/1999/xlink" width="405pt" height="291.6pt" viewBox="0 0 405 291.6" xmlns="http://www.w3.org/2000/svg" version="1.1">
 <metadata>
  <rdf:RDF xmlns:dc="http://purl.org/dc/elements/1.1/" xmlns:cc="http://creativecommons.org/ns#" xmlns:rdf="http://www.w3.org/1999/02/22-rdf-syntax-ns#">
   <cc:Work>
    <dc:type rdf:resource="http://purl.org/dc/dcmitype/StillImage"/>
    <dc:date>2025-02-07T13:12:57.983910</dc:date>
    <dc:format>image/svg+xml</dc:format>
    <dc:creator>
     <cc:Agent>
      <dc:title>Matplotlib v3.10.0, https://matplotlib.org/</dc:title>
     </cc:Agent>
    </dc:creator>
   </cc:Work>
  </rdf:RDF>
 </metadata>
 <defs>
  <style type="text/css">*{stroke-linejoin: round; stroke-linecap: butt}</style>
 </defs>
 <g id="figure_1">
  <g id="patch_1">
   <path d="M 0 291.6 
L 405 291.6 
L 405 0 
L 0 0 
z
" style="fill: #ffffff"/>
  </g>
  <g id="axes_1">
   <g id="table_1">
    <g id="patch_2">
     <path d="M 7.2 85.8 
L 137.4 85.8 
L 137.4 55.8 
L 7.2 55.8 
z
" style="fill: #d3d3d3; stroke: #000000; stroke-linejoin: miter"/>
    </g>
    <g id="text_1">
     <!-- $\alpha$ -->
     <g transform="translate(68.34 74.11125) scale(0.12 -0.12)">
      <defs>
       <path id="DejaVuSans-Oblique-3b1" d="M 2619 1628 
L 2622 2350 
Q 2625 3088 2069 3091 
Q 1653 3094 1394 2747 
Q 1069 2319 959 1747 
Q 825 1059 994 731 
Q 1169 397 1547 397 
Q 1966 397 2319 1063 
L 2619 1628 
z
M 2166 3578 
Q 3141 3594 3128 2584 
Q 3128 2584 3616 3500 
L 4128 3500 
L 3119 1603 
L 3109 919 
Q 3109 766 3194 638 
Q 3291 488 3391 488 
L 3669 488 
L 3575 0 
L 3228 0 
Q 2934 0 2722 263 
Q 2622 394 2619 669 
Q 2416 334 2066 50 
Q 1900 -81 1453 -78 
Q 722 -72 456 397 
Q 184 884 353 1747 
Q 534 2675 1009 3097 
Q 1544 3569 2166 3578 
z
" transform="scale(0.015625)"/>
      </defs>
      <use xlink:href="#DejaVuSans-Oblique-3b1" transform="translate(0 0.84375)"/>
     </g>
    </g>
    <g id="patch_3">
     <path d="M 137.4 85.8 
L 267.6 85.8 
L 267.6 55.8 
L 137.4 55.8 
z
" style="fill: #d3d3d3; stroke: #000000; stroke-linejoin: miter"/>
    </g>
    <g id="text_2">
     <!-- Prior -->
     <g transform="translate(186.005625 74.11125) scale(0.12 -0.12)">
      <defs>
       <path id="DejaVuSans-Bold-50" d="M 588 4666 
L 2584 4666 
Q 3475 4666 3951 4270 
Q 4428 3875 4428 3144 
Q 4428 2409 3951 2014 
Q 3475 1619 2584 1619 
L 1791 1619 
L 1791 0 
L 588 0 
L 588 4666 
z
M 1791 3794 
L 1791 2491 
L 2456 2491 
Q 2806 2491 2997 2661 
Q 3188 2831 3188 3144 
Q 3188 3456 2997 3625 
Q 2806 3794 2456 3794 
L 1791 3794 
z
" transform="scale(0.015625)"/>
       <path id="DejaVuSans-Bold-72" d="M 3138 2547 
Q 2991 2616 2845 2648 
Q 2700 2681 2553 2681 
Q 2122 2681 1889 2404 
Q 1656 2128 1656 1613 
L 1656 0 
L 538 0 
L 538 3500 
L 1656 3500 
L 1656 2925 
Q 1872 3269 2151 3426 
Q 2431 3584 2822 3584 
Q 2878 3584 2943 3579 
Q 3009 3575 3134 3559 
L 3138 2547 
z
" transform="scale(0.015625)"/>
       <path id="DejaVuSans-Bold-69" d="M 538 3500 
L 1656 3500 
L 1656 0 
L 538 0 
L 538 3500 
z
M 538 4863 
L 1656 4863 
L 1656 3950 
L 538 3950 
L 538 4863 
z
" transform="scale(0.015625)"/>
       <path id="DejaVuSans-Bold-6f" d="M 2203 2784 
Q 1831 2784 1636 2517 
Q 1441 2250 1441 1747 
Q 1441 1244 1636 976 
Q 1831 709 2203 709 
Q 2569 709 2762 976 
Q 2956 1244 2956 1747 
Q 2956 2250 2762 2517 
Q 2569 2784 2203 2784 
z
M 2203 3584 
Q 3106 3584 3614 3096 
Q 4122 2609 4122 1747 
Q 4122 884 3614 396 
Q 3106 -91 2203 -91 
Q 1297 -91 786 396 
Q 275 884 275 1747 
Q 275 2609 786 3096 
Q 1297 3584 2203 3584 
z
" transform="scale(0.015625)"/>
      </defs>
      <use xlink:href="#DejaVuSans-Bold-50"/>
      <use xlink:href="#DejaVuSans-Bold-72" transform="translate(73.291016 0)"/>
      <use xlink:href="#DejaVuSans-Bold-69" transform="translate(122.607422 0)"/>
      <use xlink:href="#DejaVuSans-Bold-6f" transform="translate(156.884766 0)"/>
      <use xlink:href="#DejaVuSans-Bold-72" transform="translate(225.585938 0)"/>
     </g>
    </g>
    <g id="patch_4">
     <path d="M 267.6 85.8 
L 397.8 85.8 
L 397.8 55.8 
L 267.6 55.8 
z
" style="fill: #d3d3d3; stroke: #000000; stroke-linejoin: miter"/>
    </g>
    <g id="text_3">
     <!-- Posterior -->
     <g transform="translate(301.575 74.11125) scale(0.12 -0.12)">
      <defs>
       <path id="DejaVuSans-Bold-73" d="M 3272 3391 
L 3272 2541 
Q 2913 2691 2578 2766 
Q 2244 2841 1947 2841 
Q 1628 2841 1473 2761 
Q 1319 2681 1319 2516 
Q 1319 2381 1436 2309 
Q 1553 2238 1856 2203 
L 2053 2175 
Q 2913 2066 3209 1816 
Q 3506 1566 3506 1031 
Q 3506 472 3093 190 
Q 2681 -91 1863 -91 
Q 1516 -91 1145 -36 
Q 775 19 384 128 
L 384 978 
Q 719 816 1070 734 
Q 1422 653 1784 653 
Q 2113 653 2278 743 
Q 2444 834 2444 1013 
Q 2444 1163 2330 1236 
Q 2216 1309 1875 1350 
L 1678 1375 
Q 931 1469 631 1722 
Q 331 1975 331 2491 
Q 331 3047 712 3315 
Q 1094 3584 1881 3584 
Q 2191 3584 2531 3537 
Q 2872 3491 3272 3391 
z
" transform="scale(0.015625)"/>
       <path id="DejaVuSans-Bold-74" d="M 1759 4494 
L 1759 3500 
L 2913 3500 
L 2913 2700 
L 1759 2700 
L 1759 1216 
Q 1759 972 1856 886 
Q 1953 800 2241 800 
L 2816 800 
L 2816 0 
L 1856 0 
Q 1194 0 917 276 
Q 641 553 641 1216 
L 641 2700 
L 84 2700 
L 84 3500 
L 641 3500 
L 641 4494 
L 1759 4494 
z
" transform="scale(0.015625)"/>
       <path id="DejaVuSans-Bold-65" d="M 4031 1759 
L 4031 1441 
L 1416 1441 
Q 1456 1047 1700 850 
Q 1944 653 2381 653 
Q 2734 653 3104 758 
Q 3475 863 3866 1075 
L 3866 213 
Q 3469 63 3072 -14 
Q 2675 -91 2278 -91 
Q 1328 -91 801 392 
Q 275 875 275 1747 
Q 275 2603 792 3093 
Q 1309 3584 2216 3584 
Q 3041 3584 3536 3087 
Q 4031 2591 4031 1759 
z
M 2881 2131 
Q 2881 2450 2695 2645 
Q 2509 2841 2209 2841 
Q 1884 2841 1681 2658 
Q 1478 2475 1428 2131 
L 2881 2131 
z
" transform="scale(0.015625)"/>
      </defs>
      <use xlink:href="#DejaVuSans-Bold-50"/>
      <use xlink:href="#DejaVuSans-Bold-6f" transform="translate(73.291016 0)"/>
      <use xlink:href="#DejaVuSans-Bold-73" transform="translate(141.992188 0)"/>
      <use xlink:href="#DejaVuSans-Bold-74" transform="translate(201.513672 0)"/>
      <use xlink:href="#DejaVuSans-Bold-65" transform="translate(249.316406 0)"/>
      <use xlink:href="#DejaVuSans-Bold-72" transform="translate(317.138672 0)"/>
      <use xlink:href="#DejaVuSans-Bold-69" transform="translate(366.455078 0)"/>
      <use xlink:href="#DejaVuSans-Bold-6f" transform="translate(400.732422 0)"/>
      <use xlink:href="#DejaVuSans-Bold-72" transform="translate(469.433594 0)"/>
     </g>
    </g>
    <g id="patch_5">
     <path d="M 7.2 115.8 
L 137.4 115.8 
L 137.4 85.8 
L 7.2 85.8 
z
" style="fill: #ffffff; stroke: #000000; stroke-linejoin: miter"/>
    </g>
    <g id="text_4">
     <!-- $0.10$ -->
     <g transform="translate(58.92 104.11125) scale(0.12 -0.12)">
      <defs>
       <path id="DejaVuSans-30" d="M 2034 4250 
Q 1547 4250 1301 3770 
Q 1056 3291 1056 2328 
Q 1056 1369 1301 889 
Q 1547 409 2034 409 
Q 2525 409 2770 889 
Q 3016 1369 3016 2328 
Q 3016 3291 2770 3770 
Q 2525 4250 2034 4250 
z
M 2034 4750 
Q 2819 4750 3233 4129 
Q 3647 3509 3647 2328 
Q 3647 1150 3233 529 
Q 2819 -91 2034 -91 
Q 1250 -91 836 529 
Q 422 1150 422 2328 
Q 422 3509 836 4129 
Q 1250 4750 2034 4750 
z
" transform="scale(0.015625)"/>
       <path id="DejaVuSans-2e" d="M 684 794 
L 1344 794 
L 1344 0 
L 684 0 
L 684 794 
z
" transform="scale(0.015625)"/>
       <path id="DejaVuSans-31" d="M 794 531 
L 1825 531 
L 1825 4091 
L 703 3866 
L 703 4441 
L 1819 4666 
L 2450 4666 
L 2450 531 
L 3481 531 
L 3481 0 
L 794 0 
L 794 531 
z
" transform="scale(0.015625)"/>
      </defs>
      <use xlink:href="#DejaVuSans-30" transform="translate(0 0.78125)"/>
      <use xlink:href="#DejaVuSans-2e" transform="translate(63.623047 0.78125)"/>
      <use xlink:href="#DejaVuSans-31" transform="translate(95.410156 0.78125)"/>
      <use xlink:href="#DejaVuSans-30" transform="translate(159.033203 0.78125)"/>
     </g>
    </g>
    <g id="patch_6">
     <path d="M 137.4 115.8 
L 267.6 115.8 
L 267.6 85.8 
L 137.4 85.8 
z
" style="fill: #ffffff; stroke: #000000; stroke-linejoin: miter"/>
    </g>
    <g id="text_5">
     <!-- $7.07 \times 10^{-2}$ -->
     <g transform="translate(167.7 104.11125) scale(0.12 -0.12)">
      <defs>
       <path id="DejaVuSans-37" d="M 525 4666 
L 3525 4666 
L 3525 4397 
L 1831 0 
L 1172 0 
L 2766 4134 
L 525 4134 
L 525 4666 
z
" transform="scale(0.015625)"/>
       <path id="DejaVuSans-d7" d="M 4488 3438 
L 3059 2003 
L 4488 575 
L 4116 197 
L 2681 1631 
L 1247 197 
L 878 575 
L 2303 2003 
L 878 3438 
L 1247 3816 
L 2681 2381 
L 4116 3816 
L 4488 3438 
z
" transform="scale(0.015625)"/>
       <path id="DejaVuSans-2212" d="M 678 2272 
L 4684 2272 
L 4684 1741 
L 678 1741 
L 678 2272 
z
" transform="scale(0.015625)"/>
       <path id="DejaVuSans-32" d="M 1228 531 
L 3431 531 
L 3431 0 
L 469 0 
L 469 531 
Q 828 903 1448 1529 
Q 2069 2156 2228 2338 
Q 2531 2678 2651 2914 
Q 2772 3150 2772 3378 
Q 2772 3750 2511 3984 
Q 2250 4219 1831 4219 
Q 1534 4219 1204 4116 
Q 875 4013 500 3803 
L 500 4441 
Q 881 4594 1212 4672 
Q 1544 4750 1819 4750 
Q 2544 4750 2975 4387 
Q 3406 4025 3406 3419 
Q 3406 3131 3298 2873 
Q 3191 2616 2906 2266 
Q 2828 2175 2409 1742 
Q 1991 1309 1228 531 
z
" transform="scale(0.015625)"/>
      </defs>
      <use xlink:href="#DejaVuSans-37" transform="translate(0 0.765625)"/>
      <use xlink:href="#DejaVuSans-2e" transform="translate(63.623047 0.765625)"/>
      <use xlink:href="#DejaVuSans-30" transform="translate(95.410156 0.765625)"/>
      <use xlink:href="#DejaVuSans-37" transform="translate(159.033203 0.765625)"/>
      <use xlink:href="#DejaVuSans-d7" transform="translate(242.138672 0.765625)"/>
      <use xlink:href="#DejaVuSans-31" transform="translate(345.410156 0.765625)"/>
      <use xlink:href="#DejaVuSans-30" transform="translate(409.033203 0.765625)"/>
      <use xlink:href="#DejaVuSans-2212" transform="translate(473.613281 39.046875) scale(0.7)"/>
      <use xlink:href="#DejaVuSans-32" transform="translate(532.265625 39.046875) scale(0.7)"/>
     </g>
    </g>
    <g id="patch_7">
     <path d="M 267.6 115.8 
L 397.8 115.8 
L 397.8 85.8 
L 267.6 85.8 
z
" style="fill: #ffffff; stroke: #000000; stroke-linejoin: miter"/>
    </g>
    <g id="text_6">
     <!-- $2.09 \times 10^{-3}$ -->
     <g transform="translate(297.9 104.11125) scale(0.12 -0.12)">
      <defs>
       <path id="DejaVuSans-39" d="M 703 97 
L 703 672 
Q 941 559 1184 500 
Q 1428 441 1663 441 
Q 2288 441 2617 861 
Q 2947 1281 2994 2138 
Q 2813 1869 2534 1725 
Q 2256 1581 1919 1581 
Q 1219 1581 811 2004 
Q 403 2428 403 3163 
Q 403 3881 828 4315 
Q 1253 4750 1959 4750 
Q 2769 4750 3195 4129 
Q 3622 3509 3622 2328 
Q 3622 1225 3098 567 
Q 2575 -91 1691 -91 
Q 1453 -91 1209 -44 
Q 966 3 703 97 
z
M 1959 2075 
Q 2384 2075 2632 2365 
Q 2881 2656 2881 3163 
Q 2881 3666 2632 3958 
Q 2384 4250 1959 4250 
Q 1534 4250 1286 3958 
Q 1038 3666 1038 3163 
Q 1038 2656 1286 2365 
Q 1534 2075 1959 2075 
z
" transform="scale(0.015625)"/>
       <path id="DejaVuSans-33" d="M 2597 2516 
Q 3050 2419 3304 2112 
Q 3559 1806 3559 1356 
Q 3559 666 3084 287 
Q 2609 -91 1734 -91 
Q 1441 -91 1130 -33 
Q 819 25 488 141 
L 488 750 
Q 750 597 1062 519 
Q 1375 441 1716 441 
Q 2309 441 2620 675 
Q 2931 909 2931 1356 
Q 2931 1769 2642 2001 
Q 2353 2234 1838 2234 
L 1294 2234 
L 1294 2753 
L 1863 2753 
Q 2328 2753 2575 2939 
Q 2822 3125 2822 3475 
Q 2822 3834 2567 4026 
Q 2313 4219 1838 4219 
Q 1578 4219 1281 4162 
Q 984 4106 628 3988 
L 628 4550 
Q 988 4650 1302 4700 
Q 1616 4750 1894 4750 
Q 2613 4750 3031 4423 
Q 3450 4097 3450 3541 
Q 3450 3153 3228 2886 
Q 3006 2619 2597 2516 
z
" transform="scale(0.015625)"/>
      </defs>
      <use xlink:href="#DejaVuSans-32" transform="translate(0 0.765625)"/>
      <use xlink:href="#DejaVuSans-2e" transform="translate(63.623047 0.765625)"/>
      <use xlink:href="#DejaVuSans-30" transform="translate(95.410156 0.765625)"/>
      <use xlink:href="#DejaVuSans-39" transform="translate(159.033203 0.765625)"/>
      <use xlink:href="#DejaVuSans-d7" transform="translate(242.138672 0.765625)"/>
      <use xlink:href="#DejaVuSans-31" transform="translate(345.410156 0.765625)"/>
      <use xlink:href="#DejaVuSans-30" transform="translate(409.033203 0.765625)"/>
      <use xlink:href="#DejaVuSans-2212" transform="translate(473.613281 39.046875) scale(0.7)"/>
      <use xlink:href="#DejaVuSans-33" transform="translate(532.265625 39.046875) scale(0.7)"/>
     </g>
    </g>
    <g id="patch_8">
     <path d="M 7.2 145.8 
L 137.4 145.8 
L 137.4 115.8 
L 7.2 115.8 
z
" style="fill: #ffffff; stroke: #000000; stroke-linejoin: miter"/>
    </g>
    <g id="text_7">
     <!-- $0.25$ -->
     <g transform="translate(59.22 134.11125) scale(0.12 -0.12)">
      <defs>
       <path id="DejaVuSans-35" d="M 691 4666 
L 3169 4666 
L 3169 4134 
L 1269 4134 
L 1269 2991 
Q 1406 3038 1543 3061 
Q 1681 3084 1819 3084 
Q 2600 3084 3056 2656 
Q 3513 2228 3513 1497 
Q 3513 744 3044 326 
Q 2575 -91 1722 -91 
Q 1428 -91 1123 -41 
Q 819 9 494 109 
L 494 744 
Q 775 591 1075 516 
Q 1375 441 1709 441 
Q 2250 441 2565 725 
Q 2881 1009 2881 1497 
Q 2881 1984 2565 2268 
Q 2250 2553 1709 2553 
Q 1456 2553 1204 2497 
Q 953 2441 691 2322 
L 691 4666 
z
" transform="scale(0.015625)"/>
      </defs>
      <use xlink:href="#DejaVuSans-30" transform="translate(0 0.78125)"/>
      <use xlink:href="#DejaVuSans-2e" transform="translate(63.623047 0.78125)"/>
      <use xlink:href="#DejaVuSans-32" transform="translate(89.910156 0.78125)"/>
      <use xlink:href="#DejaVuSans-35" transform="translate(153.533203 0.78125)"/>
     </g>
    </g>
    <g id="patch_9">
     <path d="M 137.4 145.8 
L 267.6 145.8 
L 267.6 115.8 
L 137.4 115.8 
z
" style="fill: #ffffff; stroke: #000000; stroke-linejoin: miter"/>
    </g>
    <g id="text_8">
     <!-- $7.42 \times 10^{-2}$ -->
     <g transform="translate(167.7 134.11125) scale(0.12 -0.12)">
      <defs>
       <path id="DejaVuSans-34" d="M 2419 4116 
L 825 1625 
L 2419 1625 
L 2419 4116 
z
M 2253 4666 
L 3047 4666 
L 3047 1625 
L 3713 1625 
L 3713 1100 
L 3047 1100 
L 3047 0 
L 2419 0 
L 2419 1100 
L 313 1100 
L 313 1709 
L 2253 4666 
z
" transform="scale(0.015625)"/>
      </defs>
      <use xlink:href="#DejaVuSans-37" transform="translate(0 0.765625)"/>
      <use xlink:href="#DejaVuSans-2e" transform="translate(63.623047 0.765625)"/>
      <use xlink:href="#DejaVuSans-34" transform="translate(95.410156 0.765625)"/>
      <use xlink:href="#DejaVuSans-32" transform="translate(159.033203 0.765625)"/>
      <use xlink:href="#DejaVuSans-d7" transform="translate(242.138672 0.765625)"/>
      <use xlink:href="#DejaVuSans-31" transform="translate(345.410156 0.765625)"/>
      <use xlink:href="#DejaVuSans-30" transform="translate(409.033203 0.765625)"/>
      <use xlink:href="#DejaVuSans-2212" transform="translate(473.613281 39.046875) scale(0.7)"/>
      <use xlink:href="#DejaVuSans-32" transform="translate(532.265625 39.046875) scale(0.7)"/>
     </g>
    </g>
    <g id="patch_10">
     <path d="M 267.6 145.8 
L 397.8 145.8 
L 397.8 115.8 
L 267.6 115.8 
z
" style="fill: #ffffff; stroke: #000000; stroke-linejoin: miter"/>
    </g>
    <g id="text_9">
     <!-- $3.39 \times 10^{-3}$ -->
     <g transform="translate(297.9 134.11125) scale(0.12 -0.12)">
      <use xlink:href="#DejaVuSans-33" transform="translate(0 0.765625)"/>
      <use xlink:href="#DejaVuSans-2e" transform="translate(63.623047 0.765625)"/>
      <use xlink:href="#DejaVuSans-33" transform="translate(95.410156 0.765625)"/>
      <use xlink:href="#DejaVuSans-39" transform="translate(159.033203 0.765625)"/>
      <use xlink:href="#DejaVuSans-d7" transform="translate(242.138672 0.765625)"/>
      <use xlink:href="#DejaVuSans-31" transform="translate(345.410156 0.765625)"/>
      <use xlink:href="#DejaVuSans-30" transform="translate(409.033203 0.765625)"/>
      <use xlink:href="#DejaVuSans-2212" transform="translate(473.613281 39.046875) scale(0.7)"/>
      <use xlink:href="#DejaVuSans-33" transform="translate(532.265625 39.046875) scale(0.7)"/>
     </g>
    </g>
    <g id="patch_11">
     <path d="M 7.2 175.8 
L 137.4 175.8 
L 137.4 145.8 
L 7.2 145.8 
z
" style="fill: #ffffff; stroke: #000000; stroke-linejoin: miter"/>
    </g>
    <g id="text_10">
     <!-- $0.50$ -->
     <g transform="translate(58.92 164.11125) scale(0.12 -0.12)">
      <use xlink:href="#DejaVuSans-30" transform="translate(0 0.78125)"/>
      <use xlink:href="#DejaVuSans-2e" transform="translate(63.623047 0.78125)"/>
      <use xlink:href="#DejaVuSans-35" transform="translate(95.410156 0.78125)"/>
      <use xlink:href="#DejaVuSans-30" transform="translate(159.033203 0.78125)"/>
     </g>
    </g>
    <g id="patch_12">
     <path d="M 137.4 175.8 
L 267.6 175.8 
L 267.6 145.8 
L 137.4 145.8 
z
" style="fill: #ffffff; stroke: #000000; stroke-linejoin: miter"/>
    </g>
    <g id="text_11">
     <!-- $5.26 \times 10^{-2}$ -->
     <g transform="translate(168 164.11125) scale(0.12 -0.12)">
      <defs>
       <path id="DejaVuSans-36" d="M 2113 2584 
Q 1688 2584 1439 2293 
Q 1191 2003 1191 1497 
Q 1191 994 1439 701 
Q 1688 409 2113 409 
Q 2538 409 2786 701 
Q 3034 994 3034 1497 
Q 3034 2003 2786 2293 
Q 2538 2584 2113 2584 
z
M 3366 4563 
L 3366 3988 
Q 3128 4100 2886 4159 
Q 2644 4219 2406 4219 
Q 1781 4219 1451 3797 
Q 1122 3375 1075 2522 
Q 1259 2794 1537 2939 
Q 1816 3084 2150 3084 
Q 2853 3084 3261 2657 
Q 3669 2231 3669 1497 
Q 3669 778 3244 343 
Q 2819 -91 2113 -91 
Q 1303 -91 875 529 
Q 447 1150 447 2328 
Q 447 3434 972 4092 
Q 1497 4750 2381 4750 
Q 2619 4750 2861 4703 
Q 3103 4656 3366 4563 
z
" transform="scale(0.015625)"/>
      </defs>
      <use xlink:href="#DejaVuSans-35" transform="translate(0 0.765625)"/>
      <use xlink:href="#DejaVuSans-2e" transform="translate(63.623047 0.765625)"/>
      <use xlink:href="#DejaVuSans-32" transform="translate(89.910156 0.765625)"/>
      <use xlink:href="#DejaVuSans-36" transform="translate(153.533203 0.765625)"/>
      <use xlink:href="#DejaVuSans-d7" transform="translate(236.638672 0.765625)"/>
      <use xlink:href="#DejaVuSans-31" transform="translate(339.910156 0.765625)"/>
      <use xlink:href="#DejaVuSans-30" transform="translate(403.533203 0.765625)"/>
      <use xlink:href="#DejaVuSans-2212" transform="translate(468.113281 39.046875) scale(0.7)"/>
      <use xlink:href="#DejaVuSans-32" transform="translate(526.765625 39.046875) scale(0.7)"/>
     </g>
    </g>
    <g id="patch_13">
     <path d="M 267.6 175.8 
L 397.8 175.8 
L 397.8 145.8 
L 267.6 145.8 
z
" style="fill: #ffffff; stroke: #000000; stroke-linejoin: miter"/>
    </g>
    <g id="text_12">
     <!-- $1.96 \times 10^{-3}$ -->
     <g transform="translate(297.9 164.11125) scale(0.12 -0.12)">
      <use xlink:href="#DejaVuSans-31" transform="translate(0 0.765625)"/>
      <use xlink:href="#DejaVuSans-2e" transform="translate(63.623047 0.765625)"/>
      <use xlink:href="#DejaVuSans-39" transform="translate(95.410156 0.765625)"/>
      <use xlink:href="#DejaVuSans-36" transform="translate(159.033203 0.765625)"/>
      <use xlink:href="#DejaVuSans-d7" transform="translate(242.138672 0.765625)"/>
      <use xlink:href="#DejaVuSans-31" transform="translate(345.410156 0.765625)"/>
      <use xlink:href="#DejaVuSans-30" transform="translate(409.033203 0.765625)"/>
      <use xlink:href="#DejaVuSans-2212" transform="translate(473.613281 39.046875) scale(0.7)"/>
      <use xlink:href="#DejaVuSans-33" transform="translate(532.265625 39.046875) scale(0.7)"/>
     </g>
    </g>
    <g id="patch_14">
     <path d="M 7.2 205.8 
L 137.4 205.8 
L 137.4 175.8 
L 7.2 175.8 
z
" style="fill: #ffffff; stroke: #000000; stroke-linejoin: miter"/>
    </g>
    <g id="text_13">
     <!-- $0.75$ -->
     <g transform="translate(59.4 194.11125) scale(0.12 -0.12)">
      <use xlink:href="#DejaVuSans-30" transform="translate(0 0.78125)"/>
      <use xlink:href="#DejaVuSans-2e" transform="translate(63.623047 0.78125)"/>
      <use xlink:href="#DejaVuSans-37" transform="translate(87.660156 0.78125)"/>
      <use xlink:href="#DejaVuSans-35" transform="translate(151.283203 0.78125)"/>
     </g>
    </g>
    <g id="patch_15">
     <path d="M 137.4 205.8 
L 267.6 205.8 
L 267.6 175.8 
L 137.4 175.8 
z
" style="fill: #ffffff; stroke: #000000; stroke-linejoin: miter"/>
    </g>
    <g id="text_14">
     <!-- $7.80 \times 10^{-2}$ -->
     <g transform="translate(167.88 194.11125) scale(0.12 -0.12)">
      <defs>
       <path id="DejaVuSans-38" d="M 2034 2216 
Q 1584 2216 1326 1975 
Q 1069 1734 1069 1313 
Q 1069 891 1326 650 
Q 1584 409 2034 409 
Q 2484 409 2743 651 
Q 3003 894 3003 1313 
Q 3003 1734 2745 1975 
Q 2488 2216 2034 2216 
z
M 1403 2484 
Q 997 2584 770 2862 
Q 544 3141 544 3541 
Q 544 4100 942 4425 
Q 1341 4750 2034 4750 
Q 2731 4750 3128 4425 
Q 3525 4100 3525 3541 
Q 3525 3141 3298 2862 
Q 3072 2584 2669 2484 
Q 3125 2378 3379 2068 
Q 3634 1759 3634 1313 
Q 3634 634 3220 271 
Q 2806 -91 2034 -91 
Q 1263 -91 848 271 
Q 434 634 434 1313 
Q 434 1759 690 2068 
Q 947 2378 1403 2484 
z
M 1172 3481 
Q 1172 3119 1398 2916 
Q 1625 2713 2034 2713 
Q 2441 2713 2670 2916 
Q 2900 3119 2900 3481 
Q 2900 3844 2670 4047 
Q 2441 4250 2034 4250 
Q 1625 4250 1398 4047 
Q 1172 3844 1172 3481 
z
" transform="scale(0.015625)"/>
      </defs>
      <use xlink:href="#DejaVuSans-37" transform="translate(0 0.765625)"/>
      <use xlink:href="#DejaVuSans-2e" transform="translate(63.623047 0.765625)"/>
      <use xlink:href="#DejaVuSans-38" transform="translate(92.785156 0.765625)"/>
      <use xlink:href="#DejaVuSans-30" transform="translate(156.408203 0.765625)"/>
      <use xlink:href="#DejaVuSans-d7" transform="translate(239.513672 0.765625)"/>
      <use xlink:href="#DejaVuSans-31" transform="translate(342.785156 0.765625)"/>
      <use xlink:href="#DejaVuSans-30" transform="translate(406.408203 0.765625)"/>
      <use xlink:href="#DejaVuSans-2212" transform="translate(470.988281 39.046875) scale(0.7)"/>
      <use xlink:href="#DejaVuSans-32" transform="translate(529.640625 39.046875) scale(0.7)"/>
     </g>
    </g>
    <g id="patch_16">
     <path d="M 267.6 205.8 
L 397.8 205.8 
L 397.8 175.8 
L 267.6 175.8 
z
" style="fill: #ffffff; stroke: #000000; stroke-linejoin: miter"/>
    </g>
    <g id="text_15">
     <!-- $1.50 \times 10^{-3}$ -->
     <g transform="translate(297.9 194.11125) scale(0.12 -0.12)">
      <use xlink:href="#DejaVuSans-31" transform="translate(0 0.765625)"/>
      <use xlink:href="#DejaVuSans-2e" transform="translate(63.623047 0.765625)"/>
      <use xlink:href="#DejaVuSans-35" transform="translate(95.410156 0.765625)"/>
      <use xlink:href="#DejaVuSans-30" transform="translate(159.033203 0.765625)"/>
      <use xlink:href="#DejaVuSans-d7" transform="translate(242.138672 0.765625)"/>
      <use xlink:href="#DejaVuSans-31" transform="translate(345.410156 0.765625)"/>
      <use xlink:href="#DejaVuSans-30" transform="translate(409.033203 0.765625)"/>
      <use xlink:href="#DejaVuSans-2212" transform="translate(473.613281 39.046875) scale(0.7)"/>
      <use xlink:href="#DejaVuSans-33" transform="translate(532.265625 39.046875) scale(0.7)"/>
     </g>
    </g>
    <g id="patch_17">
     <path d="M 7.2 235.8 
L 137.4 235.8 
L 137.4 205.8 
L 7.2 205.8 
z
" style="fill: #ffffff; stroke: #000000; stroke-linejoin: miter"/>
    </g>
    <g id="text_16">
     <!-- $0.90$ -->
     <g transform="translate(58.92 224.11125) scale(0.12 -0.12)">
      <use xlink:href="#DejaVuSans-30" transform="translate(0 0.78125)"/>
      <use xlink:href="#DejaVuSans-2e" transform="translate(63.623047 0.78125)"/>
      <use xlink:href="#DejaVuSans-39" transform="translate(95.410156 0.78125)"/>
      <use xlink:href="#DejaVuSans-30" transform="translate(159.033203 0.78125)"/>
     </g>
    </g>
    <g id="patch_18">
     <path d="M 137.4 235.8 
L 267.6 235.8 
L 267.6 205.8 
L 137.4 205.8 
z
" style="fill: #ffffff; stroke: #000000; stroke-linejoin: miter"/>
    </g>
    <g id="text_17">
     <!-- $6.15 \times 10^{-2}$ -->
     <g transform="translate(167.7 224.11125) scale(0.12 -0.12)">
      <use xlink:href="#DejaVuSans-36" transform="translate(0 0.765625)"/>
      <use xlink:href="#DejaVuSans-2e" transform="translate(63.623047 0.765625)"/>
      <use xlink:href="#DejaVuSans-31" transform="translate(95.410156 0.765625)"/>
      <use xlink:href="#DejaVuSans-35" transform="translate(159.033203 0.765625)"/>
      <use xlink:href="#DejaVuSans-d7" transform="translate(242.138672 0.765625)"/>
      <use xlink:href="#DejaVuSans-31" transform="translate(345.410156 0.765625)"/>
      <use xlink:href="#DejaVuSans-30" transform="translate(409.033203 0.765625)"/>
      <use xlink:href="#DejaVuSans-2212" transform="translate(473.613281 39.046875) scale(0.7)"/>
      <use xlink:href="#DejaVuSans-32" transform="translate(532.265625 39.046875) scale(0.7)"/>
     </g>
    </g>
    <g id="patch_19">
     <path d="M 267.6 235.8 
L 397.8 235.8 
L 397.8 205.8 
L 267.6 205.8 
z
" style="fill: #ffffff; stroke: #000000; stroke-linejoin: miter"/>
    </g>
    <g id="text_18">
     <!-- $4.84 \times 10^{-4}$ -->
     <g transform="translate(298.08 224.11125) scale(0.12 -0.12)">
      <use xlink:href="#DejaVuSans-34" transform="translate(0 0.684375)"/>
      <use xlink:href="#DejaVuSans-2e" transform="translate(63.623047 0.684375)"/>
      <use xlink:href="#DejaVuSans-38" transform="translate(92.785156 0.684375)"/>
      <use xlink:href="#DejaVuSans-34" transform="translate(156.408203 0.684375)"/>
      <use xlink:href="#DejaVuSans-d7" transform="translate(239.513672 0.684375)"/>
      <use xlink:href="#DejaVuSans-31" transform="translate(342.785156 0.684375)"/>
      <use xlink:href="#DejaVuSans-30" transform="translate(406.408203 0.684375)"/>
      <use xlink:href="#DejaVuSans-2212" transform="translate(470.988281 38.965625) scale(0.7)"/>
      <use xlink:href="#DejaVuSans-34" transform="translate(529.640625 38.965625) scale(0.7)"/>
     </g>
    </g>
   </g>
  </g>
 </g>
</svg>
