<?xml version="1.0" encoding="utf-8" standalone="no"?>
<!DOCTYPE svg PUBLIC "-//W3C//DTD SVG 1.1//EN"
  "http://www.w3.org/Graphics/SVG/1.1/DTD/svg11.dtd">
<svg xmlns:xlink="http://www.w3.org/1999/xlink" width="320.440625pt" height="211.07625pt" viewBox="0 0 320.440625 211.07625" xmlns="http://www.w3.org/2000/svg" version="1.1">
 <metadata>
  <rdf:RDF xmlns:dc="http://purl.org/dc/elements/1.1/" xmlns:cc="http://creativecommons.org/ns#" xmlns:rdf="http://www.w3.org/1999/02/22-rdf-syntax-ns#">
   <cc:Work>
    <dc:type rdf:resource="http://purl.org/dc/dcmitype/StillImage"/>
    <dc:date>2025-02-11T18:53:27.354728</dc:date>
    <dc:format>image/svg+xml</dc:format>
    <dc:creator>
     <cc:Agent>
      <dc:title>Matplotlib v3.8.0, https://matplotlib.org/</dc:title>
     </cc:Agent>
    </dc:creator>
   </cc:Work>
  </rdf:RDF>
 </metadata>
 <defs>
  <style type="text/css">*{stroke-linejoin: round; stroke-linecap: butt}</style>
 </defs>
 <g id="figure_1">
  <g id="patch_1">
   <path d="M 0 211.07625 
L 320.440625 211.07625 
L 320.440625 0 
L 0 0 
z
" style="fill: #ffffff"/>
  </g>
  <g id="axes_1">
   <g id="patch_2">
    <path d="M 34.240625 173.52 
L 313.240625 173.52 
L 313.240625 7.2 
L 34.240625 7.2 
z
" style="fill: #ffffff"/>
   </g>
   <g id="PolyCollection_1">
    <defs>
     <path id="m858f439b92" d="M 46.922443 -124.936084 
L 46.922443 -65.355776 
L 53.42594 -55.281278 
L 59.929436 -57.908435 
L 66.432933 -53.723913 
L 72.936429 -54.516427 
L 79.439926 -51.142565 
L 85.943422 -50.252231 
L 92.446919 -49.723575 
L 98.950415 -49.265774 
L 105.453912 -49.476209 
L 111.957408 -49.588429 
L 118.460905 -48.715447 
L 124.964401 -47.886341 
L 131.467898 -48.287271 
L 137.971394 -48.220535 
L 144.474891 -47.840436 
L 150.978387 -48.260307 
L 157.481884 -48.259328 
L 163.98538 -48.067047 
L 170.488877 -47.92944 
L 176.992373 -47.730396 
L 183.49587 -46.96874 
L 189.999366 -46.968106 
L 196.502863 -45.942484 
L 203.006359 -46.016066 
L 209.509856 -46.001548 
L 216.013352 -45.841748 
L 222.516849 -45.87406 
L 229.020345 -46.061595 
L 235.523842 -46.058043 
L 242.027338 -45.32654 
L 248.530835 -45.832571 
L 255.034331 -45.539421 
L 261.537828 -45.77717 
L 268.041324 -45.602882 
L 274.544821 -45.659993 
L 281.048317 -45.411935 
L 287.551814 -45.329342 
L 294.05531 -45.23249 
L 300.558807 -45.351782 
L 300.558807 -53.049039 
L 300.558807 -53.049039 
L 294.05531 -53.536695 
L 287.551814 -53.295702 
L 281.048317 -53.627626 
L 274.544821 -55.917128 
L 268.041324 -56.018241 
L 261.537828 -56.726356 
L 255.034331 -56.341526 
L 248.530835 -56.344708 
L 242.027338 -55.062875 
L 235.523842 -56.112615 
L 229.020345 -55.800055 
L 222.516849 -58.0611 
L 216.013352 -57.79458 
L 209.509856 -58.370984 
L 203.006359 -60.426891 
L 196.502863 -60.304229 
L 189.999366 -64.976487 
L 183.49587 -63.168044 
L 176.992373 -64.290067 
L 170.488877 -64.166986 
L 163.98538 -64.443193 
L 157.481884 -68.988084 
L 150.978387 -68.751275 
L 144.474891 -69.472372 
L 137.971394 -69.772972 
L 131.467898 -72.113122 
L 124.964401 -71.154188 
L 118.460905 -73.788903 
L 111.957408 -81.968243 
L 105.453912 -81.739112 
L 98.950415 -83.315927 
L 92.446919 -82.561445 
L 85.943422 -81.234043 
L 79.439926 -79.556575 
L 72.936429 -86.9965 
L 66.432933 -87.14748 
L 59.929436 -123.240426 
L 53.42594 -196.31625 
L 46.922443 -124.936084 
z
" style="stroke: #0000ff; stroke-opacity: 0.2"/>
    </defs>
    <g clip-path="url(#pe0a5e25702)">
     <use xlink:href="#m858f439b92" x="0" y="211.07625" style="fill: #0000ff; fill-opacity: 0.2; stroke: #0000ff; stroke-opacity: 0.2"/>
    </g>
   </g>
   <g id="PolyCollection_2">
    <defs>
     <path id="m5a8b1431ec" d="M 46.922443 -80.632045 
L 46.922443 -66.168937 
L 53.42594 -60.4929 
L 59.929436 -54.761739 
L 66.432933 -53.315981 
L 72.936429 -51.633371 
L 79.439926 -52.017251 
L 85.943422 -49.658861 
L 92.446919 -49.832228 
L 98.950415 -50.20558 
L 105.453912 -49.863272 
L 111.957408 -49.658452 
L 118.460905 -48.539249 
L 124.964401 -48.167155 
L 131.467898 -48.235764 
L 137.971394 -48.43394 
L 144.474891 -48.291805 
L 150.978387 -48.555676 
L 157.481884 -48.425971 
L 163.98538 -48.049486 
L 170.488877 -47.768079 
L 176.992373 -47.586382 
L 183.49587 -47.378575 
L 189.999366 -47.326493 
L 196.502863 -46.026784 
L 203.006359 -46.058249 
L 209.509856 -46.068874 
L 216.013352 -45.961367 
L 222.516849 -45.875795 
L 229.020345 -45.948851 
L 235.523842 -45.919908 
L 242.027338 -45.739341 
L 248.530835 -45.69957 
L 255.034331 -45.56986 
L 261.537828 -45.780452 
L 268.041324 -45.449606 
L 274.544821 -45.676418 
L 281.048317 -45.449227 
L 287.551814 -45.357224 
L 294.05531 -45.284406 
L 300.558807 -45.11625 
L 300.558807 -53.7739 
L 300.558807 -53.7739 
L 294.05531 -54.627548 
L 287.551814 -54.818111 
L 281.048317 -54.295735 
L 274.544821 -54.261534 
L 268.041324 -58.157505 
L 261.537828 -55.878809 
L 255.034331 -56.151106 
L 248.530835 -55.647465 
L 242.027338 -55.814355 
L 235.523842 -55.747396 
L 229.020345 -56.614937 
L 222.516849 -58.10856 
L 216.013352 -59.062517 
L 209.509856 -58.032321 
L 203.006359 -60.123204 
L 196.502863 -61.012863 
L 189.999366 -63.961283 
L 183.49587 -63.063138 
L 176.992373 -62.874346 
L 170.488877 -63.735214 
L 163.98538 -64.250618 
L 157.481884 -68.633552 
L 150.978387 -67.459064 
L 144.474891 -68.078193 
L 137.971394 -69.36266 
L 131.467898 -72.636023 
L 124.964401 -74.211538 
L 118.460905 -71.097361 
L 111.957408 -78.545027 
L 105.453912 -81.897993 
L 98.950415 -82.514519 
L 92.446919 -80.548702 
L 85.943422 -78.610468 
L 79.439926 -80.845126 
L 72.936429 -81.505431 
L 66.432933 -85.051143 
L 59.929436 -86.130896 
L 53.42594 -80.247895 
L 46.922443 -80.632045 
z
" style="stroke: #ffa500; stroke-opacity: 0.2"/>
    </defs>
    <g clip-path="url(#pe0a5e25702)">
     <use xlink:href="#m5a8b1431ec" x="0" y="211.07625" style="fill: #ffa500; fill-opacity: 0.2; stroke: #ffa500; stroke-opacity: 0.2"/>
    </g>
   </g>
   <g id="matplotlib.axis_1">
    <g id="xtick_1">
     <g id="line2d_1">
      <path d="M 40.418947 173.52 
L 40.418947 7.2 
" clip-path="url(#pe0a5e25702)" style="fill: none; stroke: #b0b0b0; stroke-width: 0.8; stroke-linecap: square"/>
     </g>
     <g id="line2d_2">
      <defs>
       <path id="m73063b88fb" d="M 0 0 
L 0 3.5 
" style="stroke: #000000; stroke-width: 0.8"/>
      </defs>
      <g>
       <use xlink:href="#m73063b88fb" x="40.418947" y="173.52" style="stroke: #000000; stroke-width: 0.8"/>
      </g>
     </g>
     <g id="text_1">
      <!-- 0 -->
      <g transform="translate(37.237697 188.118438) scale(0.1 -0.1)">
       <defs>
        <path id="DejaVuSans-30" d="M 2034 4250 
Q 1547 4250 1301 3770 
Q 1056 3291 1056 2328 
Q 1056 1369 1301 889 
Q 1547 409 2034 409 
Q 2525 409 2770 889 
Q 3016 1369 3016 2328 
Q 3016 3291 2770 3770 
Q 2525 4250 2034 4250 
z
M 2034 4750 
Q 2819 4750 3233 4129 
Q 3647 3509 3647 2328 
Q 3647 1150 3233 529 
Q 2819 -91 2034 -91 
Q 1250 -91 836 529 
Q 422 1150 422 2328 
Q 422 3509 836 4129 
Q 1250 4750 2034 4750 
z
" transform="scale(0.015625)"/>
       </defs>
       <use xlink:href="#DejaVuSans-30"/>
      </g>
     </g>
    </g>
    <g id="xtick_2">
     <g id="line2d_3">
      <path d="M 72.936429 173.52 
L 72.936429 7.2 
" clip-path="url(#pe0a5e25702)" style="fill: none; stroke: #b0b0b0; stroke-width: 0.8; stroke-linecap: square"/>
     </g>
     <g id="line2d_4">
      <g>
       <use xlink:href="#m73063b88fb" x="72.936429" y="173.52" style="stroke: #000000; stroke-width: 0.8"/>
      </g>
     </g>
     <g id="text_2">
      <!-- 25 -->
      <g transform="translate(66.573929 188.118438) scale(0.1 -0.1)">
       <defs>
        <path id="DejaVuSans-32" d="M 1228 531 
L 3431 531 
L 3431 0 
L 469 0 
L 469 531 
Q 828 903 1448 1529 
Q 2069 2156 2228 2338 
Q 2531 2678 2651 2914 
Q 2772 3150 2772 3378 
Q 2772 3750 2511 3984 
Q 2250 4219 1831 4219 
Q 1534 4219 1204 4116 
Q 875 4013 500 3803 
L 500 4441 
Q 881 4594 1212 4672 
Q 1544 4750 1819 4750 
Q 2544 4750 2975 4387 
Q 3406 4025 3406 3419 
Q 3406 3131 3298 2873 
Q 3191 2616 2906 2266 
Q 2828 2175 2409 1742 
Q 1991 1309 1228 531 
z
" transform="scale(0.015625)"/>
        <path id="DejaVuSans-35" d="M 691 4666 
L 3169 4666 
L 3169 4134 
L 1269 4134 
L 1269 2991 
Q 1406 3038 1543 3061 
Q 1681 3084 1819 3084 
Q 2600 3084 3056 2656 
Q 3513 2228 3513 1497 
Q 3513 744 3044 326 
Q 2575 -91 1722 -91 
Q 1428 -91 1123 -41 
Q 819 9 494 109 
L 494 744 
Q 775 591 1075 516 
Q 1375 441 1709 441 
Q 2250 441 2565 725 
Q 2881 1009 2881 1497 
Q 2881 1984 2565 2268 
Q 2250 2553 1709 2553 
Q 1456 2553 1204 2497 
Q 953 2441 691 2322 
L 691 4666 
z
" transform="scale(0.015625)"/>
       </defs>
       <use xlink:href="#DejaVuSans-32"/>
       <use xlink:href="#DejaVuSans-35" x="63.623047"/>
      </g>
     </g>
    </g>
    <g id="xtick_3">
     <g id="line2d_5">
      <path d="M 105.453912 173.52 
L 105.453912 7.2 
" clip-path="url(#pe0a5e25702)" style="fill: none; stroke: #b0b0b0; stroke-width: 0.8; stroke-linecap: square"/>
     </g>
     <g id="line2d_6">
      <g>
       <use xlink:href="#m73063b88fb" x="105.453912" y="173.52" style="stroke: #000000; stroke-width: 0.8"/>
      </g>
     </g>
     <g id="text_3">
      <!-- 50 -->
      <g transform="translate(99.091412 188.118438) scale(0.1 -0.1)">
       <use xlink:href="#DejaVuSans-35"/>
       <use xlink:href="#DejaVuSans-30" x="63.623047"/>
      </g>
     </g>
    </g>
    <g id="xtick_4">
     <g id="line2d_7">
      <path d="M 137.971394 173.52 
L 137.971394 7.2 
" clip-path="url(#pe0a5e25702)" style="fill: none; stroke: #b0b0b0; stroke-width: 0.8; stroke-linecap: square"/>
     </g>
     <g id="line2d_8">
      <g>
       <use xlink:href="#m73063b88fb" x="137.971394" y="173.52" style="stroke: #000000; stroke-width: 0.8"/>
      </g>
     </g>
     <g id="text_4">
      <!-- 75 -->
      <g transform="translate(131.608894 188.118438) scale(0.1 -0.1)">
       <defs>
        <path id="DejaVuSans-37" d="M 525 4666 
L 3525 4666 
L 3525 4397 
L 1831 0 
L 1172 0 
L 2766 4134 
L 525 4134 
L 525 4666 
z
" transform="scale(0.015625)"/>
       </defs>
       <use xlink:href="#DejaVuSans-37"/>
       <use xlink:href="#DejaVuSans-35" x="63.623047"/>
      </g>
     </g>
    </g>
    <g id="xtick_5">
     <g id="line2d_9">
      <path d="M 170.488877 173.52 
L 170.488877 7.2 
" clip-path="url(#pe0a5e25702)" style="fill: none; stroke: #b0b0b0; stroke-width: 0.8; stroke-linecap: square"/>
     </g>
     <g id="line2d_10">
      <g>
       <use xlink:href="#m73063b88fb" x="170.488877" y="173.52" style="stroke: #000000; stroke-width: 0.8"/>
      </g>
     </g>
     <g id="text_5">
      <!-- 100 -->
      <g transform="translate(160.945127 188.118438) scale(0.1 -0.1)">
       <defs>
        <path id="DejaVuSans-31" d="M 794 531 
L 1825 531 
L 1825 4091 
L 703 3866 
L 703 4441 
L 1819 4666 
L 2450 4666 
L 2450 531 
L 3481 531 
L 3481 0 
L 794 0 
L 794 531 
z
" transform="scale(0.015625)"/>
       </defs>
       <use xlink:href="#DejaVuSans-31"/>
       <use xlink:href="#DejaVuSans-30" x="63.623047"/>
       <use xlink:href="#DejaVuSans-30" x="127.246094"/>
      </g>
     </g>
    </g>
    <g id="xtick_6">
     <g id="line2d_11">
      <path d="M 203.006359 173.52 
L 203.006359 7.2 
" clip-path="url(#pe0a5e25702)" style="fill: none; stroke: #b0b0b0; stroke-width: 0.8; stroke-linecap: square"/>
     </g>
     <g id="line2d_12">
      <g>
       <use xlink:href="#m73063b88fb" x="203.006359" y="173.52" style="stroke: #000000; stroke-width: 0.8"/>
      </g>
     </g>
     <g id="text_6">
      <!-- 125 -->
      <g transform="translate(193.462609 188.118438) scale(0.1 -0.1)">
       <use xlink:href="#DejaVuSans-31"/>
       <use xlink:href="#DejaVuSans-32" x="63.623047"/>
       <use xlink:href="#DejaVuSans-35" x="127.246094"/>
      </g>
     </g>
    </g>
    <g id="xtick_7">
     <g id="line2d_13">
      <path d="M 235.523842 173.52 
L 235.523842 7.2 
" clip-path="url(#pe0a5e25702)" style="fill: none; stroke: #b0b0b0; stroke-width: 0.8; stroke-linecap: square"/>
     </g>
     <g id="line2d_14">
      <g>
       <use xlink:href="#m73063b88fb" x="235.523842" y="173.52" style="stroke: #000000; stroke-width: 0.8"/>
      </g>
     </g>
     <g id="text_7">
      <!-- 150 -->
      <g transform="translate(225.980092 188.118438) scale(0.1 -0.1)">
       <use xlink:href="#DejaVuSans-31"/>
       <use xlink:href="#DejaVuSans-35" x="63.623047"/>
       <use xlink:href="#DejaVuSans-30" x="127.246094"/>
      </g>
     </g>
    </g>
    <g id="xtick_8">
     <g id="line2d_15">
      <path d="M 268.041324 173.52 
L 268.041324 7.2 
" clip-path="url(#pe0a5e25702)" style="fill: none; stroke: #b0b0b0; stroke-width: 0.8; stroke-linecap: square"/>
     </g>
     <g id="line2d_16">
      <g>
       <use xlink:href="#m73063b88fb" x="268.041324" y="173.52" style="stroke: #000000; stroke-width: 0.8"/>
      </g>
     </g>
     <g id="text_8">
      <!-- 175 -->
      <g transform="translate(258.497574 188.118438) scale(0.1 -0.1)">
       <use xlink:href="#DejaVuSans-31"/>
       <use xlink:href="#DejaVuSans-37" x="63.623047"/>
       <use xlink:href="#DejaVuSans-35" x="127.246094"/>
      </g>
     </g>
    </g>
    <g id="xtick_9">
     <g id="line2d_17">
      <path d="M 300.558807 173.52 
L 300.558807 7.2 
" clip-path="url(#pe0a5e25702)" style="fill: none; stroke: #b0b0b0; stroke-width: 0.8; stroke-linecap: square"/>
     </g>
     <g id="line2d_18">
      <g>
       <use xlink:href="#m73063b88fb" x="300.558807" y="173.52" style="stroke: #000000; stroke-width: 0.8"/>
      </g>
     </g>
     <g id="text_9">
      <!-- 200 -->
      <g transform="translate(291.015057 188.118438) scale(0.1 -0.1)">
       <use xlink:href="#DejaVuSans-32"/>
       <use xlink:href="#DejaVuSans-30" x="63.623047"/>
       <use xlink:href="#DejaVuSans-30" x="127.246094"/>
      </g>
     </g>
    </g>
    <g id="text_10">
     <!-- N -->
     <g transform="translate(170 201.796563) scale(0.1 -0.1)">
      <defs>
       <path id="DejaVuSans-4e" d="M 628 4666 
L 1478 4666 
L 3547 763 
L 3547 4666 
L 4159 4666 
L 4159 0 
L 3309 0 
L 1241 3903 
L 1241 0 
L 628 0 
L 628 4666 
z
" transform="scale(0.015625)"/>
      </defs>
      <use xlink:href="#DejaVuSans-4e"/>
     </g>
    </g>
   </g>
   <g id="matplotlib.axis_2">
    <g id="ytick_1">
     <g id="line2d_19">
      <path d="M 34.240625 170.860239 
L 313.240625 170.860239 
" clip-path="url(#pe0a5e25702)" style="fill: none; stroke: #b0b0b0; stroke-width: 0.8; stroke-linecap: square"/>
     </g>
     <g id="line2d_20">
      <defs>
       <path id="m455e37c97c" d="M 0 0 
L -3.5 0 
" style="stroke: #000000; stroke-width: 0.8"/>
      </defs>
      <g>
       <use xlink:href="#m455e37c97c" x="34.240625" y="170.860239" style="stroke: #000000; stroke-width: 0.8"/>
      </g>
     </g>
     <g id="text_11">
      <!-- 0 -->
      <g transform="translate(20.878125 174.659457) scale(0.1 -0.1)">
       <use xlink:href="#DejaVuSans-30"/>
      </g>
     </g>
    </g>
    <g id="ytick_2">
     <g id="line2d_21">
      <path d="M 34.240625 146.289765 
L 313.240625 146.289765 
" clip-path="url(#pe0a5e25702)" style="fill: none; stroke: #b0b0b0; stroke-width: 0.8; stroke-linecap: square"/>
     </g>
     <g id="line2d_22">
      <g>
       <use xlink:href="#m455e37c97c" x="34.240625" y="146.289765" style="stroke: #000000; stroke-width: 0.8"/>
      </g>
     </g>
     <g id="text_12">
      <!-- 1 -->
      <g transform="translate(20.878125 150.088984) scale(0.1 -0.1)">
       <use xlink:href="#DejaVuSans-31"/>
      </g>
     </g>
    </g>
    <g id="ytick_3">
     <g id="line2d_23">
      <path d="M 34.240625 121.719292 
L 313.240625 121.719292 
" clip-path="url(#pe0a5e25702)" style="fill: none; stroke: #b0b0b0; stroke-width: 0.8; stroke-linecap: square"/>
     </g>
     <g id="line2d_24">
      <g>
       <use xlink:href="#m455e37c97c" x="34.240625" y="121.719292" style="stroke: #000000; stroke-width: 0.8"/>
      </g>
     </g>
     <g id="text_13">
      <!-- 2 -->
      <g transform="translate(20.878125 125.518511) scale(0.1 -0.1)">
       <use xlink:href="#DejaVuSans-32"/>
      </g>
     </g>
    </g>
    <g id="ytick_4">
     <g id="line2d_25">
      <path d="M 34.240625 97.148819 
L 313.240625 97.148819 
" clip-path="url(#pe0a5e25702)" style="fill: none; stroke: #b0b0b0; stroke-width: 0.8; stroke-linecap: square"/>
     </g>
     <g id="line2d_26">
      <g>
       <use xlink:href="#m455e37c97c" x="34.240625" y="97.148819" style="stroke: #000000; stroke-width: 0.8"/>
      </g>
     </g>
     <g id="text_14">
      <!-- 3 -->
      <g transform="translate(20.878125 100.948037) scale(0.1 -0.1)">
       <defs>
        <path id="DejaVuSans-33" d="M 2597 2516 
Q 3050 2419 3304 2112 
Q 3559 1806 3559 1356 
Q 3559 666 3084 287 
Q 2609 -91 1734 -91 
Q 1441 -91 1130 -33 
Q 819 25 488 141 
L 488 750 
Q 750 597 1062 519 
Q 1375 441 1716 441 
Q 2309 441 2620 675 
Q 2931 909 2931 1356 
Q 2931 1769 2642 2001 
Q 2353 2234 1838 2234 
L 1294 2234 
L 1294 2753 
L 1863 2753 
Q 2328 2753 2575 2939 
Q 2822 3125 2822 3475 
Q 2822 3834 2567 4026 
Q 2313 4219 1838 4219 
Q 1578 4219 1281 4162 
Q 984 4106 628 3988 
L 628 4550 
Q 988 4650 1302 4700 
Q 1616 4750 1894 4750 
Q 2613 4750 3031 4423 
Q 3450 4097 3450 3541 
Q 3450 3153 3228 2886 
Q 3006 2619 2597 2516 
z
" transform="scale(0.015625)"/>
       </defs>
       <use xlink:href="#DejaVuSans-33"/>
      </g>
     </g>
    </g>
    <g id="ytick_5">
     <g id="line2d_27">
      <path d="M 34.240625 72.578345 
L 313.240625 72.578345 
" clip-path="url(#pe0a5e25702)" style="fill: none; stroke: #b0b0b0; stroke-width: 0.8; stroke-linecap: square"/>
     </g>
     <g id="line2d_28">
      <g>
       <use xlink:href="#m455e37c97c" x="34.240625" y="72.578345" style="stroke: #000000; stroke-width: 0.8"/>
      </g>
     </g>
     <g id="text_15">
      <!-- 4 -->
      <g transform="translate(20.878125 76.377564) scale(0.1 -0.1)">
       <defs>
        <path id="DejaVuSans-34" d="M 2419 4116 
L 825 1625 
L 2419 1625 
L 2419 4116 
z
M 2253 4666 
L 3047 4666 
L 3047 1625 
L 3713 1625 
L 3713 1100 
L 3047 1100 
L 3047 0 
L 2419 0 
L 2419 1100 
L 313 1100 
L 313 1709 
L 2253 4666 
z
" transform="scale(0.015625)"/>
       </defs>
       <use xlink:href="#DejaVuSans-34"/>
      </g>
     </g>
    </g>
    <g id="ytick_6">
     <g id="line2d_29">
      <path d="M 34.240625 48.007872 
L 313.240625 48.007872 
" clip-path="url(#pe0a5e25702)" style="fill: none; stroke: #b0b0b0; stroke-width: 0.8; stroke-linecap: square"/>
     </g>
     <g id="line2d_30">
      <g>
       <use xlink:href="#m455e37c97c" x="34.240625" y="48.007872" style="stroke: #000000; stroke-width: 0.8"/>
      </g>
     </g>
     <g id="text_16">
      <!-- 5 -->
      <g transform="translate(20.878125 51.807091) scale(0.1 -0.1)">
       <use xlink:href="#DejaVuSans-35"/>
      </g>
     </g>
    </g>
    <g id="ytick_7">
     <g id="line2d_31">
      <path d="M 34.240625 23.437399 
L 313.240625 23.437399 
" clip-path="url(#pe0a5e25702)" style="fill: none; stroke: #b0b0b0; stroke-width: 0.8; stroke-linecap: square"/>
     </g>
     <g id="line2d_32">
      <g>
       <use xlink:href="#m455e37c97c" x="34.240625" y="23.437399" style="stroke: #000000; stroke-width: 0.8"/>
      </g>
     </g>
     <g id="text_17">
      <!-- 6 -->
      <g transform="translate(20.878125 27.236617) scale(0.1 -0.1)">
       <defs>
        <path id="DejaVuSans-36" d="M 2113 2584 
Q 1688 2584 1439 2293 
Q 1191 2003 1191 1497 
Q 1191 994 1439 701 
Q 1688 409 2113 409 
Q 2538 409 2786 701 
Q 3034 994 3034 1497 
Q 3034 2003 2786 2293 
Q 2538 2584 2113 2584 
z
M 3366 4563 
L 3366 3988 
Q 3128 4100 2886 4159 
Q 2644 4219 2406 4219 
Q 1781 4219 1451 3797 
Q 1122 3375 1075 2522 
Q 1259 2794 1537 2939 
Q 1816 3084 2150 3084 
Q 2853 3084 3261 2657 
Q 3669 2231 3669 1497 
Q 3669 778 3244 343 
Q 2819 -91 2113 -91 
Q 1303 -91 875 529 
Q 447 1150 447 2328 
Q 447 3434 972 4092 
Q 1497 4750 2381 4750 
Q 2619 4750 2861 4703 
Q 3103 4656 3366 4563 
z
" transform="scale(0.015625)"/>
       </defs>
       <use xlink:href="#DejaVuSans-36"/>
      </g>
     </g>
    </g>
    <g id="text_18">
     <!-- Mean Norm Difference -->
     <g transform="translate(14.798438 146.649844) rotate(-90) scale(0.1 -0.1)">
      <defs>
       <path id="DejaVuSans-4d" d="M 628 4666 
L 1569 4666 
L 2759 1491 
L 3956 4666 
L 4897 4666 
L 4897 0 
L 4281 0 
L 4281 4097 
L 3078 897 
L 2444 897 
L 1241 4097 
L 1241 0 
L 628 0 
L 628 4666 
z
" transform="scale(0.015625)"/>
       <path id="DejaVuSans-65" d="M 3597 1894 
L 3597 1613 
L 953 1613 
Q 991 1019 1311 708 
Q 1631 397 2203 397 
Q 2534 397 2845 478 
Q 3156 559 3463 722 
L 3463 178 
Q 3153 47 2828 -22 
Q 2503 -91 2169 -91 
Q 1331 -91 842 396 
Q 353 884 353 1716 
Q 353 2575 817 3079 
Q 1281 3584 2069 3584 
Q 2775 3584 3186 3129 
Q 3597 2675 3597 1894 
z
M 3022 2063 
Q 3016 2534 2758 2815 
Q 2500 3097 2075 3097 
Q 1594 3097 1305 2825 
Q 1016 2553 972 2059 
L 3022 2063 
z
" transform="scale(0.015625)"/>
       <path id="DejaVuSans-61" d="M 2194 1759 
Q 1497 1759 1228 1600 
Q 959 1441 959 1056 
Q 959 750 1161 570 
Q 1363 391 1709 391 
Q 2188 391 2477 730 
Q 2766 1069 2766 1631 
L 2766 1759 
L 2194 1759 
z
M 3341 1997 
L 3341 0 
L 2766 0 
L 2766 531 
Q 2569 213 2275 61 
Q 1981 -91 1556 -91 
Q 1019 -91 701 211 
Q 384 513 384 1019 
Q 384 1609 779 1909 
Q 1175 2209 1959 2209 
L 2766 2209 
L 2766 2266 
Q 2766 2663 2505 2880 
Q 2244 3097 1772 3097 
Q 1472 3097 1187 3025 
Q 903 2953 641 2809 
L 641 3341 
Q 956 3463 1253 3523 
Q 1550 3584 1831 3584 
Q 2591 3584 2966 3190 
Q 3341 2797 3341 1997 
z
" transform="scale(0.015625)"/>
       <path id="DejaVuSans-6e" d="M 3513 2113 
L 3513 0 
L 2938 0 
L 2938 2094 
Q 2938 2591 2744 2837 
Q 2550 3084 2163 3084 
Q 1697 3084 1428 2787 
Q 1159 2491 1159 1978 
L 1159 0 
L 581 0 
L 581 3500 
L 1159 3500 
L 1159 2956 
Q 1366 3272 1645 3428 
Q 1925 3584 2291 3584 
Q 2894 3584 3203 3211 
Q 3513 2838 3513 2113 
z
" transform="scale(0.015625)"/>
       <path id="DejaVuSans-20" transform="scale(0.015625)"/>
       <path id="DejaVuSans-6f" d="M 1959 3097 
Q 1497 3097 1228 2736 
Q 959 2375 959 1747 
Q 959 1119 1226 758 
Q 1494 397 1959 397 
Q 2419 397 2687 759 
Q 2956 1122 2956 1747 
Q 2956 2369 2687 2733 
Q 2419 3097 1959 3097 
z
M 1959 3584 
Q 2709 3584 3137 3096 
Q 3566 2609 3566 1747 
Q 3566 888 3137 398 
Q 2709 -91 1959 -91 
Q 1206 -91 779 398 
Q 353 888 353 1747 
Q 353 2609 779 3096 
Q 1206 3584 1959 3584 
z
" transform="scale(0.015625)"/>
       <path id="DejaVuSans-72" d="M 2631 2963 
Q 2534 3019 2420 3045 
Q 2306 3072 2169 3072 
Q 1681 3072 1420 2755 
Q 1159 2438 1159 1844 
L 1159 0 
L 581 0 
L 581 3500 
L 1159 3500 
L 1159 2956 
Q 1341 3275 1631 3429 
Q 1922 3584 2338 3584 
Q 2397 3584 2469 3576 
Q 2541 3569 2628 3553 
L 2631 2963 
z
" transform="scale(0.015625)"/>
       <path id="DejaVuSans-6d" d="M 3328 2828 
Q 3544 3216 3844 3400 
Q 4144 3584 4550 3584 
Q 5097 3584 5394 3201 
Q 5691 2819 5691 2113 
L 5691 0 
L 5113 0 
L 5113 2094 
Q 5113 2597 4934 2840 
Q 4756 3084 4391 3084 
Q 3944 3084 3684 2787 
Q 3425 2491 3425 1978 
L 3425 0 
L 2847 0 
L 2847 2094 
Q 2847 2600 2669 2842 
Q 2491 3084 2119 3084 
Q 1678 3084 1418 2786 
Q 1159 2488 1159 1978 
L 1159 0 
L 581 0 
L 581 3500 
L 1159 3500 
L 1159 2956 
Q 1356 3278 1631 3431 
Q 1906 3584 2284 3584 
Q 2666 3584 2933 3390 
Q 3200 3197 3328 2828 
z
" transform="scale(0.015625)"/>
       <path id="DejaVuSans-44" d="M 1259 4147 
L 1259 519 
L 2022 519 
Q 2988 519 3436 956 
Q 3884 1394 3884 2338 
Q 3884 3275 3436 3711 
Q 2988 4147 2022 4147 
L 1259 4147 
z
M 628 4666 
L 1925 4666 
Q 3281 4666 3915 4102 
Q 4550 3538 4550 2338 
Q 4550 1131 3912 565 
Q 3275 0 1925 0 
L 628 0 
L 628 4666 
z
" transform="scale(0.015625)"/>
       <path id="DejaVuSans-69" d="M 603 3500 
L 1178 3500 
L 1178 0 
L 603 0 
L 603 3500 
z
M 603 4863 
L 1178 4863 
L 1178 4134 
L 603 4134 
L 603 4863 
z
" transform="scale(0.015625)"/>
       <path id="DejaVuSans-66" d="M 2375 4863 
L 2375 4384 
L 1825 4384 
Q 1516 4384 1395 4259 
Q 1275 4134 1275 3809 
L 1275 3500 
L 2222 3500 
L 2222 3053 
L 1275 3053 
L 1275 0 
L 697 0 
L 697 3053 
L 147 3053 
L 147 3500 
L 697 3500 
L 697 3744 
Q 697 4328 969 4595 
Q 1241 4863 1831 4863 
L 2375 4863 
z
" transform="scale(0.015625)"/>
       <path id="DejaVuSans-63" d="M 3122 3366 
L 3122 2828 
Q 2878 2963 2633 3030 
Q 2388 3097 2138 3097 
Q 1578 3097 1268 2742 
Q 959 2388 959 1747 
Q 959 1106 1268 751 
Q 1578 397 2138 397 
Q 2388 397 2633 464 
Q 2878 531 3122 666 
L 3122 134 
Q 2881 22 2623 -34 
Q 2366 -91 2075 -91 
Q 1284 -91 818 406 
Q 353 903 353 1747 
Q 353 2603 823 3093 
Q 1294 3584 2113 3584 
Q 2378 3584 2631 3529 
Q 2884 3475 3122 3366 
z
" transform="scale(0.015625)"/>
      </defs>
      <use xlink:href="#DejaVuSans-4d"/>
      <use xlink:href="#DejaVuSans-65" x="86.279297"/>
      <use xlink:href="#DejaVuSans-61" x="147.802734"/>
      <use xlink:href="#DejaVuSans-6e" x="209.082031"/>
      <use xlink:href="#DejaVuSans-20" x="272.460938"/>
      <use xlink:href="#DejaVuSans-4e" x="304.248047"/>
      <use xlink:href="#DejaVuSans-6f" x="379.052734"/>
      <use xlink:href="#DejaVuSans-72" x="440.234375"/>
      <use xlink:href="#DejaVuSans-6d" x="479.597656"/>
      <use xlink:href="#DejaVuSans-20" x="577.009766"/>
      <use xlink:href="#DejaVuSans-44" x="608.796875"/>
      <use xlink:href="#DejaVuSans-69" x="685.798828"/>
      <use xlink:href="#DejaVuSans-66" x="713.582031"/>
      <use xlink:href="#DejaVuSans-66" x="748.787109"/>
      <use xlink:href="#DejaVuSans-65" x="783.992188"/>
      <use xlink:href="#DejaVuSans-72" x="845.515625"/>
      <use xlink:href="#DejaVuSans-65" x="884.378906"/>
      <use xlink:href="#DejaVuSans-6e" x="945.902344"/>
      <use xlink:href="#DejaVuSans-63" x="1009.28125"/>
      <use xlink:href="#DejaVuSans-65" x="1064.261719"/>
     </g>
    </g>
   </g>
   <g id="line2d_33">
    <path d="M 46.922443 115.478261 
L 53.42594 121.014916 
L 59.929436 138.813431 
L 66.432933 149.891711 
L 72.936429 146.830267 
L 79.439926 151.775535 
L 85.943422 152.032977 
L 92.446919 151.209116 
L 98.950415 152.114859 
L 105.453912 153.089834 
L 111.957408 153.519329 
L 118.460905 154.280882 
L 124.964401 156.927035 
L 131.467898 154.818565 
L 137.971394 154.928221 
L 144.474891 156.875958 
L 150.978387 157.18324 
L 157.481884 157.265614 
L 163.98538 157.631832 
L 170.488877 158.263758 
L 176.992373 159.207689 
L 183.49587 159.486998 
L 189.999366 159.387142 
L 196.502863 160.399315 
L 203.006359 160.861351 
L 209.509856 160.86455 
L 216.013352 161.063034 
L 222.516849 161.852446 
L 229.020345 162.140692 
L 235.523842 161.690151 
L 242.027338 162.548244 
L 248.530835 161.885934 
L 255.034331 161.683045 
L 261.537828 161.610151 
L 268.041324 162.009304 
L 274.544821 161.838592 
L 281.048317 162.718258 
L 287.551814 163.086425 
L 294.05531 163.053609 
L 300.558807 163.125822 
" clip-path="url(#pe0a5e25702)" style="fill: none; stroke: #1f77b4; stroke-width: 2; stroke-linecap: square"/>
   </g>
   <g id="line2d_34">
    <path d="M 46.922443 136.235648 
L 53.42594 140.96209 
L 59.929436 144.554993 
L 66.432933 147.107596 
L 72.936429 148.674317 
L 79.439926 149.429112 
L 85.943422 150.468027 
L 92.446919 151.138818 
L 98.950415 150.97834 
L 105.453912 151.237192 
L 111.957408 152.648372 
L 118.460905 155.295125 
L 124.964401 154.583074 
L 131.467898 154.196479 
L 137.971394 155.050264 
L 144.474891 155.904488 
L 150.978387 156.54967 
L 157.481884 156.783437 
L 163.98538 157.85181 
L 170.488877 158.521562 
L 176.992373 158.517642 
L 183.49587 159.029779 
L 189.999366 159.245689 
L 196.502863 160.272738 
L 203.006359 160.376097 
L 209.509856 160.853577 
L 216.013352 160.912976 
L 222.516849 161.586403 
L 229.020345 161.882205 
L 235.523842 161.88533 
L 242.027338 161.724642 
L 248.530835 161.980959 
L 255.034331 161.668759 
L 261.537828 161.596279 
L 268.041324 160.983912 
L 274.544821 161.835307 
L 281.048317 162.15325 
L 287.551814 162.211341 
L 294.05531 162.347402 
L 300.558807 162.739773 
" clip-path="url(#pe0a5e25702)" style="fill: none; stroke: #ff7f0e; stroke-width: 2; stroke-linecap: square"/>
   </g>
   <g id="patch_3">
    <path d="M 34.240625 173.52 
L 34.240625 7.2 
" style="fill: none; stroke: #000000; stroke-width: 0.8; stroke-linejoin: miter; stroke-linecap: square"/>
   </g>
   <g id="patch_4">
    <path d="M 313.240625 173.52 
L 313.240625 7.2 
" style="fill: none; stroke: #000000; stroke-width: 0.8; stroke-linejoin: miter; stroke-linecap: square"/>
   </g>
   <g id="patch_5">
    <path d="M 34.240625 173.52 
L 313.240625 173.52 
" style="fill: none; stroke: #000000; stroke-width: 0.8; stroke-linejoin: miter; stroke-linecap: square"/>
   </g>
   <g id="patch_6">
    <path d="M 34.240625 7.2 
L 313.240625 7.2 
" style="fill: none; stroke: #000000; stroke-width: 0.8; stroke-linejoin: miter; stroke-linecap: square"/>
   </g>
   <g id="legend_1">
    <g id="patch_7">
     <path d="M 175.44875 87.255 
L 304.840625 87.255 
Q 307.240625 87.255 307.240625 84.855 
L 307.240625 15.6 
Q 307.240625 13.2 304.840625 13.2 
L 175.44875 13.2 
Q 173.04875 13.2 173.04875 15.6 
L 173.04875 84.855 
Q 173.04875 87.255 175.44875 87.255 
z
" style="fill: #ffffff; opacity: 0.8; stroke: #cccccc; stroke-linejoin: miter"/>
    </g>
    <g id="line2d_35">
     <path d="M 177.84875 22.918125 
L 189.84875 22.918125 
L 201.84875 22.918125 
" style="fill: none; stroke: #1f77b4; stroke-width: 2; stroke-linecap: square"/>
    </g>
    <g id="text_19">
     <!-- Mean Approx -->
     <g transform="translate(211.44875 27.118125) scale(0.12 -0.12)">
      <defs>
       <path id="DejaVuSans-41" d="M 2188 4044 
L 1331 1722 
L 3047 1722 
L 2188 4044 
z
M 1831 4666 
L 2547 4666 
L 4325 0 
L 3669 0 
L 3244 1197 
L 1141 1197 
L 716 0 
L 50 0 
L 1831 4666 
z
" transform="scale(0.015625)"/>
       <path id="DejaVuSans-70" d="M 1159 525 
L 1159 -1331 
L 581 -1331 
L 581 3500 
L 1159 3500 
L 1159 2969 
Q 1341 3281 1617 3432 
Q 1894 3584 2278 3584 
Q 2916 3584 3314 3078 
Q 3713 2572 3713 1747 
Q 3713 922 3314 415 
Q 2916 -91 2278 -91 
Q 1894 -91 1617 61 
Q 1341 213 1159 525 
z
M 3116 1747 
Q 3116 2381 2855 2742 
Q 2594 3103 2138 3103 
Q 1681 3103 1420 2742 
Q 1159 2381 1159 1747 
Q 1159 1113 1420 752 
Q 1681 391 2138 391 
Q 2594 391 2855 752 
Q 3116 1113 3116 1747 
z
" transform="scale(0.015625)"/>
       <path id="DejaVuSans-78" d="M 3513 3500 
L 2247 1797 
L 3578 0 
L 2900 0 
L 1881 1375 
L 863 0 
L 184 0 
L 1544 1831 
L 300 3500 
L 978 3500 
L 1906 2253 
L 2834 3500 
L 3513 3500 
z
" transform="scale(0.015625)"/>
      </defs>
      <use xlink:href="#DejaVuSans-4d"/>
      <use xlink:href="#DejaVuSans-65" x="86.279297"/>
      <use xlink:href="#DejaVuSans-61" x="147.802734"/>
      <use xlink:href="#DejaVuSans-6e" x="209.082031"/>
      <use xlink:href="#DejaVuSans-20" x="272.460938"/>
      <use xlink:href="#DejaVuSans-41" x="304.248047"/>
      <use xlink:href="#DejaVuSans-70" x="372.65625"/>
      <use xlink:href="#DejaVuSans-70" x="436.132812"/>
      <use xlink:href="#DejaVuSans-72" x="499.609375"/>
      <use xlink:href="#DejaVuSans-6f" x="538.472656"/>
      <use xlink:href="#DejaVuSans-78" x="596.529297"/>
     </g>
    </g>
    <g id="patch_8">
     <path d="M 177.84875 44.731875 
L 201.84875 44.731875 
L 201.84875 36.331875 
L 177.84875 36.331875 
z
" style="fill: #0000ff; fill-opacity: 0.2; stroke: #0000ff; stroke-opacity: 0.2; stroke-linejoin: miter"/>
    </g>
    <g id="text_20">
     <!-- 95% CI Approx -->
     <g transform="translate(211.44875 44.731875) scale(0.12 -0.12)">
      <defs>
       <path id="DejaVuSans-39" d="M 703 97 
L 703 672 
Q 941 559 1184 500 
Q 1428 441 1663 441 
Q 2288 441 2617 861 
Q 2947 1281 2994 2138 
Q 2813 1869 2534 1725 
Q 2256 1581 1919 1581 
Q 1219 1581 811 2004 
Q 403 2428 403 3163 
Q 403 3881 828 4315 
Q 1253 4750 1959 4750 
Q 2769 4750 3195 4129 
Q 3622 3509 3622 2328 
Q 3622 1225 3098 567 
Q 2575 -91 1691 -91 
Q 1453 -91 1209 -44 
Q 966 3 703 97 
z
M 1959 2075 
Q 2384 2075 2632 2365 
Q 2881 2656 2881 3163 
Q 2881 3666 2632 3958 
Q 2384 4250 1959 4250 
Q 1534 4250 1286 3958 
Q 1038 3666 1038 3163 
Q 1038 2656 1286 2365 
Q 1534 2075 1959 2075 
z
" transform="scale(0.015625)"/>
       <path id="DejaVuSans-25" d="M 4653 2053 
Q 4381 2053 4226 1822 
Q 4072 1591 4072 1178 
Q 4072 772 4226 539 
Q 4381 306 4653 306 
Q 4919 306 5073 539 
Q 5228 772 5228 1178 
Q 5228 1588 5073 1820 
Q 4919 2053 4653 2053 
z
M 4653 2450 
Q 5147 2450 5437 2106 
Q 5728 1763 5728 1178 
Q 5728 594 5436 251 
Q 5144 -91 4653 -91 
Q 4153 -91 3862 251 
Q 3572 594 3572 1178 
Q 3572 1766 3864 2108 
Q 4156 2450 4653 2450 
z
M 1428 4353 
Q 1159 4353 1004 4120 
Q 850 3888 850 3481 
Q 850 3069 1003 2837 
Q 1156 2606 1428 2606 
Q 1700 2606 1854 2837 
Q 2009 3069 2009 3481 
Q 2009 3884 1853 4118 
Q 1697 4353 1428 4353 
z
M 4250 4750 
L 4750 4750 
L 1831 -91 
L 1331 -91 
L 4250 4750 
z
M 1428 4750 
Q 1922 4750 2215 4408 
Q 2509 4066 2509 3481 
Q 2509 2891 2217 2550 
Q 1925 2209 1428 2209 
Q 931 2209 642 2551 
Q 353 2894 353 3481 
Q 353 4063 643 4406 
Q 934 4750 1428 4750 
z
" transform="scale(0.015625)"/>
       <path id="DejaVuSans-43" d="M 4122 4306 
L 4122 3641 
Q 3803 3938 3442 4084 
Q 3081 4231 2675 4231 
Q 1875 4231 1450 3742 
Q 1025 3253 1025 2328 
Q 1025 1406 1450 917 
Q 1875 428 2675 428 
Q 3081 428 3442 575 
Q 3803 722 4122 1019 
L 4122 359 
Q 3791 134 3420 21 
Q 3050 -91 2638 -91 
Q 1578 -91 968 557 
Q 359 1206 359 2328 
Q 359 3453 968 4101 
Q 1578 4750 2638 4750 
Q 3056 4750 3426 4639 
Q 3797 4528 4122 4306 
z
" transform="scale(0.015625)"/>
       <path id="DejaVuSans-49" d="M 628 4666 
L 1259 4666 
L 1259 0 
L 628 0 
L 628 4666 
z
" transform="scale(0.015625)"/>
      </defs>
      <use xlink:href="#DejaVuSans-39"/>
      <use xlink:href="#DejaVuSans-35" x="63.623047"/>
      <use xlink:href="#DejaVuSans-25" x="127.246094"/>
      <use xlink:href="#DejaVuSans-20" x="222.265625"/>
      <use xlink:href="#DejaVuSans-43" x="254.052734"/>
      <use xlink:href="#DejaVuSans-49" x="323.876953"/>
      <use xlink:href="#DejaVuSans-20" x="353.369141"/>
      <use xlink:href="#DejaVuSans-41" x="385.15625"/>
      <use xlink:href="#DejaVuSans-70" x="453.564453"/>
      <use xlink:href="#DejaVuSans-70" x="517.041016"/>
      <use xlink:href="#DejaVuSans-72" x="580.517578"/>
      <use xlink:href="#DejaVuSans-6f" x="619.380859"/>
      <use xlink:href="#DejaVuSans-78" x="677.4375"/>
     </g>
    </g>
    <g id="line2d_36">
     <path d="M 177.84875 58.145625 
L 189.84875 58.145625 
L 201.84875 58.145625 
" style="fill: none; stroke: #ff7f0e; stroke-width: 2; stroke-linecap: square"/>
    </g>
    <g id="text_21">
     <!-- Mean Jeffreys -->
     <g transform="translate(211.44875 62.345625) scale(0.12 -0.12)">
      <defs>
       <path id="DejaVuSans-4a" d="M 628 4666 
L 1259 4666 
L 1259 325 
Q 1259 -519 939 -900 
Q 619 -1281 -91 -1281 
L -331 -1281 
L -331 -750 
L -134 -750 
Q 284 -750 456 -515 
Q 628 -281 628 325 
L 628 4666 
z
" transform="scale(0.015625)"/>
       <path id="DejaVuSans-79" d="M 2059 -325 
Q 1816 -950 1584 -1140 
Q 1353 -1331 966 -1331 
L 506 -1331 
L 506 -850 
L 844 -850 
Q 1081 -850 1212 -737 
Q 1344 -625 1503 -206 
L 1606 56 
L 191 3500 
L 800 3500 
L 1894 763 
L 2988 3500 
L 3597 3500 
L 2059 -325 
z
" transform="scale(0.015625)"/>
       <path id="DejaVuSans-73" d="M 2834 3397 
L 2834 2853 
Q 2591 2978 2328 3040 
Q 2066 3103 1784 3103 
Q 1356 3103 1142 2972 
Q 928 2841 928 2578 
Q 928 2378 1081 2264 
Q 1234 2150 1697 2047 
L 1894 2003 
Q 2506 1872 2764 1633 
Q 3022 1394 3022 966 
Q 3022 478 2636 193 
Q 2250 -91 1575 -91 
Q 1294 -91 989 -36 
Q 684 19 347 128 
L 347 722 
Q 666 556 975 473 
Q 1284 391 1588 391 
Q 1994 391 2212 530 
Q 2431 669 2431 922 
Q 2431 1156 2273 1281 
Q 2116 1406 1581 1522 
L 1381 1569 
Q 847 1681 609 1914 
Q 372 2147 372 2553 
Q 372 3047 722 3315 
Q 1072 3584 1716 3584 
Q 2034 3584 2315 3537 
Q 2597 3491 2834 3397 
z
" transform="scale(0.015625)"/>
      </defs>
      <use xlink:href="#DejaVuSans-4d"/>
      <use xlink:href="#DejaVuSans-65" x="86.279297"/>
      <use xlink:href="#DejaVuSans-61" x="147.802734"/>
      <use xlink:href="#DejaVuSans-6e" x="209.082031"/>
      <use xlink:href="#DejaVuSans-20" x="272.460938"/>
      <use xlink:href="#DejaVuSans-4a" x="304.248047"/>
      <use xlink:href="#DejaVuSans-65" x="333.740234"/>
      <use xlink:href="#DejaVuSans-66" x="395.263672"/>
      <use xlink:href="#DejaVuSans-66" x="430.46875"/>
      <use xlink:href="#DejaVuSans-72" x="465.673828"/>
      <use xlink:href="#DejaVuSans-65" x="504.537109"/>
      <use xlink:href="#DejaVuSans-79" x="566.060547"/>
      <use xlink:href="#DejaVuSans-73" x="625.240234"/>
     </g>
    </g>
    <g id="patch_9">
     <path d="M 177.84875 79.959375 
L 201.84875 79.959375 
L 201.84875 71.559375 
L 177.84875 71.559375 
z
" style="fill: #ffa500; fill-opacity: 0.2; stroke: #ffa500; stroke-opacity: 0.2; stroke-linejoin: miter"/>
    </g>
    <g id="text_22">
     <!-- 95% CI Jeffreys -->
     <g transform="translate(211.44875 79.959375) scale(0.12 -0.12)">
      <use xlink:href="#DejaVuSans-39"/>
      <use xlink:href="#DejaVuSans-35" x="63.623047"/>
      <use xlink:href="#DejaVuSans-25" x="127.246094"/>
      <use xlink:href="#DejaVuSans-20" x="222.265625"/>
      <use xlink:href="#DejaVuSans-43" x="254.052734"/>
      <use xlink:href="#DejaVuSans-49" x="323.876953"/>
      <use xlink:href="#DejaVuSans-20" x="353.369141"/>
      <use xlink:href="#DejaVuSans-4a" x="385.15625"/>
      <use xlink:href="#DejaVuSans-65" x="414.648438"/>
      <use xlink:href="#DejaVuSans-66" x="476.171875"/>
      <use xlink:href="#DejaVuSans-66" x="511.376953"/>
      <use xlink:href="#DejaVuSans-72" x="546.582031"/>
      <use xlink:href="#DejaVuSans-65" x="585.445312"/>
      <use xlink:href="#DejaVuSans-79" x="646.96875"/>
      <use xlink:href="#DejaVuSans-73" x="706.148438"/>
     </g>
    </g>
   </g>
  </g>
 </g>
 <defs>
  <clipPath id="pe0a5e25702">
   <rect x="34.240625" y="7.2" width="279" height="166.32"/>
  </clipPath>
 </defs>
</svg>
