<?xml version="1.0" encoding="utf-8" standalone="no"?>
<!DOCTYPE svg PUBLIC "-//W3C//DTD SVG 1.1//EN"
  "http://www.w3.org/Graphics/SVG/1.1/DTD/svg11.dtd">
<svg xmlns:xlink="http://www.w3.org/1999/xlink" width="329.98125pt" height="212.530384pt" viewBox="0 0 329.98125 212.530384" xmlns="http://www.w3.org/2000/svg" version="1.1">
 <metadata>
  <rdf:RDF xmlns:dc="http://purl.org/dc/elements/1.1/" xmlns:cc="http://creativecommons.org/ns#" xmlns:rdf="http://www.w3.org/1999/02/22-rdf-syntax-ns#">
   <cc:Work>
    <dc:type rdf:resource="http://purl.org/dc/dcmitype/StillImage"/>
    <dc:date>2025-02-07T14:27:00.160132</dc:date>
    <dc:format>image/svg+xml</dc:format>
    <dc:creator>
     <cc:Agent>
      <dc:title>Matplotlib v3.10.0, https://matplotlib.org/</dc:title>
     </cc:Agent>
    </dc:creator>
   </cc:Work>
  </rdf:RDF>
 </metadata>
 <defs>
  <style type="text/css">*{stroke-linejoin: round; stroke-linecap: butt}</style>
 </defs>
 <g id="figure_1">
  <g id="patch_1">
   <path d="M 0 212.530384 
L 329.98125 212.530384 
L 329.98125 0 
L 0 0 
z
" style="fill: #ffffff"/>
  </g>
  <g id="axes_1">
   <g id="patch_2">
    <path d="M 43.78125 174.974134 
L 322.78125 174.974134 
L 322.78125 8.654134 
L 43.78125 8.654134 
z
" style="fill: #ffffff"/>
   </g>
   <g id="FillBetweenPolyCollection_1">
    <defs>
     <path id="me6a7e68980" d="M 56.463068 -165.003019 
L 56.463068 -100.672873 
L 62.966565 -68.452707 
L 69.470061 -68.473503 
L 75.973558 -64.579417 
L 82.477054 -67.402234 
L 88.980551 -60.151068 
L 95.484047 -60.261421 
L 101.987544 -56.383703 
L 108.49104 -55.060526 
L 114.994537 -56.161977 
L 121.498033 -56.948337 
L 128.00153 -53.71682 
L 134.505026 -53.698516 
L 141.008523 -53.392666 
L 147.512019 -54.067917 
L 154.015516 -54.142895 
L 160.519012 -54.492077 
L 167.022509 -53.850978 
L 173.526005 -52.648476 
L 180.029502 -52.042348 
L 186.532998 -51.21825 
L 193.036495 -50.398865 
L 199.539991 -50.386908 
L 206.043488 -47.156047 
L 212.546984 -47.141008 
L 219.050481 -48.227542 
L 225.553977 -47.278645 
L 232.057474 -47.459765 
L 238.56097 -48.16656 
L 245.064467 -47.318947 
L 251.567963 -46.317717 
L 258.07146 -46.345663 
L 264.574956 -46.686494 
L 271.078453 -46.458924 
L 277.581949 -45.929117 
L 284.085446 -46.261938 
L 290.588942 -45.942808 
L 297.092439 -46.497957 
L 303.595935 -45.494491 
L 310.099432 -46.061331 
L 310.099432 -67.910741 
L 310.099432 -67.910741 
L 303.595935 -71.486341 
L 297.092439 -67.879298 
L 290.588942 -66.894827 
L 284.085446 -75.28315 
L 277.581949 -75.535089 
L 271.078453 -73.030359 
L 264.574956 -73.980841 
L 258.07146 -76.142802 
L 251.567963 -73.343712 
L 245.064467 -74.202485 
L 238.56097 -70.766285 
L 232.057474 -78.3586 
L 225.553977 -75.573688 
L 219.050481 -80.475492 
L 212.546984 -84.3357 
L 206.043488 -86.518875 
L 199.539991 -96.598223 
L 193.036495 -89.526531 
L 186.532998 -89.553195 
L 180.029502 -90.824149 
L 173.526005 -92.101832 
L 167.022509 -108.800223 
L 160.519012 -106.635754 
L 154.015516 -109.953759 
L 147.512019 -108.929504 
L 141.008523 -114.040309 
L 134.505026 -117.164899 
L 128.00153 -112.065524 
L 121.498033 -133.663277 
L 114.994537 -137.09242 
L 108.49104 -145.593553 
L 101.987544 -138.454026 
L 95.484047 -138.057759 
L 88.980551 -132.843411 
L 82.477054 -133.461584 
L 75.973558 -151.350987 
L 69.470061 -129.243835 
L 62.966565 -196.31625 
L 56.463068 -165.003019 
z
" style="stroke: #0000ff; stroke-opacity: 0.2"/>
    </defs>
    <g clip-path="url(#pca9e984476)">
     <use xlink:href="#me6a7e68980" x="0" y="212.530384" style="fill: #0000ff; fill-opacity: 0.2; stroke: #0000ff; stroke-opacity: 0.2"/>
    </g>
   </g>
   <g id="FillBetweenPolyCollection_2">
    <defs>
     <path id="m78e905aea6" d="M 56.463068 -142.426299 
L 56.463068 -106.778509 
L 62.966565 -92.006257 
L 69.470061 -80.858742 
L 75.973558 -74.594842 
L 82.477054 -63.583702 
L 88.980551 -64.625811 
L 95.484047 -61.046321 
L 101.987544 -57.525399 
L 108.49104 -59.276291 
L 114.994537 -58.848287 
L 121.498033 -58.237434 
L 128.00153 -55.124802 
L 134.505026 -54.553152 
L 141.008523 -54.314177 
L 147.512019 -55.092706 
L 154.015516 -53.879084 
L 160.519012 -54.729104 
L 167.022509 -54.060122 
L 173.526005 -53.157021 
L 180.029502 -52.586378 
L 186.532998 -52.206809 
L 193.036495 -51.251595 
L 199.539991 -50.577523 
L 206.043488 -48.198001 
L 212.546984 -48.211514 
L 219.050481 -47.664272 
L 225.553977 -47.546109 
L 232.057474 -47.996385 
L 238.56097 -47.948392 
L 245.064467 -47.245052 
L 251.567963 -46.386038 
L 258.07146 -46.780047 
L 264.574956 -46.387312 
L 271.078453 -46.576248 
L 277.581949 -46.919706 
L 284.085446 -46.526454 
L 290.588942 -46.263458 
L 297.092439 -46.402689 
L 303.595935 -45.434047 
L 310.099432 -45.11625 
L 310.099432 -71.112396 
L 310.099432 -71.112396 
L 303.595935 -70.798584 
L 297.092439 -70.359454 
L 290.588942 -72.604435 
L 284.085446 -71.633945 
L 277.581949 -81.795292 
L 271.078453 -76.019408 
L 264.574956 -77.894904 
L 258.07146 -79.648899 
L 251.567963 -75.938411 
L 245.064467 -76.99692 
L 238.56097 -76.300601 
L 232.057474 -82.550439 
L 225.553977 -82.551999 
L 219.050481 -83.197821 
L 212.546984 -86.962987 
L 206.043488 -89.573265 
L 199.539991 -98.954316 
L 193.036495 -94.936555 
L 186.532998 -98.772933 
L 180.029502 -97.947134 
L 173.526005 -99.159421 
L 167.022509 -110.828065 
L 160.519012 -110.076981 
L 154.015516 -110.022417 
L 147.512019 -113.311968 
L 141.008523 -120.016612 
L 134.505026 -121.999518 
L 128.00153 -121.368719 
L 121.498033 -141.250896 
L 114.994537 -141.672324 
L 108.49104 -151.710887 
L 101.987544 -140.937455 
L 95.484047 -143.600236 
L 88.980551 -145.701595 
L 82.477054 -142.968571 
L 75.973558 -157.499424 
L 69.470061 -160.568925 
L 62.966565 -142.300344 
L 56.463068 -142.426299 
z
" style="stroke: #ffa500; stroke-opacity: 0.2"/>
    </defs>
    <g clip-path="url(#pca9e984476)">
     <use xlink:href="#m78e905aea6" x="0" y="212.530384" style="fill: #ffa500; fill-opacity: 0.2; stroke: #ffa500; stroke-opacity: 0.2"/>
    </g>
   </g>
   <g id="matplotlib.axis_1">
    <g id="xtick_1">
     <g id="line2d_1">
      <path d="M 49.959572 174.974134 
L 49.959572 8.654134 
" clip-path="url(#pca9e984476)" style="fill: none; stroke: #b0b0b0; stroke-width: 0.8; stroke-linecap: square"/>
     </g>
     <g id="line2d_2">
      <defs>
       <path id="m7734a39dae" d="M 0 0 
L 0 3.5 
" style="stroke: #000000; stroke-width: 0.8"/>
      </defs>
      <g>
       <use xlink:href="#m7734a39dae" x="49.959572" y="174.974134" style="stroke: #000000; stroke-width: 0.8"/>
      </g>
     </g>
     <g id="text_1">
      <!-- 0 -->
      <g transform="translate(46.778322 189.572572) scale(0.1 -0.1)">
       <defs>
        <path id="DejaVuSans-30" d="M 2034 4250 
Q 1547 4250 1301 3770 
Q 1056 3291 1056 2328 
Q 1056 1369 1301 889 
Q 1547 409 2034 409 
Q 2525 409 2770 889 
Q 3016 1369 3016 2328 
Q 3016 3291 2770 3770 
Q 2525 4250 2034 4250 
z
M 2034 4750 
Q 2819 4750 3233 4129 
Q 3647 3509 3647 2328 
Q 3647 1150 3233 529 
Q 2819 -91 2034 -91 
Q 1250 -91 836 529 
Q 422 1150 422 2328 
Q 422 3509 836 4129 
Q 1250 4750 2034 4750 
z
" transform="scale(0.015625)"/>
       </defs>
       <use xlink:href="#DejaVuSans-30"/>
      </g>
     </g>
    </g>
    <g id="xtick_2">
     <g id="line2d_3">
      <path d="M 82.477054 174.974134 
L 82.477054 8.654134 
" clip-path="url(#pca9e984476)" style="fill: none; stroke: #b0b0b0; stroke-width: 0.8; stroke-linecap: square"/>
     </g>
     <g id="line2d_4">
      <g>
       <use xlink:href="#m7734a39dae" x="82.477054" y="174.974134" style="stroke: #000000; stroke-width: 0.8"/>
      </g>
     </g>
     <g id="text_2">
      <!-- 25 -->
      <g transform="translate(76.114554 189.572572) scale(0.1 -0.1)">
       <defs>
        <path id="DejaVuSans-32" d="M 1228 531 
L 3431 531 
L 3431 0 
L 469 0 
L 469 531 
Q 828 903 1448 1529 
Q 2069 2156 2228 2338 
Q 2531 2678 2651 2914 
Q 2772 3150 2772 3378 
Q 2772 3750 2511 3984 
Q 2250 4219 1831 4219 
Q 1534 4219 1204 4116 
Q 875 4013 500 3803 
L 500 4441 
Q 881 4594 1212 4672 
Q 1544 4750 1819 4750 
Q 2544 4750 2975 4387 
Q 3406 4025 3406 3419 
Q 3406 3131 3298 2873 
Q 3191 2616 2906 2266 
Q 2828 2175 2409 1742 
Q 1991 1309 1228 531 
z
" transform="scale(0.015625)"/>
        <path id="DejaVuSans-35" d="M 691 4666 
L 3169 4666 
L 3169 4134 
L 1269 4134 
L 1269 2991 
Q 1406 3038 1543 3061 
Q 1681 3084 1819 3084 
Q 2600 3084 3056 2656 
Q 3513 2228 3513 1497 
Q 3513 744 3044 326 
Q 2575 -91 1722 -91 
Q 1428 -91 1123 -41 
Q 819 9 494 109 
L 494 744 
Q 775 591 1075 516 
Q 1375 441 1709 441 
Q 2250 441 2565 725 
Q 2881 1009 2881 1497 
Q 2881 1984 2565 2268 
Q 2250 2553 1709 2553 
Q 1456 2553 1204 2497 
Q 953 2441 691 2322 
L 691 4666 
z
" transform="scale(0.015625)"/>
       </defs>
       <use xlink:href="#DejaVuSans-32"/>
       <use xlink:href="#DejaVuSans-35" transform="translate(63.623047 0)"/>
      </g>
     </g>
    </g>
    <g id="xtick_3">
     <g id="line2d_5">
      <path d="M 114.994537 174.974134 
L 114.994537 8.654134 
" clip-path="url(#pca9e984476)" style="fill: none; stroke: #b0b0b0; stroke-width: 0.8; stroke-linecap: square"/>
     </g>
     <g id="line2d_6">
      <g>
       <use xlink:href="#m7734a39dae" x="114.994537" y="174.974134" style="stroke: #000000; stroke-width: 0.8"/>
      </g>
     </g>
     <g id="text_3">
      <!-- 50 -->
      <g transform="translate(108.632037 189.572572) scale(0.1 -0.1)">
       <use xlink:href="#DejaVuSans-35"/>
       <use xlink:href="#DejaVuSans-30" transform="translate(63.623047 0)"/>
      </g>
     </g>
    </g>
    <g id="xtick_4">
     <g id="line2d_7">
      <path d="M 147.512019 174.974134 
L 147.512019 8.654134 
" clip-path="url(#pca9e984476)" style="fill: none; stroke: #b0b0b0; stroke-width: 0.8; stroke-linecap: square"/>
     </g>
     <g id="line2d_8">
      <g>
       <use xlink:href="#m7734a39dae" x="147.512019" y="174.974134" style="stroke: #000000; stroke-width: 0.8"/>
      </g>
     </g>
     <g id="text_4">
      <!-- 75 -->
      <g transform="translate(141.149519 189.572572) scale(0.1 -0.1)">
       <defs>
        <path id="DejaVuSans-37" d="M 525 4666 
L 3525 4666 
L 3525 4397 
L 1831 0 
L 1172 0 
L 2766 4134 
L 525 4134 
L 525 4666 
z
" transform="scale(0.015625)"/>
       </defs>
       <use xlink:href="#DejaVuSans-37"/>
       <use xlink:href="#DejaVuSans-35" transform="translate(63.623047 0)"/>
      </g>
     </g>
    </g>
    <g id="xtick_5">
     <g id="line2d_9">
      <path d="M 180.029502 174.974134 
L 180.029502 8.654134 
" clip-path="url(#pca9e984476)" style="fill: none; stroke: #b0b0b0; stroke-width: 0.8; stroke-linecap: square"/>
     </g>
     <g id="line2d_10">
      <g>
       <use xlink:href="#m7734a39dae" x="180.029502" y="174.974134" style="stroke: #000000; stroke-width: 0.8"/>
      </g>
     </g>
     <g id="text_5">
      <!-- 100 -->
      <g transform="translate(170.485752 189.572572) scale(0.1 -0.1)">
       <defs>
        <path id="DejaVuSans-31" d="M 794 531 
L 1825 531 
L 1825 4091 
L 703 3866 
L 703 4441 
L 1819 4666 
L 2450 4666 
L 2450 531 
L 3481 531 
L 3481 0 
L 794 0 
L 794 531 
z
" transform="scale(0.015625)"/>
       </defs>
       <use xlink:href="#DejaVuSans-31"/>
       <use xlink:href="#DejaVuSans-30" transform="translate(63.623047 0)"/>
       <use xlink:href="#DejaVuSans-30" transform="translate(127.246094 0)"/>
      </g>
     </g>
    </g>
    <g id="xtick_6">
     <g id="line2d_11">
      <path d="M 212.546984 174.974134 
L 212.546984 8.654134 
" clip-path="url(#pca9e984476)" style="fill: none; stroke: #b0b0b0; stroke-width: 0.8; stroke-linecap: square"/>
     </g>
     <g id="line2d_12">
      <g>
       <use xlink:href="#m7734a39dae" x="212.546984" y="174.974134" style="stroke: #000000; stroke-width: 0.8"/>
      </g>
     </g>
     <g id="text_6">
      <!-- 125 -->
      <g transform="translate(203.003234 189.572572) scale(0.1 -0.1)">
       <use xlink:href="#DejaVuSans-31"/>
       <use xlink:href="#DejaVuSans-32" transform="translate(63.623047 0)"/>
       <use xlink:href="#DejaVuSans-35" transform="translate(127.246094 0)"/>
      </g>
     </g>
    </g>
    <g id="xtick_7">
     <g id="line2d_13">
      <path d="M 245.064467 174.974134 
L 245.064467 8.654134 
" clip-path="url(#pca9e984476)" style="fill: none; stroke: #b0b0b0; stroke-width: 0.8; stroke-linecap: square"/>
     </g>
     <g id="line2d_14">
      <g>
       <use xlink:href="#m7734a39dae" x="245.064467" y="174.974134" style="stroke: #000000; stroke-width: 0.8"/>
      </g>
     </g>
     <g id="text_7">
      <!-- 150 -->
      <g transform="translate(235.520717 189.572572) scale(0.1 -0.1)">
       <use xlink:href="#DejaVuSans-31"/>
       <use xlink:href="#DejaVuSans-35" transform="translate(63.623047 0)"/>
       <use xlink:href="#DejaVuSans-30" transform="translate(127.246094 0)"/>
      </g>
     </g>
    </g>
    <g id="xtick_8">
     <g id="line2d_15">
      <path d="M 277.581949 174.974134 
L 277.581949 8.654134 
" clip-path="url(#pca9e984476)" style="fill: none; stroke: #b0b0b0; stroke-width: 0.8; stroke-linecap: square"/>
     </g>
     <g id="line2d_16">
      <g>
       <use xlink:href="#m7734a39dae" x="277.581949" y="174.974134" style="stroke: #000000; stroke-width: 0.8"/>
      </g>
     </g>
     <g id="text_8">
      <!-- 175 -->
      <g transform="translate(268.038199 189.572572) scale(0.1 -0.1)">
       <use xlink:href="#DejaVuSans-31"/>
       <use xlink:href="#DejaVuSans-37" transform="translate(63.623047 0)"/>
       <use xlink:href="#DejaVuSans-35" transform="translate(127.246094 0)"/>
      </g>
     </g>
    </g>
    <g id="xtick_9">
     <g id="line2d_17">
      <path d="M 310.099432 174.974134 
L 310.099432 8.654134 
" clip-path="url(#pca9e984476)" style="fill: none; stroke: #b0b0b0; stroke-width: 0.8; stroke-linecap: square"/>
     </g>
     <g id="line2d_18">
      <g>
       <use xlink:href="#m7734a39dae" x="310.099432" y="174.974134" style="stroke: #000000; stroke-width: 0.8"/>
      </g>
     </g>
     <g id="text_9">
      <!-- 200 -->
      <g transform="translate(300.555682 189.572572) scale(0.1 -0.1)">
       <use xlink:href="#DejaVuSans-32"/>
       <use xlink:href="#DejaVuSans-30" transform="translate(63.623047 0)"/>
       <use xlink:href="#DejaVuSans-30" transform="translate(127.246094 0)"/>
      </g>
     </g>
    </g>
    <g id="text_10">
     <!-- N -->
     <g transform="translate(179.540625 203.250697) scale(0.1 -0.1)">
      <defs>
       <path id="DejaVuSans-4e" d="M 628 4666 
L 1478 4666 
L 3547 763 
L 3547 4666 
L 4159 4666 
L 4159 0 
L 3309 0 
L 1241 3903 
L 1241 0 
L 628 0 
L 628 4666 
z
" transform="scale(0.015625)"/>
      </defs>
      <use xlink:href="#DejaVuSans-4e"/>
     </g>
    </g>
   </g>
   <g id="matplotlib.axis_2">
    <g id="ytick_1">
     <g id="line2d_19">
      <path d="M 43.78125 146.865455 
L 322.78125 146.865455 
" clip-path="url(#pca9e984476)" style="fill: none; stroke: #b0b0b0; stroke-width: 0.8; stroke-linecap: square"/>
     </g>
     <g id="line2d_20">
      <defs>
       <path id="mf3ea789dde" d="M 0 0 
L -3.5 0 
" style="stroke: #000000; stroke-width: 0.8"/>
      </defs>
      <g>
       <use xlink:href="#mf3ea789dde" x="43.78125" y="146.865455" style="stroke: #000000; stroke-width: 0.8"/>
      </g>
     </g>
     <g id="text_11">
      <!-- 0.5 -->
      <g transform="translate(20.878125 150.664673) scale(0.1 -0.1)">
       <defs>
        <path id="DejaVuSans-2e" d="M 684 794 
L 1344 794 
L 1344 0 
L 684 0 
L 684 794 
z
" transform="scale(0.015625)"/>
       </defs>
       <use xlink:href="#DejaVuSans-30"/>
       <use xlink:href="#DejaVuSans-2e" transform="translate(63.623047 0)"/>
       <use xlink:href="#DejaVuSans-35" transform="translate(95.410156 0)"/>
      </g>
     </g>
    </g>
    <g id="ytick_2">
     <g id="line2d_21">
      <path d="M 43.78125 112.898896 
L 322.78125 112.898896 
" clip-path="url(#pca9e984476)" style="fill: none; stroke: #b0b0b0; stroke-width: 0.8; stroke-linecap: square"/>
     </g>
     <g id="line2d_22">
      <g>
       <use xlink:href="#mf3ea789dde" x="43.78125" y="112.898896" style="stroke: #000000; stroke-width: 0.8"/>
      </g>
     </g>
     <g id="text_12">
      <!-- 1.0 -->
      <g transform="translate(20.878125 116.698114) scale(0.1 -0.1)">
       <use xlink:href="#DejaVuSans-31"/>
       <use xlink:href="#DejaVuSans-2e" transform="translate(63.623047 0)"/>
       <use xlink:href="#DejaVuSans-30" transform="translate(95.410156 0)"/>
      </g>
     </g>
    </g>
    <g id="ytick_3">
     <g id="line2d_23">
      <path d="M 43.78125 78.932337 
L 322.78125 78.932337 
" clip-path="url(#pca9e984476)" style="fill: none; stroke: #b0b0b0; stroke-width: 0.8; stroke-linecap: square"/>
     </g>
     <g id="line2d_24">
      <g>
       <use xlink:href="#mf3ea789dde" x="43.78125" y="78.932337" style="stroke: #000000; stroke-width: 0.8"/>
      </g>
     </g>
     <g id="text_13">
      <!-- 1.5 -->
      <g transform="translate(20.878125 82.731555) scale(0.1 -0.1)">
       <use xlink:href="#DejaVuSans-31"/>
       <use xlink:href="#DejaVuSans-2e" transform="translate(63.623047 0)"/>
       <use xlink:href="#DejaVuSans-35" transform="translate(95.410156 0)"/>
      </g>
     </g>
    </g>
    <g id="ytick_4">
     <g id="line2d_25">
      <path d="M 43.78125 44.965778 
L 322.78125 44.965778 
" clip-path="url(#pca9e984476)" style="fill: none; stroke: #b0b0b0; stroke-width: 0.8; stroke-linecap: square"/>
     </g>
     <g id="line2d_26">
      <g>
       <use xlink:href="#mf3ea789dde" x="43.78125" y="44.965778" style="stroke: #000000; stroke-width: 0.8"/>
      </g>
     </g>
     <g id="text_14">
      <!-- 2.0 -->
      <g transform="translate(20.878125 48.764996) scale(0.1 -0.1)">
       <use xlink:href="#DejaVuSans-32"/>
       <use xlink:href="#DejaVuSans-2e" transform="translate(63.623047 0)"/>
       <use xlink:href="#DejaVuSans-30" transform="translate(95.410156 0)"/>
      </g>
     </g>
    </g>
    <g id="ytick_5">
     <g id="line2d_27">
      <path d="M 43.78125 10.999219 
L 322.78125 10.999219 
" clip-path="url(#pca9e984476)" style="fill: none; stroke: #b0b0b0; stroke-width: 0.8; stroke-linecap: square"/>
     </g>
     <g id="line2d_28">
      <g>
       <use xlink:href="#mf3ea789dde" x="43.78125" y="10.999219" style="stroke: #000000; stroke-width: 0.8"/>
      </g>
     </g>
     <g id="text_15">
      <!-- 2.5 -->
      <g transform="translate(20.878125 14.798437) scale(0.1 -0.1)">
       <use xlink:href="#DejaVuSans-32"/>
       <use xlink:href="#DejaVuSans-2e" transform="translate(63.623047 0)"/>
       <use xlink:href="#DejaVuSans-35" transform="translate(95.410156 0)"/>
      </g>
     </g>
    </g>
    <g id="text_16">
     <!-- Mean Norm Difference -->
     <g transform="translate(14.798438 148.103978) rotate(-90) scale(0.1 -0.1)">
      <defs>
       <path id="DejaVuSans-4d" d="M 628 4666 
L 1569 4666 
L 2759 1491 
L 3956 4666 
L 4897 4666 
L 4897 0 
L 4281 0 
L 4281 4097 
L 3078 897 
L 2444 897 
L 1241 4097 
L 1241 0 
L 628 0 
L 628 4666 
z
" transform="scale(0.015625)"/>
       <path id="DejaVuSans-65" d="M 3597 1894 
L 3597 1613 
L 953 1613 
Q 991 1019 1311 708 
Q 1631 397 2203 397 
Q 2534 397 2845 478 
Q 3156 559 3463 722 
L 3463 178 
Q 3153 47 2828 -22 
Q 2503 -91 2169 -91 
Q 1331 -91 842 396 
Q 353 884 353 1716 
Q 353 2575 817 3079 
Q 1281 3584 2069 3584 
Q 2775 3584 3186 3129 
Q 3597 2675 3597 1894 
z
M 3022 2063 
Q 3016 2534 2758 2815 
Q 2500 3097 2075 3097 
Q 1594 3097 1305 2825 
Q 1016 2553 972 2059 
L 3022 2063 
z
" transform="scale(0.015625)"/>
       <path id="DejaVuSans-61" d="M 2194 1759 
Q 1497 1759 1228 1600 
Q 959 1441 959 1056 
Q 959 750 1161 570 
Q 1363 391 1709 391 
Q 2188 391 2477 730 
Q 2766 1069 2766 1631 
L 2766 1759 
L 2194 1759 
z
M 3341 1997 
L 3341 0 
L 2766 0 
L 2766 531 
Q 2569 213 2275 61 
Q 1981 -91 1556 -91 
Q 1019 -91 701 211 
Q 384 513 384 1019 
Q 384 1609 779 1909 
Q 1175 2209 1959 2209 
L 2766 2209 
L 2766 2266 
Q 2766 2663 2505 2880 
Q 2244 3097 1772 3097 
Q 1472 3097 1187 3025 
Q 903 2953 641 2809 
L 641 3341 
Q 956 3463 1253 3523 
Q 1550 3584 1831 3584 
Q 2591 3584 2966 3190 
Q 3341 2797 3341 1997 
z
" transform="scale(0.015625)"/>
       <path id="DejaVuSans-6e" d="M 3513 2113 
L 3513 0 
L 2938 0 
L 2938 2094 
Q 2938 2591 2744 2837 
Q 2550 3084 2163 3084 
Q 1697 3084 1428 2787 
Q 1159 2491 1159 1978 
L 1159 0 
L 581 0 
L 581 3500 
L 1159 3500 
L 1159 2956 
Q 1366 3272 1645 3428 
Q 1925 3584 2291 3584 
Q 2894 3584 3203 3211 
Q 3513 2838 3513 2113 
z
" transform="scale(0.015625)"/>
       <path id="DejaVuSans-20" transform="scale(0.015625)"/>
       <path id="DejaVuSans-6f" d="M 1959 3097 
Q 1497 3097 1228 2736 
Q 959 2375 959 1747 
Q 959 1119 1226 758 
Q 1494 397 1959 397 
Q 2419 397 2687 759 
Q 2956 1122 2956 1747 
Q 2956 2369 2687 2733 
Q 2419 3097 1959 3097 
z
M 1959 3584 
Q 2709 3584 3137 3096 
Q 3566 2609 3566 1747 
Q 3566 888 3137 398 
Q 2709 -91 1959 -91 
Q 1206 -91 779 398 
Q 353 888 353 1747 
Q 353 2609 779 3096 
Q 1206 3584 1959 3584 
z
" transform="scale(0.015625)"/>
       <path id="DejaVuSans-72" d="M 2631 2963 
Q 2534 3019 2420 3045 
Q 2306 3072 2169 3072 
Q 1681 3072 1420 2755 
Q 1159 2438 1159 1844 
L 1159 0 
L 581 0 
L 581 3500 
L 1159 3500 
L 1159 2956 
Q 1341 3275 1631 3429 
Q 1922 3584 2338 3584 
Q 2397 3584 2469 3576 
Q 2541 3569 2628 3553 
L 2631 2963 
z
" transform="scale(0.015625)"/>
       <path id="DejaVuSans-6d" d="M 3328 2828 
Q 3544 3216 3844 3400 
Q 4144 3584 4550 3584 
Q 5097 3584 5394 3201 
Q 5691 2819 5691 2113 
L 5691 0 
L 5113 0 
L 5113 2094 
Q 5113 2597 4934 2840 
Q 4756 3084 4391 3084 
Q 3944 3084 3684 2787 
Q 3425 2491 3425 1978 
L 3425 0 
L 2847 0 
L 2847 2094 
Q 2847 2600 2669 2842 
Q 2491 3084 2119 3084 
Q 1678 3084 1418 2786 
Q 1159 2488 1159 1978 
L 1159 0 
L 581 0 
L 581 3500 
L 1159 3500 
L 1159 2956 
Q 1356 3278 1631 3431 
Q 1906 3584 2284 3584 
Q 2666 3584 2933 3390 
Q 3200 3197 3328 2828 
z
" transform="scale(0.015625)"/>
       <path id="DejaVuSans-44" d="M 1259 4147 
L 1259 519 
L 2022 519 
Q 2988 519 3436 956 
Q 3884 1394 3884 2338 
Q 3884 3275 3436 3711 
Q 2988 4147 2022 4147 
L 1259 4147 
z
M 628 4666 
L 1925 4666 
Q 3281 4666 3915 4102 
Q 4550 3538 4550 2338 
Q 4550 1131 3912 565 
Q 3275 0 1925 0 
L 628 0 
L 628 4666 
z
" transform="scale(0.015625)"/>
       <path id="DejaVuSans-69" d="M 603 3500 
L 1178 3500 
L 1178 0 
L 603 0 
L 603 3500 
z
M 603 4863 
L 1178 4863 
L 1178 4134 
L 603 4134 
L 603 4863 
z
" transform="scale(0.015625)"/>
       <path id="DejaVuSans-66" d="M 2375 4863 
L 2375 4384 
L 1825 4384 
Q 1516 4384 1395 4259 
Q 1275 4134 1275 3809 
L 1275 3500 
L 2222 3500 
L 2222 3053 
L 1275 3053 
L 1275 0 
L 697 0 
L 697 3053 
L 147 3053 
L 147 3500 
L 697 3500 
L 697 3744 
Q 697 4328 969 4595 
Q 1241 4863 1831 4863 
L 2375 4863 
z
" transform="scale(0.015625)"/>
       <path id="DejaVuSans-63" d="M 3122 3366 
L 3122 2828 
Q 2878 2963 2633 3030 
Q 2388 3097 2138 3097 
Q 1578 3097 1268 2742 
Q 959 2388 959 1747 
Q 959 1106 1268 751 
Q 1578 397 2138 397 
Q 2388 397 2633 464 
Q 2878 531 3122 666 
L 3122 134 
Q 2881 22 2623 -34 
Q 2366 -91 2075 -91 
Q 1284 -91 818 406 
Q 353 903 353 1747 
Q 353 2603 823 3093 
Q 1294 3584 2113 3584 
Q 2378 3584 2631 3529 
Q 2884 3475 3122 3366 
z
" transform="scale(0.015625)"/>
      </defs>
      <use xlink:href="#DejaVuSans-4d"/>
      <use xlink:href="#DejaVuSans-65" transform="translate(86.279297 0)"/>
      <use xlink:href="#DejaVuSans-61" transform="translate(147.802734 0)"/>
      <use xlink:href="#DejaVuSans-6e" transform="translate(209.082031 0)"/>
      <use xlink:href="#DejaVuSans-20" transform="translate(272.460938 0)"/>
      <use xlink:href="#DejaVuSans-4e" transform="translate(304.248047 0)"/>
      <use xlink:href="#DejaVuSans-6f" transform="translate(379.052734 0)"/>
      <use xlink:href="#DejaVuSans-72" transform="translate(440.234375 0)"/>
      <use xlink:href="#DejaVuSans-6d" transform="translate(479.597656 0)"/>
      <use xlink:href="#DejaVuSans-20" transform="translate(577.009766 0)"/>
      <use xlink:href="#DejaVuSans-44" transform="translate(608.796875 0)"/>
      <use xlink:href="#DejaVuSans-69" transform="translate(685.798828 0)"/>
      <use xlink:href="#DejaVuSans-66" transform="translate(713.582031 0)"/>
      <use xlink:href="#DejaVuSans-66" transform="translate(748.787109 0)"/>
      <use xlink:href="#DejaVuSans-65" transform="translate(783.992188 0)"/>
      <use xlink:href="#DejaVuSans-72" transform="translate(845.515625 0)"/>
      <use xlink:href="#DejaVuSans-65" transform="translate(884.378906 0)"/>
      <use xlink:href="#DejaVuSans-6e" transform="translate(945.902344 0)"/>
      <use xlink:href="#DejaVuSans-63" transform="translate(1009.28125 0)"/>
      <use xlink:href="#DejaVuSans-65" transform="translate(1064.261719 0)"/>
     </g>
    </g>
   </g>
   <g id="line2d_29">
    <path d="M 56.463068 78.371786 
L 62.966565 97.974726 
L 69.470061 120.897734 
L 75.973558 127.297683 
L 82.477054 127.051857 
L 88.980551 131.861951 
L 95.484047 129.62562 
L 101.987544 132.054815 
L 108.49104 132.69026 
L 114.994537 135.625043 
L 121.498033 136.589437 
L 128.00153 142.873788 
L 134.505026 141.458575 
L 141.008523 140.451067 
L 147.512019 140.712431 
L 154.015516 141.439636 
L 160.519012 144.620192 
L 167.022509 145.111567 
L 173.526005 147.626426 
L 180.029502 148.132033 
L 186.532998 150.630957 
L 193.036495 150.481736 
L 199.539991 149.363924 
L 206.043488 151.545765 
L 212.546984 152.752718 
L 219.050481 152.881571 
L 225.553977 155.705803 
L 232.057474 156.305133 
L 238.56097 157.233956 
L 245.064467 156.276765 
L 251.567963 158.21525 
L 258.07146 156.888514 
L 264.574956 155.812567 
L 271.078453 157.382883 
L 277.581949 156.360657 
L 284.085446 156.506608 
L 290.588942 158.933627 
L 297.092439 158.862988 
L 303.595935 158.525175 
L 310.099432 159.239526 
" clip-path="url(#pca9e984476)" style="fill: none; stroke: #1f77b4; stroke-width: 2; stroke-linecap: square"/>
   </g>
   <g id="line2d_30">
    <path d="M 56.463068 82.970111 
L 62.966565 92.389655 
L 69.470061 104.201032 
L 75.973558 111.941572 
L 82.477054 117.59727 
L 88.980551 117.664508 
L 95.484047 122.908986 
L 101.987544 125.95577 
L 108.49104 124.191405 
L 114.994537 127.270591 
L 121.498033 129.150453 
L 128.00153 135.37485 
L 134.505026 133.694869 
L 141.008523 133.087234 
L 147.512019 135.384205 
L 154.015516 138.198943 
L 160.519012 140.530323 
L 167.022509 141.609279 
L 173.526005 143.67685 
L 180.029502 145.3995 
L 186.532998 146.469429 
L 193.036495 147.819661 
L 199.539991 147.676272 
L 206.043488 150.256347 
L 212.546984 151.160033 
L 219.050481 152.624468 
L 225.553977 153.656747 
L 232.057474 154.422698 
L 238.56097 156.036174 
L 245.064467 155.014498 
L 251.567963 155.354453 
L 258.07146 154.513898 
L 264.574956 154.195371 
L 271.078453 154.878152 
L 277.581949 153.147713 
L 284.085446 155.526182 
L 290.588942 156.027269 
L 297.092439 156.847359 
L 303.595935 157.390757 
L 310.099432 157.873924 
" clip-path="url(#pca9e984476)" style="fill: none; stroke: #ff7f0e; stroke-width: 2; stroke-linecap: square"/>
   </g>
   <g id="patch_3">
    <path d="M 43.78125 174.974134 
L 43.78125 8.654134 
" style="fill: none; stroke: #000000; stroke-width: 0.8; stroke-linejoin: miter; stroke-linecap: square"/>
   </g>
   <g id="patch_4">
    <path d="M 322.78125 174.974134 
L 322.78125 8.654134 
" style="fill: none; stroke: #000000; stroke-width: 0.8; stroke-linejoin: miter; stroke-linecap: square"/>
   </g>
   <g id="patch_5">
    <path d="M 43.78125 174.974134 
L 322.78125 174.974134 
" style="fill: none; stroke: #000000; stroke-width: 0.8; stroke-linejoin: miter; stroke-linecap: square"/>
   </g>
   <g id="patch_6">
    <path d="M 43.78125 8.654134 
L 322.78125 8.654134 
" style="fill: none; stroke: #000000; stroke-width: 0.8; stroke-linejoin: miter; stroke-linecap: square"/>
   </g>
   <g id="legend_1">
    <g id="patch_7">
     <path d="M 184.989375 88.709134 
L 314.38125 88.709134 
Q 316.78125 88.709134 316.78125 86.309134 
L 316.78125 17.054134 
Q 316.78125 14.654134 314.38125 14.654134 
L 184.989375 14.654134 
Q 182.589375 14.654134 182.589375 17.054134 
L 182.589375 86.309134 
Q 182.589375 88.709134 184.989375 88.709134 
z
" style="fill: #ffffff; opacity: 0.8; stroke: #cccccc; stroke-linejoin: miter"/>
    </g>
    <g id="line2d_31">
     <path d="M 187.389375 24.372259 
L 199.389375 24.372259 
L 211.389375 24.372259 
" style="fill: none; stroke: #1f77b4; stroke-width: 2; stroke-linecap: square"/>
    </g>
    <g id="text_17">
     <!-- Mean Approx -->
     <g transform="translate(220.989375 28.572259) scale(0.12 -0.12)">
      <defs>
       <path id="DejaVuSans-41" d="M 2188 4044 
L 1331 1722 
L 3047 1722 
L 2188 4044 
z
M 1831 4666 
L 2547 4666 
L 4325 0 
L 3669 0 
L 3244 1197 
L 1141 1197 
L 716 0 
L 50 0 
L 1831 4666 
z
" transform="scale(0.015625)"/>
       <path id="DejaVuSans-70" d="M 1159 525 
L 1159 -1331 
L 581 -1331 
L 581 3500 
L 1159 3500 
L 1159 2969 
Q 1341 3281 1617 3432 
Q 1894 3584 2278 3584 
Q 2916 3584 3314 3078 
Q 3713 2572 3713 1747 
Q 3713 922 3314 415 
Q 2916 -91 2278 -91 
Q 1894 -91 1617 61 
Q 1341 213 1159 525 
z
M 3116 1747 
Q 3116 2381 2855 2742 
Q 2594 3103 2138 3103 
Q 1681 3103 1420 2742 
Q 1159 2381 1159 1747 
Q 1159 1113 1420 752 
Q 1681 391 2138 391 
Q 2594 391 2855 752 
Q 3116 1113 3116 1747 
z
" transform="scale(0.015625)"/>
       <path id="DejaVuSans-78" d="M 3513 3500 
L 2247 1797 
L 3578 0 
L 2900 0 
L 1881 1375 
L 863 0 
L 184 0 
L 1544 1831 
L 300 3500 
L 978 3500 
L 1906 2253 
L 2834 3500 
L 3513 3500 
z
" transform="scale(0.015625)"/>
      </defs>
      <use xlink:href="#DejaVuSans-4d"/>
      <use xlink:href="#DejaVuSans-65" transform="translate(86.279297 0)"/>
      <use xlink:href="#DejaVuSans-61" transform="translate(147.802734 0)"/>
      <use xlink:href="#DejaVuSans-6e" transform="translate(209.082031 0)"/>
      <use xlink:href="#DejaVuSans-20" transform="translate(272.460938 0)"/>
      <use xlink:href="#DejaVuSans-41" transform="translate(304.248047 0)"/>
      <use xlink:href="#DejaVuSans-70" transform="translate(372.65625 0)"/>
      <use xlink:href="#DejaVuSans-70" transform="translate(436.132812 0)"/>
      <use xlink:href="#DejaVuSans-72" transform="translate(499.609375 0)"/>
      <use xlink:href="#DejaVuSans-6f" transform="translate(538.472656 0)"/>
      <use xlink:href="#DejaVuSans-78" transform="translate(596.529297 0)"/>
     </g>
    </g>
    <g id="patch_8">
     <path d="M 187.389375 46.186009 
L 211.389375 46.186009 
L 211.389375 37.786009 
L 187.389375 37.786009 
z
" style="fill: #0000ff; fill-opacity: 0.2; stroke: #0000ff; stroke-opacity: 0.2; stroke-linejoin: miter"/>
    </g>
    <g id="text_18">
     <!-- 95% CI Approx -->
     <g transform="translate(220.989375 46.186009) scale(0.12 -0.12)">
      <defs>
       <path id="DejaVuSans-39" d="M 703 97 
L 703 672 
Q 941 559 1184 500 
Q 1428 441 1663 441 
Q 2288 441 2617 861 
Q 2947 1281 2994 2138 
Q 2813 1869 2534 1725 
Q 2256 1581 1919 1581 
Q 1219 1581 811 2004 
Q 403 2428 403 3163 
Q 403 3881 828 4315 
Q 1253 4750 1959 4750 
Q 2769 4750 3195 4129 
Q 3622 3509 3622 2328 
Q 3622 1225 3098 567 
Q 2575 -91 1691 -91 
Q 1453 -91 1209 -44 
Q 966 3 703 97 
z
M 1959 2075 
Q 2384 2075 2632 2365 
Q 2881 2656 2881 3163 
Q 2881 3666 2632 3958 
Q 2384 4250 1959 4250 
Q 1534 4250 1286 3958 
Q 1038 3666 1038 3163 
Q 1038 2656 1286 2365 
Q 1534 2075 1959 2075 
z
" transform="scale(0.015625)"/>
       <path id="DejaVuSans-25" d="M 4653 2053 
Q 4381 2053 4226 1822 
Q 4072 1591 4072 1178 
Q 4072 772 4226 539 
Q 4381 306 4653 306 
Q 4919 306 5073 539 
Q 5228 772 5228 1178 
Q 5228 1588 5073 1820 
Q 4919 2053 4653 2053 
z
M 4653 2450 
Q 5147 2450 5437 2106 
Q 5728 1763 5728 1178 
Q 5728 594 5436 251 
Q 5144 -91 4653 -91 
Q 4153 -91 3862 251 
Q 3572 594 3572 1178 
Q 3572 1766 3864 2108 
Q 4156 2450 4653 2450 
z
M 1428 4353 
Q 1159 4353 1004 4120 
Q 850 3888 850 3481 
Q 850 3069 1003 2837 
Q 1156 2606 1428 2606 
Q 1700 2606 1854 2837 
Q 2009 3069 2009 3481 
Q 2009 3884 1853 4118 
Q 1697 4353 1428 4353 
z
M 4250 4750 
L 4750 4750 
L 1831 -91 
L 1331 -91 
L 4250 4750 
z
M 1428 4750 
Q 1922 4750 2215 4408 
Q 2509 4066 2509 3481 
Q 2509 2891 2217 2550 
Q 1925 2209 1428 2209 
Q 931 2209 642 2551 
Q 353 2894 353 3481 
Q 353 4063 643 4406 
Q 934 4750 1428 4750 
z
" transform="scale(0.015625)"/>
       <path id="DejaVuSans-43" d="M 4122 4306 
L 4122 3641 
Q 3803 3938 3442 4084 
Q 3081 4231 2675 4231 
Q 1875 4231 1450 3742 
Q 1025 3253 1025 2328 
Q 1025 1406 1450 917 
Q 1875 428 2675 428 
Q 3081 428 3442 575 
Q 3803 722 4122 1019 
L 4122 359 
Q 3791 134 3420 21 
Q 3050 -91 2638 -91 
Q 1578 -91 968 557 
Q 359 1206 359 2328 
Q 359 3453 968 4101 
Q 1578 4750 2638 4750 
Q 3056 4750 3426 4639 
Q 3797 4528 4122 4306 
z
" transform="scale(0.015625)"/>
       <path id="DejaVuSans-49" d="M 628 4666 
L 1259 4666 
L 1259 0 
L 628 0 
L 628 4666 
z
" transform="scale(0.015625)"/>
      </defs>
      <use xlink:href="#DejaVuSans-39"/>
      <use xlink:href="#DejaVuSans-35" transform="translate(63.623047 0)"/>
      <use xlink:href="#DejaVuSans-25" transform="translate(127.246094 0)"/>
      <use xlink:href="#DejaVuSans-20" transform="translate(222.265625 0)"/>
      <use xlink:href="#DejaVuSans-43" transform="translate(254.052734 0)"/>
      <use xlink:href="#DejaVuSans-49" transform="translate(323.876953 0)"/>
      <use xlink:href="#DejaVuSans-20" transform="translate(353.369141 0)"/>
      <use xlink:href="#DejaVuSans-41" transform="translate(385.15625 0)"/>
      <use xlink:href="#DejaVuSans-70" transform="translate(453.564453 0)"/>
      <use xlink:href="#DejaVuSans-70" transform="translate(517.041016 0)"/>
      <use xlink:href="#DejaVuSans-72" transform="translate(580.517578 0)"/>
      <use xlink:href="#DejaVuSans-6f" transform="translate(619.380859 0)"/>
      <use xlink:href="#DejaVuSans-78" transform="translate(677.4375 0)"/>
     </g>
    </g>
    <g id="line2d_32">
     <path d="M 187.389375 59.599759 
L 199.389375 59.599759 
L 211.389375 59.599759 
" style="fill: none; stroke: #ff7f0e; stroke-width: 2; stroke-linecap: square"/>
    </g>
    <g id="text_19">
     <!-- Mean Jeffreys -->
     <g transform="translate(220.989375 63.799759) scale(0.12 -0.12)">
      <defs>
       <path id="DejaVuSans-4a" d="M 628 4666 
L 1259 4666 
L 1259 325 
Q 1259 -519 939 -900 
Q 619 -1281 -91 -1281 
L -331 -1281 
L -331 -750 
L -134 -750 
Q 284 -750 456 -515 
Q 628 -281 628 325 
L 628 4666 
z
" transform="scale(0.015625)"/>
       <path id="DejaVuSans-79" d="M 2059 -325 
Q 1816 -950 1584 -1140 
Q 1353 -1331 966 -1331 
L 506 -1331 
L 506 -850 
L 844 -850 
Q 1081 -850 1212 -737 
Q 1344 -625 1503 -206 
L 1606 56 
L 191 3500 
L 800 3500 
L 1894 763 
L 2988 3500 
L 3597 3500 
L 2059 -325 
z
" transform="scale(0.015625)"/>
       <path id="DejaVuSans-73" d="M 2834 3397 
L 2834 2853 
Q 2591 2978 2328 3040 
Q 2066 3103 1784 3103 
Q 1356 3103 1142 2972 
Q 928 2841 928 2578 
Q 928 2378 1081 2264 
Q 1234 2150 1697 2047 
L 1894 2003 
Q 2506 1872 2764 1633 
Q 3022 1394 3022 966 
Q 3022 478 2636 193 
Q 2250 -91 1575 -91 
Q 1294 -91 989 -36 
Q 684 19 347 128 
L 347 722 
Q 666 556 975 473 
Q 1284 391 1588 391 
Q 1994 391 2212 530 
Q 2431 669 2431 922 
Q 2431 1156 2273 1281 
Q 2116 1406 1581 1522 
L 1381 1569 
Q 847 1681 609 1914 
Q 372 2147 372 2553 
Q 372 3047 722 3315 
Q 1072 3584 1716 3584 
Q 2034 3584 2315 3537 
Q 2597 3491 2834 3397 
z
" transform="scale(0.015625)"/>
      </defs>
      <use xlink:href="#DejaVuSans-4d"/>
      <use xlink:href="#DejaVuSans-65" transform="translate(86.279297 0)"/>
      <use xlink:href="#DejaVuSans-61" transform="translate(147.802734 0)"/>
      <use xlink:href="#DejaVuSans-6e" transform="translate(209.082031 0)"/>
      <use xlink:href="#DejaVuSans-20" transform="translate(272.460938 0)"/>
      <use xlink:href="#DejaVuSans-4a" transform="translate(304.248047 0)"/>
      <use xlink:href="#DejaVuSans-65" transform="translate(333.740234 0)"/>
      <use xlink:href="#DejaVuSans-66" transform="translate(395.263672 0)"/>
      <use xlink:href="#DejaVuSans-66" transform="translate(430.46875 0)"/>
      <use xlink:href="#DejaVuSans-72" transform="translate(465.673828 0)"/>
      <use xlink:href="#DejaVuSans-65" transform="translate(504.537109 0)"/>
      <use xlink:href="#DejaVuSans-79" transform="translate(566.060547 0)"/>
      <use xlink:href="#DejaVuSans-73" transform="translate(625.240234 0)"/>
     </g>
    </g>
    <g id="patch_9">
     <path d="M 187.389375 81.413509 
L 211.389375 81.413509 
L 211.389375 73.013509 
L 187.389375 73.013509 
z
" style="fill: #ffa500; fill-opacity: 0.2; stroke: #ffa500; stroke-opacity: 0.2; stroke-linejoin: miter"/>
    </g>
    <g id="text_20">
     <!-- 95% CI Jeffreys -->
     <g transform="translate(220.989375 81.413509) scale(0.12 -0.12)">
      <use xlink:href="#DejaVuSans-39"/>
      <use xlink:href="#DejaVuSans-35" transform="translate(63.623047 0)"/>
      <use xlink:href="#DejaVuSans-25" transform="translate(127.246094 0)"/>
      <use xlink:href="#DejaVuSans-20" transform="translate(222.265625 0)"/>
      <use xlink:href="#DejaVuSans-43" transform="translate(254.052734 0)"/>
      <use xlink:href="#DejaVuSans-49" transform="translate(323.876953 0)"/>
      <use xlink:href="#DejaVuSans-20" transform="translate(353.369141 0)"/>
      <use xlink:href="#DejaVuSans-4a" transform="translate(385.15625 0)"/>
      <use xlink:href="#DejaVuSans-65" transform="translate(414.648438 0)"/>
      <use xlink:href="#DejaVuSans-66" transform="translate(476.171875 0)"/>
      <use xlink:href="#DejaVuSans-66" transform="translate(511.376953 0)"/>
      <use xlink:href="#DejaVuSans-72" transform="translate(546.582031 0)"/>
      <use xlink:href="#DejaVuSans-65" transform="translate(585.445312 0)"/>
      <use xlink:href="#DejaVuSans-79" transform="translate(646.96875 0)"/>
      <use xlink:href="#DejaVuSans-73" transform="translate(706.148438 0)"/>
     </g>
    </g>
   </g>
  </g>
 </g>
 <defs>
  <clipPath id="pca9e984476">
   <rect x="43.78125" y="8.654134" width="279" height="166.32"/>
  </clipPath>
 </defs>
</svg>
