<?xml version="1.0" encoding="utf-8" standalone="no"?>
<!DOCTYPE svg PUBLIC "-//W3C//DTD SVG 1.1//EN"
  "http://www.w3.org/Graphics/SVG/1.1/DTD/svg11.dtd">
<svg xmlns:xlink="http://www.w3.org/1999/xlink" width="351.065099pt" height="207.15625pt" viewBox="0 0 351.065099 207.15625" xmlns="http://www.w3.org/2000/svg" version="1.1">
 <metadata>
  <rdf:RDF xmlns:dc="http://purl.org/dc/elements/1.1/" xmlns:cc="http://creativecommons.org/ns#" xmlns:rdf="http://www.w3.org/1999/02/22-rdf-syntax-ns#">
   <cc:Work>
    <dc:type rdf:resource="http://purl.org/dc/dcmitype/StillImage"/>
    <dc:date>2025-02-07T15:27:48.615093</dc:date>
    <dc:format>image/svg+xml</dc:format>
    <dc:creator>
     <cc:Agent>
      <dc:title>Matplotlib v3.10.0, https://matplotlib.org/</dc:title>
     </cc:Agent>
    </dc:creator>
   </cc:Work>
  </rdf:RDF>
 </metadata>
 <defs>
  <style type="text/css">*{stroke-linejoin: round; stroke-linecap: butt}</style>
 </defs>
 <g id="figure_1">
  <g id="patch_1">
   <path d="M 0 207.15625 
L 351.065099 207.15625 
L 351.065099 0 
L 0 0 
z
" style="fill: #ffffff"/>
  </g>
  <g id="axes_1">
   <g id="patch_2">
    <path d="M 43.78125 169.6 
L 341.462187 169.6 
L 341.462187 7.2 
L 43.78125 7.2 
z
" style="fill: #ffffff"/>
   </g>
   <g id="FillBetweenPolyCollection_1">
    <defs>
     <path id="m802c0c04fc" d="M 57.312202 -182.879188 
L 57.312202 -44.938068 
L 62.835039 -52.62521 
L 68.357877 -59.887662 
L 73.880714 -51.728959 
L 79.403551 -65.403251 
L 84.926389 -69.792038 
L 90.449226 -79.210441 
L 95.972064 -78.205417 
L 101.494901 -92.164849 
L 107.017738 -94.323 
L 112.540576 -101.156572 
L 118.063413 -99.938294 
L 123.586251 -103.265304 
L 129.109088 -95.270834 
L 134.631926 -101.670497 
L 140.154763 -110.079177 
L 145.6776 -106.388102 
L 151.200438 -93.635162 
L 156.723275 -105.196166 
L 162.246113 -106.63688 
L 167.76895 -105.477964 
L 173.291787 -105.954516 
L 178.814625 -103.431668 
L 184.337462 -103.312462 
L 189.8603 -107.926672 
L 195.383137 -105.979963 
L 200.905975 -105.101846 
L 206.428812 -101.0891 
L 211.951649 -103.38637 
L 217.474487 -96.25116 
L 222.997324 -109.995228 
L 228.520162 -105.805384 
L 234.042999 -98.590147 
L 239.565837 -106.084888 
L 245.088674 -105.835584 
L 250.611511 -102.951774 
L 256.134349 -100.495423 
L 261.657186 -104.712447 
L 267.180024 -99.916296 
L 272.702861 -103.993994 
L 278.225698 -103.839049 
L 283.748536 -98.444886 
L 289.271373 -98.628683 
L 294.794211 -102.066288 
L 300.317048 -96.72989 
L 305.839886 -93.335253 
L 311.362723 -94.178716 
L 316.88556 -99.327398 
L 322.408398 -90.067174 
L 327.931235 -104.006716 
L 327.931235 -191.716949 
L 327.931235 -191.716949 
L 322.408398 -192.329673 
L 316.88556 -192.556652 
L 311.362723 -192.201042 
L 305.839886 -192.487839 
L 300.317048 -192.37629 
L 294.794211 -192.382831 
L 289.271373 -192.488994 
L 283.748536 -192.204037 
L 278.225698 -192.501351 
L 272.702861 -192.492718 
L 267.180024 -192.306759 
L 261.657186 -192.439512 
L 256.134349 -192.529921 
L 250.611511 -192.385744 
L 245.088674 -191.887251 
L 239.565837 -192.09617 
L 234.042999 -191.54148 
L 228.520162 -192.348613 
L 222.997324 -192.574432 
L 217.474487 -191.542513 
L 211.951649 -192.410355 
L 206.428812 -192.468644 
L 200.905975 -192.277051 
L 195.383137 -191.99988 
L 189.8603 -191.612737 
L 184.337462 -190.826278 
L 178.814625 -192.08775 
L 173.291787 -192.270706 
L 167.76895 -192.018587 
L 162.246113 -191.906294 
L 156.723275 -191.998571 
L 151.200438 -191.971787 
L 145.6776 -190.849395 
L 140.154763 -192.369868 
L 134.631926 -191.676563 
L 129.109088 -191.223001 
L 123.586251 -191.994849 
L 118.063413 -191.473499 
L 112.540576 -191.065475 
L 107.017738 -189.483161 
L 101.494901 -184.569242 
L 95.972064 -191.887624 
L 90.449226 -190.596305 
L 84.926389 -189.145998 
L 79.403551 -189.893169 
L 73.880714 -186.0128 
L 68.357877 -185.577756 
L 62.835039 -176.273556 
L 57.312202 -182.879188 
z
" style="stroke: #d3d3d3; stroke-opacity: 0.5"/>
    </defs>
    <g clip-path="url(#p774ec285bb)">
     <use xlink:href="#m802c0c04fc" x="0" y="207.15625" style="fill: #d3d3d3; fill-opacity: 0.5; stroke: #d3d3d3; stroke-opacity: 0.5"/>
    </g>
   </g>
   <g id="matplotlib.axis_1">
    <g id="xtick_1">
     <g id="line2d_1">
      <path d="M 51.816978 169.6 
L 51.816978 7.2 
" clip-path="url(#p774ec285bb)" style="fill: none; stroke: #b0b0b0; stroke-width: 0.8; stroke-linecap: square"/>
     </g>
     <g id="line2d_2">
      <defs>
       <path id="mc05ded1485" d="M 0 0 
L 0 3.5 
" style="stroke: #000000; stroke-width: 0.8"/>
      </defs>
      <g>
       <use xlink:href="#mc05ded1485" x="51.816978" y="169.6" style="stroke: #000000; stroke-width: 0.8"/>
      </g>
     </g>
     <g id="text_1">
      <!-- 0 -->
      <g transform="translate(48.635728 184.198437) scale(0.1 -0.1)">
       <defs>
        <path id="DejaVuSans-30" d="M 2034 4250 
Q 1547 4250 1301 3770 
Q 1056 3291 1056 2328 
Q 1056 1369 1301 889 
Q 1547 409 2034 409 
Q 2525 409 2770 889 
Q 3016 1369 3016 2328 
Q 3016 3291 2770 3770 
Q 2525 4250 2034 4250 
z
M 2034 4750 
Q 2819 4750 3233 4129 
Q 3647 3509 3647 2328 
Q 3647 1150 3233 529 
Q 2819 -91 2034 -91 
Q 1250 -91 836 529 
Q 422 1150 422 2328 
Q 422 3509 836 4129 
Q 1250 4750 2034 4750 
z
" transform="scale(0.015625)"/>
       </defs>
       <use xlink:href="#DejaVuSans-30"/>
      </g>
     </g>
    </g>
    <g id="xtick_2">
     <g id="line2d_3">
      <path d="M 107.045353 169.6 
L 107.045353 7.2 
" clip-path="url(#p774ec285bb)" style="fill: none; stroke: #b0b0b0; stroke-width: 0.8; stroke-linecap: square"/>
     </g>
     <g id="line2d_4">
      <g>
       <use xlink:href="#mc05ded1485" x="107.045353" y="169.6" style="stroke: #000000; stroke-width: 0.8"/>
      </g>
     </g>
     <g id="text_2">
      <!-- 2000 -->
      <g transform="translate(94.320353 184.198437) scale(0.1 -0.1)">
       <defs>
        <path id="DejaVuSans-32" d="M 1228 531 
L 3431 531 
L 3431 0 
L 469 0 
L 469 531 
Q 828 903 1448 1529 
Q 2069 2156 2228 2338 
Q 2531 2678 2651 2914 
Q 2772 3150 2772 3378 
Q 2772 3750 2511 3984 
Q 2250 4219 1831 4219 
Q 1534 4219 1204 4116 
Q 875 4013 500 3803 
L 500 4441 
Q 881 4594 1212 4672 
Q 1544 4750 1819 4750 
Q 2544 4750 2975 4387 
Q 3406 4025 3406 3419 
Q 3406 3131 3298 2873 
Q 3191 2616 2906 2266 
Q 2828 2175 2409 1742 
Q 1991 1309 1228 531 
z
" transform="scale(0.015625)"/>
       </defs>
       <use xlink:href="#DejaVuSans-32"/>
       <use xlink:href="#DejaVuSans-30" transform="translate(63.623047 0)"/>
       <use xlink:href="#DejaVuSans-30" transform="translate(127.246094 0)"/>
       <use xlink:href="#DejaVuSans-30" transform="translate(190.869141 0)"/>
      </g>
     </g>
    </g>
    <g id="xtick_3">
     <g id="line2d_5">
      <path d="M 162.273727 169.6 
L 162.273727 7.2 
" clip-path="url(#p774ec285bb)" style="fill: none; stroke: #b0b0b0; stroke-width: 0.8; stroke-linecap: square"/>
     </g>
     <g id="line2d_6">
      <g>
       <use xlink:href="#mc05ded1485" x="162.273727" y="169.6" style="stroke: #000000; stroke-width: 0.8"/>
      </g>
     </g>
     <g id="text_3">
      <!-- 4000 -->
      <g transform="translate(149.548727 184.198437) scale(0.1 -0.1)">
       <defs>
        <path id="DejaVuSans-34" d="M 2419 4116 
L 825 1625 
L 2419 1625 
L 2419 4116 
z
M 2253 4666 
L 3047 4666 
L 3047 1625 
L 3713 1625 
L 3713 1100 
L 3047 1100 
L 3047 0 
L 2419 0 
L 2419 1100 
L 313 1100 
L 313 1709 
L 2253 4666 
z
" transform="scale(0.015625)"/>
       </defs>
       <use xlink:href="#DejaVuSans-34"/>
       <use xlink:href="#DejaVuSans-30" transform="translate(63.623047 0)"/>
       <use xlink:href="#DejaVuSans-30" transform="translate(127.246094 0)"/>
       <use xlink:href="#DejaVuSans-30" transform="translate(190.869141 0)"/>
      </g>
     </g>
    </g>
    <g id="xtick_4">
     <g id="line2d_7">
      <path d="M 217.502101 169.6 
L 217.502101 7.2 
" clip-path="url(#p774ec285bb)" style="fill: none; stroke: #b0b0b0; stroke-width: 0.8; stroke-linecap: square"/>
     </g>
     <g id="line2d_8">
      <g>
       <use xlink:href="#mc05ded1485" x="217.502101" y="169.6" style="stroke: #000000; stroke-width: 0.8"/>
      </g>
     </g>
     <g id="text_4">
      <!-- 6000 -->
      <g transform="translate(204.777101 184.198437) scale(0.1 -0.1)">
       <defs>
        <path id="DejaVuSans-36" d="M 2113 2584 
Q 1688 2584 1439 2293 
Q 1191 2003 1191 1497 
Q 1191 994 1439 701 
Q 1688 409 2113 409 
Q 2538 409 2786 701 
Q 3034 994 3034 1497 
Q 3034 2003 2786 2293 
Q 2538 2584 2113 2584 
z
M 3366 4563 
L 3366 3988 
Q 3128 4100 2886 4159 
Q 2644 4219 2406 4219 
Q 1781 4219 1451 3797 
Q 1122 3375 1075 2522 
Q 1259 2794 1537 2939 
Q 1816 3084 2150 3084 
Q 2853 3084 3261 2657 
Q 3669 2231 3669 1497 
Q 3669 778 3244 343 
Q 2819 -91 2113 -91 
Q 1303 -91 875 529 
Q 447 1150 447 2328 
Q 447 3434 972 4092 
Q 1497 4750 2381 4750 
Q 2619 4750 2861 4703 
Q 3103 4656 3366 4563 
z
" transform="scale(0.015625)"/>
       </defs>
       <use xlink:href="#DejaVuSans-36"/>
       <use xlink:href="#DejaVuSans-30" transform="translate(63.623047 0)"/>
       <use xlink:href="#DejaVuSans-30" transform="translate(127.246094 0)"/>
       <use xlink:href="#DejaVuSans-30" transform="translate(190.869141 0)"/>
      </g>
     </g>
    </g>
    <g id="xtick_5">
     <g id="line2d_9">
      <path d="M 272.730475 169.6 
L 272.730475 7.2 
" clip-path="url(#p774ec285bb)" style="fill: none; stroke: #b0b0b0; stroke-width: 0.8; stroke-linecap: square"/>
     </g>
     <g id="line2d_10">
      <g>
       <use xlink:href="#mc05ded1485" x="272.730475" y="169.6" style="stroke: #000000; stroke-width: 0.8"/>
      </g>
     </g>
     <g id="text_5">
      <!-- 8000 -->
      <g transform="translate(260.005475 184.198437) scale(0.1 -0.1)">
       <defs>
        <path id="DejaVuSans-38" d="M 2034 2216 
Q 1584 2216 1326 1975 
Q 1069 1734 1069 1313 
Q 1069 891 1326 650 
Q 1584 409 2034 409 
Q 2484 409 2743 651 
Q 3003 894 3003 1313 
Q 3003 1734 2745 1975 
Q 2488 2216 2034 2216 
z
M 1403 2484 
Q 997 2584 770 2862 
Q 544 3141 544 3541 
Q 544 4100 942 4425 
Q 1341 4750 2034 4750 
Q 2731 4750 3128 4425 
Q 3525 4100 3525 3541 
Q 3525 3141 3298 2862 
Q 3072 2584 2669 2484 
Q 3125 2378 3379 2068 
Q 3634 1759 3634 1313 
Q 3634 634 3220 271 
Q 2806 -91 2034 -91 
Q 1263 -91 848 271 
Q 434 634 434 1313 
Q 434 1759 690 2068 
Q 947 2378 1403 2484 
z
M 1172 3481 
Q 1172 3119 1398 2916 
Q 1625 2713 2034 2713 
Q 2441 2713 2670 2916 
Q 2900 3119 2900 3481 
Q 2900 3844 2670 4047 
Q 2441 4250 2034 4250 
Q 1625 4250 1398 4047 
Q 1172 3844 1172 3481 
z
" transform="scale(0.015625)"/>
       </defs>
       <use xlink:href="#DejaVuSans-38"/>
       <use xlink:href="#DejaVuSans-30" transform="translate(63.623047 0)"/>
       <use xlink:href="#DejaVuSans-30" transform="translate(127.246094 0)"/>
       <use xlink:href="#DejaVuSans-30" transform="translate(190.869141 0)"/>
      </g>
     </g>
    </g>
    <g id="xtick_6">
     <g id="line2d_11">
      <path d="M 327.958849 169.6 
L 327.958849 7.2 
" clip-path="url(#p774ec285bb)" style="fill: none; stroke: #b0b0b0; stroke-width: 0.8; stroke-linecap: square"/>
     </g>
     <g id="line2d_12">
      <g>
       <use xlink:href="#mc05ded1485" x="327.958849" y="169.6" style="stroke: #000000; stroke-width: 0.8"/>
      </g>
     </g>
     <g id="text_6">
      <!-- 10000 -->
      <g transform="translate(312.052599 184.198437) scale(0.1 -0.1)">
       <defs>
        <path id="DejaVuSans-31" d="M 794 531 
L 1825 531 
L 1825 4091 
L 703 3866 
L 703 4441 
L 1819 4666 
L 2450 4666 
L 2450 531 
L 3481 531 
L 3481 0 
L 794 0 
L 794 531 
z
" transform="scale(0.015625)"/>
       </defs>
       <use xlink:href="#DejaVuSans-31"/>
       <use xlink:href="#DejaVuSans-30" transform="translate(63.623047 0)"/>
       <use xlink:href="#DejaVuSans-30" transform="translate(127.246094 0)"/>
       <use xlink:href="#DejaVuSans-30" transform="translate(190.869141 0)"/>
       <use xlink:href="#DejaVuSans-30" transform="translate(254.492188 0)"/>
      </g>
     </g>
    </g>
    <g id="text_7">
     <!-- Epochs -->
     <g transform="translate(174.706093 197.876562) scale(0.1 -0.1)">
      <defs>
       <path id="DejaVuSans-45" d="M 628 4666 
L 3578 4666 
L 3578 4134 
L 1259 4134 
L 1259 2753 
L 3481 2753 
L 3481 2222 
L 1259 2222 
L 1259 531 
L 3634 531 
L 3634 0 
L 628 0 
L 628 4666 
z
" transform="scale(0.015625)"/>
       <path id="DejaVuSans-70" d="M 1159 525 
L 1159 -1331 
L 581 -1331 
L 581 3500 
L 1159 3500 
L 1159 2969 
Q 1341 3281 1617 3432 
Q 1894 3584 2278 3584 
Q 2916 3584 3314 3078 
Q 3713 2572 3713 1747 
Q 3713 922 3314 415 
Q 2916 -91 2278 -91 
Q 1894 -91 1617 61 
Q 1341 213 1159 525 
z
M 3116 1747 
Q 3116 2381 2855 2742 
Q 2594 3103 2138 3103 
Q 1681 3103 1420 2742 
Q 1159 2381 1159 1747 
Q 1159 1113 1420 752 
Q 1681 391 2138 391 
Q 2594 391 2855 752 
Q 3116 1113 3116 1747 
z
" transform="scale(0.015625)"/>
       <path id="DejaVuSans-6f" d="M 1959 3097 
Q 1497 3097 1228 2736 
Q 959 2375 959 1747 
Q 959 1119 1226 758 
Q 1494 397 1959 397 
Q 2419 397 2687 759 
Q 2956 1122 2956 1747 
Q 2956 2369 2687 2733 
Q 2419 3097 1959 3097 
z
M 1959 3584 
Q 2709 3584 3137 3096 
Q 3566 2609 3566 1747 
Q 3566 888 3137 398 
Q 2709 -91 1959 -91 
Q 1206 -91 779 398 
Q 353 888 353 1747 
Q 353 2609 779 3096 
Q 1206 3584 1959 3584 
z
" transform="scale(0.015625)"/>
       <path id="DejaVuSans-63" d="M 3122 3366 
L 3122 2828 
Q 2878 2963 2633 3030 
Q 2388 3097 2138 3097 
Q 1578 3097 1268 2742 
Q 959 2388 959 1747 
Q 959 1106 1268 751 
Q 1578 397 2138 397 
Q 2388 397 2633 464 
Q 2878 531 3122 666 
L 3122 134 
Q 2881 22 2623 -34 
Q 2366 -91 2075 -91 
Q 1284 -91 818 406 
Q 353 903 353 1747 
Q 353 2603 823 3093 
Q 1294 3584 2113 3584 
Q 2378 3584 2631 3529 
Q 2884 3475 3122 3366 
z
" transform="scale(0.015625)"/>
       <path id="DejaVuSans-68" d="M 3513 2113 
L 3513 0 
L 2938 0 
L 2938 2094 
Q 2938 2591 2744 2837 
Q 2550 3084 2163 3084 
Q 1697 3084 1428 2787 
Q 1159 2491 1159 1978 
L 1159 0 
L 581 0 
L 581 4863 
L 1159 4863 
L 1159 2956 
Q 1366 3272 1645 3428 
Q 1925 3584 2291 3584 
Q 2894 3584 3203 3211 
Q 3513 2838 3513 2113 
z
" transform="scale(0.015625)"/>
       <path id="DejaVuSans-73" d="M 2834 3397 
L 2834 2853 
Q 2591 2978 2328 3040 
Q 2066 3103 1784 3103 
Q 1356 3103 1142 2972 
Q 928 2841 928 2578 
Q 928 2378 1081 2264 
Q 1234 2150 1697 2047 
L 1894 2003 
Q 2506 1872 2764 1633 
Q 3022 1394 3022 966 
Q 3022 478 2636 193 
Q 2250 -91 1575 -91 
Q 1294 -91 989 -36 
Q 684 19 347 128 
L 347 722 
Q 666 556 975 473 
Q 1284 391 1588 391 
Q 1994 391 2212 530 
Q 2431 669 2431 922 
Q 2431 1156 2273 1281 
Q 2116 1406 1581 1522 
L 1381 1569 
Q 847 1681 609 1914 
Q 372 2147 372 2553 
Q 372 3047 722 3315 
Q 1072 3584 1716 3584 
Q 2034 3584 2315 3537 
Q 2597 3491 2834 3397 
z
" transform="scale(0.015625)"/>
      </defs>
      <use xlink:href="#DejaVuSans-45"/>
      <use xlink:href="#DejaVuSans-70" transform="translate(63.183594 0)"/>
      <use xlink:href="#DejaVuSans-6f" transform="translate(126.660156 0)"/>
      <use xlink:href="#DejaVuSans-63" transform="translate(187.841797 0)"/>
      <use xlink:href="#DejaVuSans-68" transform="translate(242.822266 0)"/>
      <use xlink:href="#DejaVuSans-73" transform="translate(306.201172 0)"/>
     </g>
    </g>
   </g>
   <g id="matplotlib.axis_2">
    <g id="ytick_1">
     <g id="line2d_13">
      <path d="M 43.78125 168.303508 
L 341.462187 168.303508 
" clip-path="url(#p774ec285bb)" style="fill: none; stroke: #b0b0b0; stroke-width: 0.8; stroke-linecap: square"/>
     </g>
     <g id="line2d_14">
      <defs>
       <path id="m8989fe4dc7" d="M 0 0 
L -3.5 0 
" style="stroke: #000000; stroke-width: 0.8"/>
      </defs>
      <g>
       <use xlink:href="#m8989fe4dc7" x="43.78125" y="168.303508" style="stroke: #000000; stroke-width: 0.8"/>
      </g>
     </g>
     <g id="text_8">
      <!-- 2.6 -->
      <g transform="translate(20.878125 172.102727) scale(0.1 -0.1)">
       <defs>
        <path id="DejaVuSans-2e" d="M 684 794 
L 1344 794 
L 1344 0 
L 684 0 
L 684 794 
z
" transform="scale(0.015625)"/>
       </defs>
       <use xlink:href="#DejaVuSans-32"/>
       <use xlink:href="#DejaVuSans-2e" transform="translate(63.623047 0)"/>
       <use xlink:href="#DejaVuSans-36" transform="translate(95.410156 0)"/>
      </g>
     </g>
    </g>
    <g id="ytick_2">
     <g id="line2d_15">
      <path d="M 43.78125 146.331789 
L 341.462187 146.331789 
" clip-path="url(#p774ec285bb)" style="fill: none; stroke: #b0b0b0; stroke-width: 0.8; stroke-linecap: square"/>
     </g>
     <g id="line2d_16">
      <g>
       <use xlink:href="#m8989fe4dc7" x="43.78125" y="146.331789" style="stroke: #000000; stroke-width: 0.8"/>
      </g>
     </g>
     <g id="text_9">
      <!-- 2.8 -->
      <g transform="translate(20.878125 150.131008) scale(0.1 -0.1)">
       <use xlink:href="#DejaVuSans-32"/>
       <use xlink:href="#DejaVuSans-2e" transform="translate(63.623047 0)"/>
       <use xlink:href="#DejaVuSans-38" transform="translate(95.410156 0)"/>
      </g>
     </g>
    </g>
    <g id="ytick_3">
     <g id="line2d_17">
      <path d="M 43.78125 124.360071 
L 341.462187 124.360071 
" clip-path="url(#p774ec285bb)" style="fill: none; stroke: #b0b0b0; stroke-width: 0.8; stroke-linecap: square"/>
     </g>
     <g id="line2d_18">
      <g>
       <use xlink:href="#m8989fe4dc7" x="43.78125" y="124.360071" style="stroke: #000000; stroke-width: 0.8"/>
      </g>
     </g>
     <g id="text_10">
      <!-- 3.0 -->
      <g transform="translate(20.878125 128.15929) scale(0.1 -0.1)">
       <defs>
        <path id="DejaVuSans-33" d="M 2597 2516 
Q 3050 2419 3304 2112 
Q 3559 1806 3559 1356 
Q 3559 666 3084 287 
Q 2609 -91 1734 -91 
Q 1441 -91 1130 -33 
Q 819 25 488 141 
L 488 750 
Q 750 597 1062 519 
Q 1375 441 1716 441 
Q 2309 441 2620 675 
Q 2931 909 2931 1356 
Q 2931 1769 2642 2001 
Q 2353 2234 1838 2234 
L 1294 2234 
L 1294 2753 
L 1863 2753 
Q 2328 2753 2575 2939 
Q 2822 3125 2822 3475 
Q 2822 3834 2567 4026 
Q 2313 4219 1838 4219 
Q 1578 4219 1281 4162 
Q 984 4106 628 3988 
L 628 4550 
Q 988 4650 1302 4700 
Q 1616 4750 1894 4750 
Q 2613 4750 3031 4423 
Q 3450 4097 3450 3541 
Q 3450 3153 3228 2886 
Q 3006 2619 2597 2516 
z
" transform="scale(0.015625)"/>
       </defs>
       <use xlink:href="#DejaVuSans-33"/>
       <use xlink:href="#DejaVuSans-2e" transform="translate(63.623047 0)"/>
       <use xlink:href="#DejaVuSans-30" transform="translate(95.410156 0)"/>
      </g>
     </g>
    </g>
    <g id="ytick_4">
     <g id="line2d_19">
      <path d="M 43.78125 102.388352 
L 341.462187 102.388352 
" clip-path="url(#p774ec285bb)" style="fill: none; stroke: #b0b0b0; stroke-width: 0.8; stroke-linecap: square"/>
     </g>
     <g id="line2d_20">
      <g>
       <use xlink:href="#m8989fe4dc7" x="43.78125" y="102.388352" style="stroke: #000000; stroke-width: 0.8"/>
      </g>
     </g>
     <g id="text_11">
      <!-- 3.2 -->
      <g transform="translate(20.878125 106.187571) scale(0.1 -0.1)">
       <use xlink:href="#DejaVuSans-33"/>
       <use xlink:href="#DejaVuSans-2e" transform="translate(63.623047 0)"/>
       <use xlink:href="#DejaVuSans-32" transform="translate(95.410156 0)"/>
      </g>
     </g>
    </g>
    <g id="ytick_5">
     <g id="line2d_21">
      <path d="M 43.78125 80.416634 
L 341.462187 80.416634 
" clip-path="url(#p774ec285bb)" style="fill: none; stroke: #b0b0b0; stroke-width: 0.8; stroke-linecap: square"/>
     </g>
     <g id="line2d_22">
      <g>
       <use xlink:href="#m8989fe4dc7" x="43.78125" y="80.416634" style="stroke: #000000; stroke-width: 0.8"/>
      </g>
     </g>
     <g id="text_12">
      <!-- 3.4 -->
      <g transform="translate(20.878125 84.215853) scale(0.1 -0.1)">
       <use xlink:href="#DejaVuSans-33"/>
       <use xlink:href="#DejaVuSans-2e" transform="translate(63.623047 0)"/>
       <use xlink:href="#DejaVuSans-34" transform="translate(95.410156 0)"/>
      </g>
     </g>
    </g>
    <g id="ytick_6">
     <g id="line2d_23">
      <path d="M 43.78125 58.444915 
L 341.462187 58.444915 
" clip-path="url(#p774ec285bb)" style="fill: none; stroke: #b0b0b0; stroke-width: 0.8; stroke-linecap: square"/>
     </g>
     <g id="line2d_24">
      <g>
       <use xlink:href="#m8989fe4dc7" x="43.78125" y="58.444915" style="stroke: #000000; stroke-width: 0.8"/>
      </g>
     </g>
     <g id="text_13">
      <!-- 3.6 -->
      <g transform="translate(20.878125 62.244134) scale(0.1 -0.1)">
       <use xlink:href="#DejaVuSans-33"/>
       <use xlink:href="#DejaVuSans-2e" transform="translate(63.623047 0)"/>
       <use xlink:href="#DejaVuSans-36" transform="translate(95.410156 0)"/>
      </g>
     </g>
    </g>
    <g id="ytick_7">
     <g id="line2d_25">
      <path d="M 43.78125 36.473197 
L 341.462187 36.473197 
" clip-path="url(#p774ec285bb)" style="fill: none; stroke: #b0b0b0; stroke-width: 0.8; stroke-linecap: square"/>
     </g>
     <g id="line2d_26">
      <g>
       <use xlink:href="#m8989fe4dc7" x="43.78125" y="36.473197" style="stroke: #000000; stroke-width: 0.8"/>
      </g>
     </g>
     <g id="text_14">
      <!-- 3.8 -->
      <g transform="translate(20.878125 40.272416) scale(0.1 -0.1)">
       <use xlink:href="#DejaVuSans-33"/>
       <use xlink:href="#DejaVuSans-2e" transform="translate(63.623047 0)"/>
       <use xlink:href="#DejaVuSans-38" transform="translate(95.410156 0)"/>
      </g>
     </g>
    </g>
    <g id="ytick_8">
     <g id="line2d_27">
      <path d="M 43.78125 14.501478 
L 341.462187 14.501478 
" clip-path="url(#p774ec285bb)" style="fill: none; stroke: #b0b0b0; stroke-width: 0.8; stroke-linecap: square"/>
     </g>
     <g id="line2d_28">
      <g>
       <use xlink:href="#m8989fe4dc7" x="43.78125" y="14.501478" style="stroke: #000000; stroke-width: 0.8"/>
      </g>
     </g>
     <g id="text_15">
      <!-- 4.0 -->
      <g transform="translate(20.878125 18.300697) scale(0.1 -0.1)">
       <use xlink:href="#DejaVuSans-34"/>
       <use xlink:href="#DejaVuSans-2e" transform="translate(63.623047 0)"/>
       <use xlink:href="#DejaVuSans-30" transform="translate(95.410156 0)"/>
      </g>
     </g>
    </g>
    <g id="text_16">
     <!-- Generalized mutual information -->
     <g transform="translate(14.798438 168.025) rotate(-90) scale(0.1 -0.1)">
      <defs>
       <path id="DejaVuSans-47" d="M 3809 666 
L 3809 1919 
L 2778 1919 
L 2778 2438 
L 4434 2438 
L 4434 434 
Q 4069 175 3628 42 
Q 3188 -91 2688 -91 
Q 1594 -91 976 548 
Q 359 1188 359 2328 
Q 359 3472 976 4111 
Q 1594 4750 2688 4750 
Q 3144 4750 3555 4637 
Q 3966 4525 4313 4306 
L 4313 3634 
Q 3963 3931 3569 4081 
Q 3175 4231 2741 4231 
Q 1884 4231 1454 3753 
Q 1025 3275 1025 2328 
Q 1025 1384 1454 906 
Q 1884 428 2741 428 
Q 3075 428 3337 486 
Q 3600 544 3809 666 
z
" transform="scale(0.015625)"/>
       <path id="DejaVuSans-65" d="M 3597 1894 
L 3597 1613 
L 953 1613 
Q 991 1019 1311 708 
Q 1631 397 2203 397 
Q 2534 397 2845 478 
Q 3156 559 3463 722 
L 3463 178 
Q 3153 47 2828 -22 
Q 2503 -91 2169 -91 
Q 1331 -91 842 396 
Q 353 884 353 1716 
Q 353 2575 817 3079 
Q 1281 3584 2069 3584 
Q 2775 3584 3186 3129 
Q 3597 2675 3597 1894 
z
M 3022 2063 
Q 3016 2534 2758 2815 
Q 2500 3097 2075 3097 
Q 1594 3097 1305 2825 
Q 1016 2553 972 2059 
L 3022 2063 
z
" transform="scale(0.015625)"/>
       <path id="DejaVuSans-6e" d="M 3513 2113 
L 3513 0 
L 2938 0 
L 2938 2094 
Q 2938 2591 2744 2837 
Q 2550 3084 2163 3084 
Q 1697 3084 1428 2787 
Q 1159 2491 1159 1978 
L 1159 0 
L 581 0 
L 581 3500 
L 1159 3500 
L 1159 2956 
Q 1366 3272 1645 3428 
Q 1925 3584 2291 3584 
Q 2894 3584 3203 3211 
Q 3513 2838 3513 2113 
z
" transform="scale(0.015625)"/>
       <path id="DejaVuSans-72" d="M 2631 2963 
Q 2534 3019 2420 3045 
Q 2306 3072 2169 3072 
Q 1681 3072 1420 2755 
Q 1159 2438 1159 1844 
L 1159 0 
L 581 0 
L 581 3500 
L 1159 3500 
L 1159 2956 
Q 1341 3275 1631 3429 
Q 1922 3584 2338 3584 
Q 2397 3584 2469 3576 
Q 2541 3569 2628 3553 
L 2631 2963 
z
" transform="scale(0.015625)"/>
       <path id="DejaVuSans-61" d="M 2194 1759 
Q 1497 1759 1228 1600 
Q 959 1441 959 1056 
Q 959 750 1161 570 
Q 1363 391 1709 391 
Q 2188 391 2477 730 
Q 2766 1069 2766 1631 
L 2766 1759 
L 2194 1759 
z
M 3341 1997 
L 3341 0 
L 2766 0 
L 2766 531 
Q 2569 213 2275 61 
Q 1981 -91 1556 -91 
Q 1019 -91 701 211 
Q 384 513 384 1019 
Q 384 1609 779 1909 
Q 1175 2209 1959 2209 
L 2766 2209 
L 2766 2266 
Q 2766 2663 2505 2880 
Q 2244 3097 1772 3097 
Q 1472 3097 1187 3025 
Q 903 2953 641 2809 
L 641 3341 
Q 956 3463 1253 3523 
Q 1550 3584 1831 3584 
Q 2591 3584 2966 3190 
Q 3341 2797 3341 1997 
z
" transform="scale(0.015625)"/>
       <path id="DejaVuSans-6c" d="M 603 4863 
L 1178 4863 
L 1178 0 
L 603 0 
L 603 4863 
z
" transform="scale(0.015625)"/>
       <path id="DejaVuSans-69" d="M 603 3500 
L 1178 3500 
L 1178 0 
L 603 0 
L 603 3500 
z
M 603 4863 
L 1178 4863 
L 1178 4134 
L 603 4134 
L 603 4863 
z
" transform="scale(0.015625)"/>
       <path id="DejaVuSans-7a" d="M 353 3500 
L 3084 3500 
L 3084 2975 
L 922 459 
L 3084 459 
L 3084 0 
L 275 0 
L 275 525 
L 2438 3041 
L 353 3041 
L 353 3500 
z
" transform="scale(0.015625)"/>
       <path id="DejaVuSans-64" d="M 2906 2969 
L 2906 4863 
L 3481 4863 
L 3481 0 
L 2906 0 
L 2906 525 
Q 2725 213 2448 61 
Q 2172 -91 1784 -91 
Q 1150 -91 751 415 
Q 353 922 353 1747 
Q 353 2572 751 3078 
Q 1150 3584 1784 3584 
Q 2172 3584 2448 3432 
Q 2725 3281 2906 2969 
z
M 947 1747 
Q 947 1113 1208 752 
Q 1469 391 1925 391 
Q 2381 391 2643 752 
Q 2906 1113 2906 1747 
Q 2906 2381 2643 2742 
Q 2381 3103 1925 3103 
Q 1469 3103 1208 2742 
Q 947 2381 947 1747 
z
" transform="scale(0.015625)"/>
       <path id="DejaVuSans-20" transform="scale(0.015625)"/>
       <path id="DejaVuSans-6d" d="M 3328 2828 
Q 3544 3216 3844 3400 
Q 4144 3584 4550 3584 
Q 5097 3584 5394 3201 
Q 5691 2819 5691 2113 
L 5691 0 
L 5113 0 
L 5113 2094 
Q 5113 2597 4934 2840 
Q 4756 3084 4391 3084 
Q 3944 3084 3684 2787 
Q 3425 2491 3425 1978 
L 3425 0 
L 2847 0 
L 2847 2094 
Q 2847 2600 2669 2842 
Q 2491 3084 2119 3084 
Q 1678 3084 1418 2786 
Q 1159 2488 1159 1978 
L 1159 0 
L 581 0 
L 581 3500 
L 1159 3500 
L 1159 2956 
Q 1356 3278 1631 3431 
Q 1906 3584 2284 3584 
Q 2666 3584 2933 3390 
Q 3200 3197 3328 2828 
z
" transform="scale(0.015625)"/>
       <path id="DejaVuSans-75" d="M 544 1381 
L 544 3500 
L 1119 3500 
L 1119 1403 
Q 1119 906 1312 657 
Q 1506 409 1894 409 
Q 2359 409 2629 706 
Q 2900 1003 2900 1516 
L 2900 3500 
L 3475 3500 
L 3475 0 
L 2900 0 
L 2900 538 
Q 2691 219 2414 64 
Q 2138 -91 1772 -91 
Q 1169 -91 856 284 
Q 544 659 544 1381 
z
M 1991 3584 
L 1991 3584 
z
" transform="scale(0.015625)"/>
       <path id="DejaVuSans-74" d="M 1172 4494 
L 1172 3500 
L 2356 3500 
L 2356 3053 
L 1172 3053 
L 1172 1153 
Q 1172 725 1289 603 
Q 1406 481 1766 481 
L 2356 481 
L 2356 0 
L 1766 0 
Q 1100 0 847 248 
Q 594 497 594 1153 
L 594 3053 
L 172 3053 
L 172 3500 
L 594 3500 
L 594 4494 
L 1172 4494 
z
" transform="scale(0.015625)"/>
       <path id="DejaVuSans-66" d="M 2375 4863 
L 2375 4384 
L 1825 4384 
Q 1516 4384 1395 4259 
Q 1275 4134 1275 3809 
L 1275 3500 
L 2222 3500 
L 2222 3053 
L 1275 3053 
L 1275 0 
L 697 0 
L 697 3053 
L 147 3053 
L 147 3500 
L 697 3500 
L 697 3744 
Q 697 4328 969 4595 
Q 1241 4863 1831 4863 
L 2375 4863 
z
" transform="scale(0.015625)"/>
      </defs>
      <use xlink:href="#DejaVuSans-47"/>
      <use xlink:href="#DejaVuSans-65" transform="translate(77.490234 0)"/>
      <use xlink:href="#DejaVuSans-6e" transform="translate(139.013672 0)"/>
      <use xlink:href="#DejaVuSans-65" transform="translate(202.392578 0)"/>
      <use xlink:href="#DejaVuSans-72" transform="translate(263.916016 0)"/>
      <use xlink:href="#DejaVuSans-61" transform="translate(305.029297 0)"/>
      <use xlink:href="#DejaVuSans-6c" transform="translate(366.308594 0)"/>
      <use xlink:href="#DejaVuSans-69" transform="translate(394.091797 0)"/>
      <use xlink:href="#DejaVuSans-7a" transform="translate(421.875 0)"/>
      <use xlink:href="#DejaVuSans-65" transform="translate(474.365234 0)"/>
      <use xlink:href="#DejaVuSans-64" transform="translate(535.888672 0)"/>
      <use xlink:href="#DejaVuSans-20" transform="translate(599.365234 0)"/>
      <use xlink:href="#DejaVuSans-6d" transform="translate(631.152344 0)"/>
      <use xlink:href="#DejaVuSans-75" transform="translate(728.564453 0)"/>
      <use xlink:href="#DejaVuSans-74" transform="translate(791.943359 0)"/>
      <use xlink:href="#DejaVuSans-75" transform="translate(831.152344 0)"/>
      <use xlink:href="#DejaVuSans-61" transform="translate(894.53125 0)"/>
      <use xlink:href="#DejaVuSans-6c" transform="translate(955.810547 0)"/>
      <use xlink:href="#DejaVuSans-20" transform="translate(983.59375 0)"/>
      <use xlink:href="#DejaVuSans-69" transform="translate(1015.380859 0)"/>
      <use xlink:href="#DejaVuSans-6e" transform="translate(1043.164062 0)"/>
      <use xlink:href="#DejaVuSans-66" transform="translate(1106.542969 0)"/>
      <use xlink:href="#DejaVuSans-6f" transform="translate(1141.748047 0)"/>
      <use xlink:href="#DejaVuSans-72" transform="translate(1202.929688 0)"/>
      <use xlink:href="#DejaVuSans-6d" transform="translate(1242.292969 0)"/>
      <use xlink:href="#DejaVuSans-61" transform="translate(1339.705078 0)"/>
      <use xlink:href="#DejaVuSans-74" transform="translate(1400.984375 0)"/>
      <use xlink:href="#DejaVuSans-69" transform="translate(1440.193359 0)"/>
      <use xlink:href="#DejaVuSans-6f" transform="translate(1467.976562 0)"/>
      <use xlink:href="#DejaVuSans-6e" transform="translate(1529.158203 0)"/>
     </g>
    </g>
   </g>
   <g id="line2d_29">
    <path d="M 57.312202 97.578521 
L 62.835039 95.084771 
L 68.357877 84.303353 
L 73.880714 82.916534 
L 79.403551 79.673241 
L 84.926389 75.82138 
L 90.449226 71.551861 
L 95.972064 67.826879 
L 101.494901 66.666178 
L 107.017738 58.220756 
L 112.540576 56.541304 
L 118.063413 53.833146 
L 123.586251 49.820455 
L 129.109088 53.909249 
L 134.631926 54.395597 
L 140.154763 49.93113 
L 145.6776 50.71912 
L 151.200438 51.561465 
L 156.723275 51.140045 
L 162.246113 50.576734 
L 167.76895 47.801147 
L 173.291787 46.660172 
L 178.814625 49.825763 
L 184.337462 47.176432 
L 189.8603 48.41264 
L 195.383137 44.838321 
L 200.905975 45.403044 
L 206.428812 47.061277 
L 211.951649 46.531666 
L 217.474487 48.377741 
L 222.997324 44.798732 
L 228.520162 45.05632 
L 234.042999 48.80295 
L 239.565837 44.894875 
L 245.088674 46.227856 
L 250.611511 46.82308 
L 256.134349 48.537764 
L 261.657186 46.25142 
L 267.180024 46.576101 
L 272.702861 47.481123 
L 278.225698 46.201338 
L 283.748536 49.400805 
L 289.271373 46.457787 
L 294.794211 50.301797 
L 300.317048 47.024135 
L 305.839886 48.754201 
L 311.362723 51.652915 
L 316.88556 46.970226 
L 322.408398 49.626077 
L 327.931235 47.079144 
" clip-path="url(#p774ec285bb)" style="fill: none; stroke: #b81420; stroke-width: 2; stroke-linecap: square"/>
   </g>
   <g id="line2d_30">
    <defs>
     <path id="m569862586f" d="M 0 -3 
L -0.673542 -0.927051 
L -2.85317 -0.927051 
L -1.089814 0.354102 
L -1.763356 2.427051 
L -0 1.145898 
L 1.763356 2.427051 
L 1.089814 0.354102 
L 2.85317 -0.927051 
L 0.673542 -0.927051 
z
" style="stroke: #b81420; stroke-linejoin: bevel"/>
    </defs>
    <g clip-path="url(#p774ec285bb)">
     <use xlink:href="#m569862586f" x="57.312202" y="97.578521" style="fill: #b81420; stroke: #b81420; stroke-linejoin: bevel"/>
     <use xlink:href="#m569862586f" x="62.835039" y="95.084771" style="fill: #b81420; stroke: #b81420; stroke-linejoin: bevel"/>
     <use xlink:href="#m569862586f" x="68.357877" y="84.303353" style="fill: #b81420; stroke: #b81420; stroke-linejoin: bevel"/>
     <use xlink:href="#m569862586f" x="73.880714" y="82.916534" style="fill: #b81420; stroke: #b81420; stroke-linejoin: bevel"/>
     <use xlink:href="#m569862586f" x="79.403551" y="79.673241" style="fill: #b81420; stroke: #b81420; stroke-linejoin: bevel"/>
     <use xlink:href="#m569862586f" x="84.926389" y="75.82138" style="fill: #b81420; stroke: #b81420; stroke-linejoin: bevel"/>
     <use xlink:href="#m569862586f" x="90.449226" y="71.551861" style="fill: #b81420; stroke: #b81420; stroke-linejoin: bevel"/>
     <use xlink:href="#m569862586f" x="95.972064" y="67.826879" style="fill: #b81420; stroke: #b81420; stroke-linejoin: bevel"/>
     <use xlink:href="#m569862586f" x="101.494901" y="66.666178" style="fill: #b81420; stroke: #b81420; stroke-linejoin: bevel"/>
     <use xlink:href="#m569862586f" x="107.017738" y="58.220756" style="fill: #b81420; stroke: #b81420; stroke-linejoin: bevel"/>
     <use xlink:href="#m569862586f" x="112.540576" y="56.541304" style="fill: #b81420; stroke: #b81420; stroke-linejoin: bevel"/>
     <use xlink:href="#m569862586f" x="118.063413" y="53.833146" style="fill: #b81420; stroke: #b81420; stroke-linejoin: bevel"/>
     <use xlink:href="#m569862586f" x="123.586251" y="49.820455" style="fill: #b81420; stroke: #b81420; stroke-linejoin: bevel"/>
     <use xlink:href="#m569862586f" x="129.109088" y="53.909249" style="fill: #b81420; stroke: #b81420; stroke-linejoin: bevel"/>
     <use xlink:href="#m569862586f" x="134.631926" y="54.395597" style="fill: #b81420; stroke: #b81420; stroke-linejoin: bevel"/>
     <use xlink:href="#m569862586f" x="140.154763" y="49.93113" style="fill: #b81420; stroke: #b81420; stroke-linejoin: bevel"/>
     <use xlink:href="#m569862586f" x="145.6776" y="50.71912" style="fill: #b81420; stroke: #b81420; stroke-linejoin: bevel"/>
     <use xlink:href="#m569862586f" x="151.200438" y="51.561465" style="fill: #b81420; stroke: #b81420; stroke-linejoin: bevel"/>
     <use xlink:href="#m569862586f" x="156.723275" y="51.140045" style="fill: #b81420; stroke: #b81420; stroke-linejoin: bevel"/>
     <use xlink:href="#m569862586f" x="162.246113" y="50.576734" style="fill: #b81420; stroke: #b81420; stroke-linejoin: bevel"/>
     <use xlink:href="#m569862586f" x="167.76895" y="47.801147" style="fill: #b81420; stroke: #b81420; stroke-linejoin: bevel"/>
     <use xlink:href="#m569862586f" x="173.291787" y="46.660172" style="fill: #b81420; stroke: #b81420; stroke-linejoin: bevel"/>
     <use xlink:href="#m569862586f" x="178.814625" y="49.825763" style="fill: #b81420; stroke: #b81420; stroke-linejoin: bevel"/>
     <use xlink:href="#m569862586f" x="184.337462" y="47.176432" style="fill: #b81420; stroke: #b81420; stroke-linejoin: bevel"/>
     <use xlink:href="#m569862586f" x="189.8603" y="48.41264" style="fill: #b81420; stroke: #b81420; stroke-linejoin: bevel"/>
     <use xlink:href="#m569862586f" x="195.383137" y="44.838321" style="fill: #b81420; stroke: #b81420; stroke-linejoin: bevel"/>
     <use xlink:href="#m569862586f" x="200.905975" y="45.403044" style="fill: #b81420; stroke: #b81420; stroke-linejoin: bevel"/>
     <use xlink:href="#m569862586f" x="206.428812" y="47.061277" style="fill: #b81420; stroke: #b81420; stroke-linejoin: bevel"/>
     <use xlink:href="#m569862586f" x="211.951649" y="46.531666" style="fill: #b81420; stroke: #b81420; stroke-linejoin: bevel"/>
     <use xlink:href="#m569862586f" x="217.474487" y="48.377741" style="fill: #b81420; stroke: #b81420; stroke-linejoin: bevel"/>
     <use xlink:href="#m569862586f" x="222.997324" y="44.798732" style="fill: #b81420; stroke: #b81420; stroke-linejoin: bevel"/>
     <use xlink:href="#m569862586f" x="228.520162" y="45.05632" style="fill: #b81420; stroke: #b81420; stroke-linejoin: bevel"/>
     <use xlink:href="#m569862586f" x="234.042999" y="48.80295" style="fill: #b81420; stroke: #b81420; stroke-linejoin: bevel"/>
     <use xlink:href="#m569862586f" x="239.565837" y="44.894875" style="fill: #b81420; stroke: #b81420; stroke-linejoin: bevel"/>
     <use xlink:href="#m569862586f" x="245.088674" y="46.227856" style="fill: #b81420; stroke: #b81420; stroke-linejoin: bevel"/>
     <use xlink:href="#m569862586f" x="250.611511" y="46.82308" style="fill: #b81420; stroke: #b81420; stroke-linejoin: bevel"/>
     <use xlink:href="#m569862586f" x="256.134349" y="48.537764" style="fill: #b81420; stroke: #b81420; stroke-linejoin: bevel"/>
     <use xlink:href="#m569862586f" x="261.657186" y="46.25142" style="fill: #b81420; stroke: #b81420; stroke-linejoin: bevel"/>
     <use xlink:href="#m569862586f" x="267.180024" y="46.576101" style="fill: #b81420; stroke: #b81420; stroke-linejoin: bevel"/>
     <use xlink:href="#m569862586f" x="272.702861" y="47.481123" style="fill: #b81420; stroke: #b81420; stroke-linejoin: bevel"/>
     <use xlink:href="#m569862586f" x="278.225698" y="46.201338" style="fill: #b81420; stroke: #b81420; stroke-linejoin: bevel"/>
     <use xlink:href="#m569862586f" x="283.748536" y="49.400805" style="fill: #b81420; stroke: #b81420; stroke-linejoin: bevel"/>
     <use xlink:href="#m569862586f" x="289.271373" y="46.457787" style="fill: #b81420; stroke: #b81420; stroke-linejoin: bevel"/>
     <use xlink:href="#m569862586f" x="294.794211" y="50.301797" style="fill: #b81420; stroke: #b81420; stroke-linejoin: bevel"/>
     <use xlink:href="#m569862586f" x="300.317048" y="47.024135" style="fill: #b81420; stroke: #b81420; stroke-linejoin: bevel"/>
     <use xlink:href="#m569862586f" x="305.839886" y="48.754201" style="fill: #b81420; stroke: #b81420; stroke-linejoin: bevel"/>
     <use xlink:href="#m569862586f" x="311.362723" y="51.652915" style="fill: #b81420; stroke: #b81420; stroke-linejoin: bevel"/>
     <use xlink:href="#m569862586f" x="316.88556" y="46.970226" style="fill: #b81420; stroke: #b81420; stroke-linejoin: bevel"/>
     <use xlink:href="#m569862586f" x="322.408398" y="49.626077" style="fill: #b81420; stroke: #b81420; stroke-linejoin: bevel"/>
     <use xlink:href="#m569862586f" x="327.931235" y="47.079144" style="fill: #b81420; stroke: #b81420; stroke-linejoin: bevel"/>
    </g>
   </g>
   <g id="line2d_31">
    <path d="M 57.312202 24.277062 
L 62.835039 30.882694 
L 68.357877 21.578494 
L 73.880714 21.14345 
L 79.403551 17.263081 
L 84.926389 18.010252 
L 90.449226 16.559945 
L 95.972064 15.268626 
L 101.494901 22.587008 
L 107.017738 17.673089 
L 112.540576 16.090775 
L 118.063413 15.682751 
L 123.586251 15.161401 
L 129.109088 15.933249 
L 134.631926 15.479687 
L 140.154763 14.786382 
L 145.6776 16.306855 
L 151.200438 15.184463 
L 156.723275 15.157679 
L 162.246113 15.249956 
L 167.76895 15.137663 
L 173.291787 14.885544 
L 178.814625 15.0685 
L 184.337462 16.329972 
L 189.8603 15.543513 
L 195.383137 15.15637 
L 200.905975 14.879199 
L 206.428812 14.687606 
L 211.951649 14.745895 
L 217.474487 15.613737 
L 222.997324 14.581818 
L 228.520162 14.807637 
L 234.042999 15.61477 
L 239.565837 15.06008 
L 245.088674 15.268999 
L 250.611511 14.770506 
L 256.134349 14.626329 
L 261.657186 14.716738 
L 267.180024 14.849491 
L 272.702861 14.663532 
L 278.225698 14.654899 
L 283.748536 14.952213 
L 289.271373 14.667256 
L 294.794211 14.773419 
L 300.317048 14.77996 
L 305.839886 14.668411 
L 311.362723 14.955208 
L 316.88556 14.599598 
L 322.408398 14.826577 
L 327.931235 15.439301 
" clip-path="url(#p774ec285bb)" style="fill: none; stroke: #d3d3d3; stroke-width: 2; stroke-linecap: square"/>
   </g>
   <g id="line2d_32">
    <path d="M 57.312202 162.218182 
L 62.835039 154.53104 
L 68.357877 147.268588 
L 73.880714 155.427291 
L 79.403551 141.752999 
L 84.926389 137.364212 
L 90.449226 127.945809 
L 95.972064 128.950833 
L 101.494901 114.991401 
L 107.017738 112.83325 
L 112.540576 105.999678 
L 118.063413 107.217956 
L 123.586251 103.890946 
L 129.109088 111.885416 
L 134.631926 105.485753 
L 140.154763 97.077073 
L 145.6776 100.768148 
L 151.200438 113.521088 
L 156.723275 101.960084 
L 162.246113 100.51937 
L 167.76895 101.678286 
L 173.291787 101.201734 
L 178.814625 103.724582 
L 184.337462 103.843788 
L 189.8603 99.229578 
L 195.383137 101.176287 
L 200.905975 102.054404 
L 206.428812 106.06715 
L 211.951649 103.76988 
L 217.474487 110.90509 
L 222.997324 97.161022 
L 228.520162 101.350866 
L 234.042999 108.566103 
L 239.565837 101.071362 
L 245.088674 101.320666 
L 250.611511 104.204476 
L 256.134349 106.660827 
L 261.657186 102.443803 
L 267.180024 107.239954 
L 272.702861 103.162256 
L 278.225698 103.317201 
L 283.748536 108.711364 
L 289.271373 108.527567 
L 294.794211 105.089962 
L 300.317048 110.42636 
L 305.839886 113.820997 
L 311.362723 112.977534 
L 316.88556 107.828852 
L 322.408398 117.089076 
L 327.931235 103.149534 
" clip-path="url(#p774ec285bb)" style="fill: none; stroke: #d3d3d3; stroke-width: 2; stroke-linecap: square"/>
   </g>
   <g id="patch_3">
    <path d="M 43.78125 169.6 
L 43.78125 7.2 
" style="fill: none; stroke: #000000; stroke-width: 0.8; stroke-linejoin: miter; stroke-linecap: square"/>
   </g>
   <g id="patch_4">
    <path d="M 341.462187 169.6 
L 341.462187 7.2 
" style="fill: none; stroke: #000000; stroke-width: 0.8; stroke-linejoin: miter; stroke-linecap: square"/>
   </g>
   <g id="patch_5">
    <path d="M 43.78125 169.6 
L 341.462187 169.6 
" style="fill: none; stroke: #000000; stroke-width: 0.8; stroke-linejoin: miter; stroke-linecap: square"/>
   </g>
   <g id="patch_6">
    <path d="M 43.78125 7.2 
L 341.462187 7.2 
" style="fill: none; stroke: #000000; stroke-width: 0.8; stroke-linejoin: miter; stroke-linecap: square"/>
   </g>
  </g>
 </g>
 <defs>
  <clipPath id="p774ec285bb">
   <rect x="43.78125" y="7.2" width="297.680937" height="162.4"/>
  </clipPath>
 </defs>
</svg>
