<?xml version="1.0" encoding="utf-8" standalone="no"?>
<!DOCTYPE svg PUBLIC "-//W3C//DTD SVG 1.1//EN"
  "http://www.w3.org/Graphics/SVG/1.1/DTD/svg11.dtd">
<svg xmlns:xlink="http://www.w3.org/1999/xlink" width="720.58125pt" height="211.07625pt" viewBox="0 0 720.58125 211.07625" xmlns="http://www.w3.org/2000/svg" version="1.1">
 <metadata>
  <rdf:RDF xmlns:dc="http://purl.org/dc/elements/1.1/" xmlns:cc="http://creativecommons.org/ns#" xmlns:rdf="http://www.w3.org/1999/02/22-rdf-syntax-ns#">
   <cc:Work>
    <dc:type rdf:resource="http://purl.org/dc/dcmitype/StillImage"/>
    <dc:date>2025-02-07T15:27:53.374897</dc:date>
    <dc:format>image/svg+xml</dc:format>
    <dc:creator>
     <cc:Agent>
      <dc:title>Matplotlib v3.10.0, https://matplotlib.org/</dc:title>
     </cc:Agent>
    </dc:creator>
   </cc:Work>
  </rdf:RDF>
 </metadata>
 <defs>
  <style type="text/css">*{stroke-linejoin: round; stroke-linecap: butt}</style>
 </defs>
 <g id="figure_1">
  <g id="patch_1">
   <path d="M 0 211.07625 
L 720.58125 211.07625 
L 720.58125 0 
L 0 0 
z
" style="fill: #ffffff"/>
  </g>
  <g id="axes_1">
   <g id="patch_2">
    <path d="M 43.78125 173.52 
L 348.144886 173.52 
L 348.144886 7.2 
L 43.78125 7.2 
z
" style="fill: #ffffff"/>
   </g>
   <g id="FillBetweenPolyCollection_1">
    <defs>
     <path id="m86bd5847a2" d="M 57.615961 -122.647561 
L 57.615961 -45.11625 
L 61.626022 -61.814772 
L 65.636083 -57.457965 
L 69.646144 -66.956037 
L 73.656205 -71.215273 
L 77.666266 -77.313969 
L 81.676327 -73.552216 
L 85.686388 -76.673378 
L 89.696449 -90.534983 
L 93.706511 -89.516284 
L 97.716572 -93.84265 
L 101.726633 -93.381989 
L 105.736694 -100.084621 
L 109.746755 -101.457093 
L 113.756816 -102.759977 
L 117.766877 -99.898915 
L 121.776938 -101.040316 
L 125.786999 -97.78079 
L 129.79706 -102.274989 
L 133.807121 -104.23427 
L 137.817182 -101.300161 
L 141.827244 -102.321113 
L 145.837305 -104.998722 
L 149.847366 -101.073245 
L 153.857427 -113.380273 
L 157.867488 -114.225906 
L 161.877549 -108.309017 
L 165.88761 -117.629433 
L 169.897671 -106.767519 
L 173.907732 -107.835888 
L 177.917793 -109.013108 
L 181.927854 -113.014488 
L 185.937915 -110.148256 
L 189.947977 -111.607566 
L 193.958038 -114.659867 
L 197.968099 -113.533488 
L 201.97816 -114.985545 
L 205.988221 -114.863017 
L 209.998282 -115.617981 
L 214.008343 -120.241209 
L 218.018404 -118.568748 
L 222.028465 -119.755365 
L 226.038526 -120.076639 
L 230.048587 -116.645239 
L 234.058648 -115.537616 
L 238.06871 -111.069311 
L 242.078771 -113.777863 
L 246.088832 -120.563204 
L 250.098893 -118.163447 
L 254.108954 -113.852447 
L 258.119015 -116.287121 
L 262.129076 -112.609232 
L 266.139137 -112.130632 
L 270.149198 -114.282864 
L 274.159259 -111.160108 
L 278.16932 -105.698033 
L 282.179382 -109.918934 
L 286.189443 -111.367495 
L 290.199504 -111.043621 
L 294.209565 -112.802469 
L 298.219626 -114.013856 
L 302.229687 -113.036226 
L 306.239748 -114.793617 
L 310.249809 -116.135932 
L 314.25987 -112.080982 
L 318.269931 -111.183638 
L 322.279992 -113.988035 
L 326.290053 -115.827491 
L 330.300115 -115.393293 
L 334.310176 -114.868076 
L 334.310176 -170.065873 
L 334.310176 -170.065873 
L 330.300115 -174.343424 
L 326.290053 -174.853775 
L 322.279992 -179.01263 
L 318.269931 -174.983087 
L 314.25987 -177.589051 
L 310.249809 -176.045233 
L 306.239748 -173.515276 
L 302.229687 -173.185673 
L 298.219626 -176.010614 
L 294.209565 -178.793436 
L 290.199504 -175.424606 
L 286.189443 -176.841433 
L 282.179382 -175.699501 
L 278.16932 -173.952539 
L 274.159259 -176.031518 
L 270.149198 -175.875098 
L 266.139137 -171.209689 
L 262.129076 -175.886012 
L 258.119015 -170.369565 
L 254.108954 -174.865524 
L 250.098893 -173.23902 
L 246.088832 -173.027907 
L 242.078771 -173.37617 
L 238.06871 -174.5367 
L 234.058648 -175.322021 
L 230.048587 -168.9011 
L 226.038526 -176.520974 
L 222.028465 -168.155098 
L 218.018404 -164.690192 
L 214.008343 -173.025614 
L 209.998282 -168.360206 
L 205.988221 -169.322937 
L 201.97816 -177.27881 
L 197.968099 -173.272794 
L 193.958038 -171.145359 
L 189.947977 -173.756472 
L 185.937915 -176.42582 
L 181.927854 -177.007539 
L 177.917793 -177.507452 
L 173.907732 -181.702917 
L 169.897671 -188.133386 
L 165.88761 -176.445635 
L 161.877549 -176.4403 
L 157.867488 -179.771985 
L 153.857427 -181.474663 
L 149.847366 -177.454728 
L 145.837305 -183.74886 
L 141.827244 -188.901251 
L 137.817182 -183.49526 
L 133.807121 -186.661246 
L 129.79706 -196.31625 
L 125.786999 -179.767398 
L 121.776938 -186.648574 
L 117.766877 -180.404366 
L 113.756816 -192.087396 
L 109.746755 -176.907218 
L 105.736694 -184.567902 
L 101.726633 -183.224296 
L 97.716572 -189.49095 
L 93.706511 -185.714385 
L 89.696449 -175.58664 
L 85.686388 -183.208054 
L 81.676327 -173.915074 
L 77.666266 -177.497074 
L 73.656205 -179.446566 
L 69.646144 -166.930956 
L 65.636083 -141.569654 
L 61.626022 -170.969098 
L 57.615961 -122.647561 
z
" style="stroke: #d3d3d3; stroke-opacity: 0.5"/>
    </defs>
    <g clip-path="url(#p7b3f997ad4)">
     <use xlink:href="#m86bd5847a2" x="0" y="211.07625" style="fill: #d3d3d3; fill-opacity: 0.5; stroke: #d3d3d3; stroke-opacity: 0.5"/>
    </g>
   </g>
   <g id="matplotlib.axis_1">
    <g id="xtick_1">
     <g id="line2d_1">
      <path d="M 53.646 173.52 
L 53.646 7.2 
" clip-path="url(#p7b3f997ad4)" style="fill: none; stroke: #b0b0b0; stroke-width: 0.8; stroke-linecap: square"/>
     </g>
     <g id="line2d_2">
      <defs>
       <path id="m38397369a3" d="M 0 0 
L 0 3.5 
" style="stroke: #000000; stroke-width: 0.8"/>
      </defs>
      <g>
       <use xlink:href="#m38397369a3" x="53.646" y="173.52" style="stroke: #000000; stroke-width: 0.8"/>
      </g>
     </g>
     <g id="text_1">
      <!-- 0 -->
      <g transform="translate(50.46475 188.118438) scale(0.1 -0.1)">
       <defs>
        <path id="DejaVuSans-30" d="M 2034 4250 
Q 1547 4250 1301 3770 
Q 1056 3291 1056 2328 
Q 1056 1369 1301 889 
Q 1547 409 2034 409 
Q 2525 409 2770 889 
Q 3016 1369 3016 2328 
Q 3016 3291 2770 3770 
Q 2525 4250 2034 4250 
z
M 2034 4750 
Q 2819 4750 3233 4129 
Q 3647 3509 3647 2328 
Q 3647 1150 3233 529 
Q 2819 -91 2034 -91 
Q 1250 -91 836 529 
Q 422 1150 422 2328 
Q 422 3509 836 4129 
Q 1250 4750 2034 4750 
z
" transform="scale(0.015625)"/>
       </defs>
       <use xlink:href="#DejaVuSans-30"/>
      </g>
     </g>
    </g>
    <g id="xtick_2">
     <g id="line2d_3">
      <path d="M 93.746611 173.52 
L 93.746611 7.2 
" clip-path="url(#p7b3f997ad4)" style="fill: none; stroke: #b0b0b0; stroke-width: 0.8; stroke-linecap: square"/>
     </g>
     <g id="line2d_4">
      <g>
       <use xlink:href="#m38397369a3" x="93.746611" y="173.52" style="stroke: #000000; stroke-width: 0.8"/>
      </g>
     </g>
     <g id="text_2">
      <!-- 1000 -->
      <g transform="translate(81.021611 188.118438) scale(0.1 -0.1)">
       <defs>
        <path id="DejaVuSans-31" d="M 794 531 
L 1825 531 
L 1825 4091 
L 703 3866 
L 703 4441 
L 1819 4666 
L 2450 4666 
L 2450 531 
L 3481 531 
L 3481 0 
L 794 0 
L 794 531 
z
" transform="scale(0.015625)"/>
       </defs>
       <use xlink:href="#DejaVuSans-31"/>
       <use xlink:href="#DejaVuSans-30" transform="translate(63.623047 0)"/>
       <use xlink:href="#DejaVuSans-30" transform="translate(127.246094 0)"/>
       <use xlink:href="#DejaVuSans-30" transform="translate(190.869141 0)"/>
      </g>
     </g>
    </g>
    <g id="xtick_3">
     <g id="line2d_5">
      <path d="M 133.847222 173.52 
L 133.847222 7.2 
" clip-path="url(#p7b3f997ad4)" style="fill: none; stroke: #b0b0b0; stroke-width: 0.8; stroke-linecap: square"/>
     </g>
     <g id="line2d_6">
      <g>
       <use xlink:href="#m38397369a3" x="133.847222" y="173.52" style="stroke: #000000; stroke-width: 0.8"/>
      </g>
     </g>
     <g id="text_3">
      <!-- 2000 -->
      <g transform="translate(121.122222 188.118438) scale(0.1 -0.1)">
       <defs>
        <path id="DejaVuSans-32" d="M 1228 531 
L 3431 531 
L 3431 0 
L 469 0 
L 469 531 
Q 828 903 1448 1529 
Q 2069 2156 2228 2338 
Q 2531 2678 2651 2914 
Q 2772 3150 2772 3378 
Q 2772 3750 2511 3984 
Q 2250 4219 1831 4219 
Q 1534 4219 1204 4116 
Q 875 4013 500 3803 
L 500 4441 
Q 881 4594 1212 4672 
Q 1544 4750 1819 4750 
Q 2544 4750 2975 4387 
Q 3406 4025 3406 3419 
Q 3406 3131 3298 2873 
Q 3191 2616 2906 2266 
Q 2828 2175 2409 1742 
Q 1991 1309 1228 531 
z
" transform="scale(0.015625)"/>
       </defs>
       <use xlink:href="#DejaVuSans-32"/>
       <use xlink:href="#DejaVuSans-30" transform="translate(63.623047 0)"/>
       <use xlink:href="#DejaVuSans-30" transform="translate(127.246094 0)"/>
       <use xlink:href="#DejaVuSans-30" transform="translate(190.869141 0)"/>
      </g>
     </g>
    </g>
    <g id="xtick_4">
     <g id="line2d_7">
      <path d="M 173.947833 173.52 
L 173.947833 7.2 
" clip-path="url(#p7b3f997ad4)" style="fill: none; stroke: #b0b0b0; stroke-width: 0.8; stroke-linecap: square"/>
     </g>
     <g id="line2d_8">
      <g>
       <use xlink:href="#m38397369a3" x="173.947833" y="173.52" style="stroke: #000000; stroke-width: 0.8"/>
      </g>
     </g>
     <g id="text_4">
      <!-- 3000 -->
      <g transform="translate(161.222833 188.118438) scale(0.1 -0.1)">
       <defs>
        <path id="DejaVuSans-33" d="M 2597 2516 
Q 3050 2419 3304 2112 
Q 3559 1806 3559 1356 
Q 3559 666 3084 287 
Q 2609 -91 1734 -91 
Q 1441 -91 1130 -33 
Q 819 25 488 141 
L 488 750 
Q 750 597 1062 519 
Q 1375 441 1716 441 
Q 2309 441 2620 675 
Q 2931 909 2931 1356 
Q 2931 1769 2642 2001 
Q 2353 2234 1838 2234 
L 1294 2234 
L 1294 2753 
L 1863 2753 
Q 2328 2753 2575 2939 
Q 2822 3125 2822 3475 
Q 2822 3834 2567 4026 
Q 2313 4219 1838 4219 
Q 1578 4219 1281 4162 
Q 984 4106 628 3988 
L 628 4550 
Q 988 4650 1302 4700 
Q 1616 4750 1894 4750 
Q 2613 4750 3031 4423 
Q 3450 4097 3450 3541 
Q 3450 3153 3228 2886 
Q 3006 2619 2597 2516 
z
" transform="scale(0.015625)"/>
       </defs>
       <use xlink:href="#DejaVuSans-33"/>
       <use xlink:href="#DejaVuSans-30" transform="translate(63.623047 0)"/>
       <use xlink:href="#DejaVuSans-30" transform="translate(127.246094 0)"/>
       <use xlink:href="#DejaVuSans-30" transform="translate(190.869141 0)"/>
      </g>
     </g>
    </g>
    <g id="xtick_5">
     <g id="line2d_9">
      <path d="M 214.048444 173.52 
L 214.048444 7.2 
" clip-path="url(#p7b3f997ad4)" style="fill: none; stroke: #b0b0b0; stroke-width: 0.8; stroke-linecap: square"/>
     </g>
     <g id="line2d_10">
      <g>
       <use xlink:href="#m38397369a3" x="214.048444" y="173.52" style="stroke: #000000; stroke-width: 0.8"/>
      </g>
     </g>
     <g id="text_5">
      <!-- 4000 -->
      <g transform="translate(201.323444 188.118438) scale(0.1 -0.1)">
       <defs>
        <path id="DejaVuSans-34" d="M 2419 4116 
L 825 1625 
L 2419 1625 
L 2419 4116 
z
M 2253 4666 
L 3047 4666 
L 3047 1625 
L 3713 1625 
L 3713 1100 
L 3047 1100 
L 3047 0 
L 2419 0 
L 2419 1100 
L 313 1100 
L 313 1709 
L 2253 4666 
z
" transform="scale(0.015625)"/>
       </defs>
       <use xlink:href="#DejaVuSans-34"/>
       <use xlink:href="#DejaVuSans-30" transform="translate(63.623047 0)"/>
       <use xlink:href="#DejaVuSans-30" transform="translate(127.246094 0)"/>
       <use xlink:href="#DejaVuSans-30" transform="translate(190.869141 0)"/>
      </g>
     </g>
    </g>
    <g id="xtick_6">
     <g id="line2d_11">
      <path d="M 254.149055 173.52 
L 254.149055 7.2 
" clip-path="url(#p7b3f997ad4)" style="fill: none; stroke: #b0b0b0; stroke-width: 0.8; stroke-linecap: square"/>
     </g>
     <g id="line2d_12">
      <g>
       <use xlink:href="#m38397369a3" x="254.149055" y="173.52" style="stroke: #000000; stroke-width: 0.8"/>
      </g>
     </g>
     <g id="text_6">
      <!-- 5000 -->
      <g transform="translate(241.424055 188.118438) scale(0.1 -0.1)">
       <defs>
        <path id="DejaVuSans-35" d="M 691 4666 
L 3169 4666 
L 3169 4134 
L 1269 4134 
L 1269 2991 
Q 1406 3038 1543 3061 
Q 1681 3084 1819 3084 
Q 2600 3084 3056 2656 
Q 3513 2228 3513 1497 
Q 3513 744 3044 326 
Q 2575 -91 1722 -91 
Q 1428 -91 1123 -41 
Q 819 9 494 109 
L 494 744 
Q 775 591 1075 516 
Q 1375 441 1709 441 
Q 2250 441 2565 725 
Q 2881 1009 2881 1497 
Q 2881 1984 2565 2268 
Q 2250 2553 1709 2553 
Q 1456 2553 1204 2497 
Q 953 2441 691 2322 
L 691 4666 
z
" transform="scale(0.015625)"/>
       </defs>
       <use xlink:href="#DejaVuSans-35"/>
       <use xlink:href="#DejaVuSans-30" transform="translate(63.623047 0)"/>
       <use xlink:href="#DejaVuSans-30" transform="translate(127.246094 0)"/>
       <use xlink:href="#DejaVuSans-30" transform="translate(190.869141 0)"/>
      </g>
     </g>
    </g>
    <g id="xtick_7">
     <g id="line2d_13">
      <path d="M 294.249665 173.52 
L 294.249665 7.2 
" clip-path="url(#p7b3f997ad4)" style="fill: none; stroke: #b0b0b0; stroke-width: 0.8; stroke-linecap: square"/>
     </g>
     <g id="line2d_14">
      <g>
       <use xlink:href="#m38397369a3" x="294.249665" y="173.52" style="stroke: #000000; stroke-width: 0.8"/>
      </g>
     </g>
     <g id="text_7">
      <!-- 6000 -->
      <g transform="translate(281.524665 188.118438) scale(0.1 -0.1)">
       <defs>
        <path id="DejaVuSans-36" d="M 2113 2584 
Q 1688 2584 1439 2293 
Q 1191 2003 1191 1497 
Q 1191 994 1439 701 
Q 1688 409 2113 409 
Q 2538 409 2786 701 
Q 3034 994 3034 1497 
Q 3034 2003 2786 2293 
Q 2538 2584 2113 2584 
z
M 3366 4563 
L 3366 3988 
Q 3128 4100 2886 4159 
Q 2644 4219 2406 4219 
Q 1781 4219 1451 3797 
Q 1122 3375 1075 2522 
Q 1259 2794 1537 2939 
Q 1816 3084 2150 3084 
Q 2853 3084 3261 2657 
Q 3669 2231 3669 1497 
Q 3669 778 3244 343 
Q 2819 -91 2113 -91 
Q 1303 -91 875 529 
Q 447 1150 447 2328 
Q 447 3434 972 4092 
Q 1497 4750 2381 4750 
Q 2619 4750 2861 4703 
Q 3103 4656 3366 4563 
z
" transform="scale(0.015625)"/>
       </defs>
       <use xlink:href="#DejaVuSans-36"/>
       <use xlink:href="#DejaVuSans-30" transform="translate(63.623047 0)"/>
       <use xlink:href="#DejaVuSans-30" transform="translate(127.246094 0)"/>
       <use xlink:href="#DejaVuSans-30" transform="translate(190.869141 0)"/>
      </g>
     </g>
    </g>
    <g id="xtick_8">
     <g id="line2d_15">
      <path d="M 334.350276 173.52 
L 334.350276 7.2 
" clip-path="url(#p7b3f997ad4)" style="fill: none; stroke: #b0b0b0; stroke-width: 0.8; stroke-linecap: square"/>
     </g>
     <g id="line2d_16">
      <g>
       <use xlink:href="#m38397369a3" x="334.350276" y="173.52" style="stroke: #000000; stroke-width: 0.8"/>
      </g>
     </g>
     <g id="text_8">
      <!-- 7000 -->
      <g transform="translate(321.625276 188.118438) scale(0.1 -0.1)">
       <defs>
        <path id="DejaVuSans-37" d="M 525 4666 
L 3525 4666 
L 3525 4397 
L 1831 0 
L 1172 0 
L 2766 4134 
L 525 4134 
L 525 4666 
z
" transform="scale(0.015625)"/>
       </defs>
       <use xlink:href="#DejaVuSans-37"/>
       <use xlink:href="#DejaVuSans-30" transform="translate(63.623047 0)"/>
       <use xlink:href="#DejaVuSans-30" transform="translate(127.246094 0)"/>
       <use xlink:href="#DejaVuSans-30" transform="translate(190.869141 0)"/>
      </g>
     </g>
    </g>
    <g id="text_9">
     <!-- Epochs -->
     <g transform="translate(178.047443 201.796563) scale(0.1 -0.1)">
      <defs>
       <path id="DejaVuSans-45" d="M 628 4666 
L 3578 4666 
L 3578 4134 
L 1259 4134 
L 1259 2753 
L 3481 2753 
L 3481 2222 
L 1259 2222 
L 1259 531 
L 3634 531 
L 3634 0 
L 628 0 
L 628 4666 
z
" transform="scale(0.015625)"/>
       <path id="DejaVuSans-70" d="M 1159 525 
L 1159 -1331 
L 581 -1331 
L 581 3500 
L 1159 3500 
L 1159 2969 
Q 1341 3281 1617 3432 
Q 1894 3584 2278 3584 
Q 2916 3584 3314 3078 
Q 3713 2572 3713 1747 
Q 3713 922 3314 415 
Q 2916 -91 2278 -91 
Q 1894 -91 1617 61 
Q 1341 213 1159 525 
z
M 3116 1747 
Q 3116 2381 2855 2742 
Q 2594 3103 2138 3103 
Q 1681 3103 1420 2742 
Q 1159 2381 1159 1747 
Q 1159 1113 1420 752 
Q 1681 391 2138 391 
Q 2594 391 2855 752 
Q 3116 1113 3116 1747 
z
" transform="scale(0.015625)"/>
       <path id="DejaVuSans-6f" d="M 1959 3097 
Q 1497 3097 1228 2736 
Q 959 2375 959 1747 
Q 959 1119 1226 758 
Q 1494 397 1959 397 
Q 2419 397 2687 759 
Q 2956 1122 2956 1747 
Q 2956 2369 2687 2733 
Q 2419 3097 1959 3097 
z
M 1959 3584 
Q 2709 3584 3137 3096 
Q 3566 2609 3566 1747 
Q 3566 888 3137 398 
Q 2709 -91 1959 -91 
Q 1206 -91 779 398 
Q 353 888 353 1747 
Q 353 2609 779 3096 
Q 1206 3584 1959 3584 
z
" transform="scale(0.015625)"/>
       <path id="DejaVuSans-63" d="M 3122 3366 
L 3122 2828 
Q 2878 2963 2633 3030 
Q 2388 3097 2138 3097 
Q 1578 3097 1268 2742 
Q 959 2388 959 1747 
Q 959 1106 1268 751 
Q 1578 397 2138 397 
Q 2388 397 2633 464 
Q 2878 531 3122 666 
L 3122 134 
Q 2881 22 2623 -34 
Q 2366 -91 2075 -91 
Q 1284 -91 818 406 
Q 353 903 353 1747 
Q 353 2603 823 3093 
Q 1294 3584 2113 3584 
Q 2378 3584 2631 3529 
Q 2884 3475 3122 3366 
z
" transform="scale(0.015625)"/>
       <path id="DejaVuSans-68" d="M 3513 2113 
L 3513 0 
L 2938 0 
L 2938 2094 
Q 2938 2591 2744 2837 
Q 2550 3084 2163 3084 
Q 1697 3084 1428 2787 
Q 1159 2491 1159 1978 
L 1159 0 
L 581 0 
L 581 4863 
L 1159 4863 
L 1159 2956 
Q 1366 3272 1645 3428 
Q 1925 3584 2291 3584 
Q 2894 3584 3203 3211 
Q 3513 2838 3513 2113 
z
" transform="scale(0.015625)"/>
       <path id="DejaVuSans-73" d="M 2834 3397 
L 2834 2853 
Q 2591 2978 2328 3040 
Q 2066 3103 1784 3103 
Q 1356 3103 1142 2972 
Q 928 2841 928 2578 
Q 928 2378 1081 2264 
Q 1234 2150 1697 2047 
L 1894 2003 
Q 2506 1872 2764 1633 
Q 3022 1394 3022 966 
Q 3022 478 2636 193 
Q 2250 -91 1575 -91 
Q 1294 -91 989 -36 
Q 684 19 347 128 
L 347 722 
Q 666 556 975 473 
Q 1284 391 1588 391 
Q 1994 391 2212 530 
Q 2431 669 2431 922 
Q 2431 1156 2273 1281 
Q 2116 1406 1581 1522 
L 1381 1569 
Q 847 1681 609 1914 
Q 372 2147 372 2553 
Q 372 3047 722 3315 
Q 1072 3584 1716 3584 
Q 2034 3584 2315 3537 
Q 2597 3491 2834 3397 
z
" transform="scale(0.015625)"/>
      </defs>
      <use xlink:href="#DejaVuSans-45"/>
      <use xlink:href="#DejaVuSans-70" transform="translate(63.183594 0)"/>
      <use xlink:href="#DejaVuSans-6f" transform="translate(126.660156 0)"/>
      <use xlink:href="#DejaVuSans-63" transform="translate(187.841797 0)"/>
      <use xlink:href="#DejaVuSans-68" transform="translate(242.822266 0)"/>
      <use xlink:href="#DejaVuSans-73" transform="translate(306.201172 0)"/>
     </g>
    </g>
   </g>
   <g id="matplotlib.axis_2">
    <g id="ytick_1">
     <g id="line2d_17">
      <path d="M 43.78125 169.997819 
L 348.144886 169.997819 
" clip-path="url(#p7b3f997ad4)" style="fill: none; stroke: #b0b0b0; stroke-width: 0.8; stroke-linecap: square"/>
     </g>
     <g id="line2d_18">
      <defs>
       <path id="m6e640e2702" d="M 0 0 
L -3.5 0 
" style="stroke: #000000; stroke-width: 0.8"/>
      </defs>
      <g>
       <use xlink:href="#m6e640e2702" x="43.78125" y="169.997819" style="stroke: #000000; stroke-width: 0.8"/>
      </g>
     </g>
     <g id="text_10">
      <!-- 0.0 -->
      <g transform="translate(20.878125 173.797037) scale(0.1 -0.1)">
       <defs>
        <path id="DejaVuSans-2e" d="M 684 794 
L 1344 794 
L 1344 0 
L 684 0 
L 684 794 
z
" transform="scale(0.015625)"/>
       </defs>
       <use xlink:href="#DejaVuSans-30"/>
       <use xlink:href="#DejaVuSans-2e" transform="translate(63.623047 0)"/>
       <use xlink:href="#DejaVuSans-30" transform="translate(95.410156 0)"/>
      </g>
     </g>
    </g>
    <g id="ytick_2">
     <g id="line2d_19">
      <path d="M 43.78125 147.568334 
L 348.144886 147.568334 
" clip-path="url(#p7b3f997ad4)" style="fill: none; stroke: #b0b0b0; stroke-width: 0.8; stroke-linecap: square"/>
     </g>
     <g id="line2d_20">
      <g>
       <use xlink:href="#m6e640e2702" x="43.78125" y="147.568334" style="stroke: #000000; stroke-width: 0.8"/>
      </g>
     </g>
     <g id="text_11">
      <!-- 0.5 -->
      <g transform="translate(20.878125 151.367553) scale(0.1 -0.1)">
       <use xlink:href="#DejaVuSans-30"/>
       <use xlink:href="#DejaVuSans-2e" transform="translate(63.623047 0)"/>
       <use xlink:href="#DejaVuSans-35" transform="translate(95.410156 0)"/>
      </g>
     </g>
    </g>
    <g id="ytick_3">
     <g id="line2d_21">
      <path d="M 43.78125 125.13885 
L 348.144886 125.13885 
" clip-path="url(#p7b3f997ad4)" style="fill: none; stroke: #b0b0b0; stroke-width: 0.8; stroke-linecap: square"/>
     </g>
     <g id="line2d_22">
      <g>
       <use xlink:href="#m6e640e2702" x="43.78125" y="125.13885" style="stroke: #000000; stroke-width: 0.8"/>
      </g>
     </g>
     <g id="text_12">
      <!-- 1.0 -->
      <g transform="translate(20.878125 128.938069) scale(0.1 -0.1)">
       <use xlink:href="#DejaVuSans-31"/>
       <use xlink:href="#DejaVuSans-2e" transform="translate(63.623047 0)"/>
       <use xlink:href="#DejaVuSans-30" transform="translate(95.410156 0)"/>
      </g>
     </g>
    </g>
    <g id="ytick_4">
     <g id="line2d_23">
      <path d="M 43.78125 102.709366 
L 348.144886 102.709366 
" clip-path="url(#p7b3f997ad4)" style="fill: none; stroke: #b0b0b0; stroke-width: 0.8; stroke-linecap: square"/>
     </g>
     <g id="line2d_24">
      <g>
       <use xlink:href="#m6e640e2702" x="43.78125" y="102.709366" style="stroke: #000000; stroke-width: 0.8"/>
      </g>
     </g>
     <g id="text_13">
      <!-- 1.5 -->
      <g transform="translate(20.878125 106.508584) scale(0.1 -0.1)">
       <use xlink:href="#DejaVuSans-31"/>
       <use xlink:href="#DejaVuSans-2e" transform="translate(63.623047 0)"/>
       <use xlink:href="#DejaVuSans-35" transform="translate(95.410156 0)"/>
      </g>
     </g>
    </g>
    <g id="ytick_5">
     <g id="line2d_25">
      <path d="M 43.78125 80.279881 
L 348.144886 80.279881 
" clip-path="url(#p7b3f997ad4)" style="fill: none; stroke: #b0b0b0; stroke-width: 0.8; stroke-linecap: square"/>
     </g>
     <g id="line2d_26">
      <g>
       <use xlink:href="#m6e640e2702" x="43.78125" y="80.279881" style="stroke: #000000; stroke-width: 0.8"/>
      </g>
     </g>
     <g id="text_14">
      <!-- 2.0 -->
      <g transform="translate(20.878125 84.0791) scale(0.1 -0.1)">
       <use xlink:href="#DejaVuSans-32"/>
       <use xlink:href="#DejaVuSans-2e" transform="translate(63.623047 0)"/>
       <use xlink:href="#DejaVuSans-30" transform="translate(95.410156 0)"/>
      </g>
     </g>
    </g>
    <g id="ytick_6">
     <g id="line2d_27">
      <path d="M 43.78125 57.850397 
L 348.144886 57.850397 
" clip-path="url(#p7b3f997ad4)" style="fill: none; stroke: #b0b0b0; stroke-width: 0.8; stroke-linecap: square"/>
     </g>
     <g id="line2d_28">
      <g>
       <use xlink:href="#m6e640e2702" x="43.78125" y="57.850397" style="stroke: #000000; stroke-width: 0.8"/>
      </g>
     </g>
     <g id="text_15">
      <!-- 2.5 -->
      <g transform="translate(20.878125 61.649616) scale(0.1 -0.1)">
       <use xlink:href="#DejaVuSans-32"/>
       <use xlink:href="#DejaVuSans-2e" transform="translate(63.623047 0)"/>
       <use xlink:href="#DejaVuSans-35" transform="translate(95.410156 0)"/>
      </g>
     </g>
    </g>
    <g id="ytick_7">
     <g id="line2d_29">
      <path d="M 43.78125 35.420913 
L 348.144886 35.420913 
" clip-path="url(#p7b3f997ad4)" style="fill: none; stroke: #b0b0b0; stroke-width: 0.8; stroke-linecap: square"/>
     </g>
     <g id="line2d_30">
      <g>
       <use xlink:href="#m6e640e2702" x="43.78125" y="35.420913" style="stroke: #000000; stroke-width: 0.8"/>
      </g>
     </g>
     <g id="text_16">
      <!-- 3.0 -->
      <g transform="translate(20.878125 39.220131) scale(0.1 -0.1)">
       <use xlink:href="#DejaVuSans-33"/>
       <use xlink:href="#DejaVuSans-2e" transform="translate(63.623047 0)"/>
       <use xlink:href="#DejaVuSans-30" transform="translate(95.410156 0)"/>
      </g>
     </g>
    </g>
    <g id="ytick_8">
     <g id="line2d_31">
      <path d="M 43.78125 12.991428 
L 348.144886 12.991428 
" clip-path="url(#p7b3f997ad4)" style="fill: none; stroke: #b0b0b0; stroke-width: 0.8; stroke-linecap: square"/>
     </g>
     <g id="line2d_32">
      <g>
       <use xlink:href="#m6e640e2702" x="43.78125" y="12.991428" style="stroke: #000000; stroke-width: 0.8"/>
      </g>
     </g>
     <g id="text_17">
      <!-- 3.5 -->
      <g transform="translate(20.878125 16.790647) scale(0.1 -0.1)">
       <use xlink:href="#DejaVuSans-33"/>
       <use xlink:href="#DejaVuSans-2e" transform="translate(63.623047 0)"/>
       <use xlink:href="#DejaVuSans-35" transform="translate(95.410156 0)"/>
      </g>
     </g>
    </g>
    <g id="text_18">
     <!-- Generalized mutual information -->
     <g transform="translate(14.798438 169.985) rotate(-90) scale(0.1 -0.1)">
      <defs>
       <path id="DejaVuSans-47" d="M 3809 666 
L 3809 1919 
L 2778 1919 
L 2778 2438 
L 4434 2438 
L 4434 434 
Q 4069 175 3628 42 
Q 3188 -91 2688 -91 
Q 1594 -91 976 548 
Q 359 1188 359 2328 
Q 359 3472 976 4111 
Q 1594 4750 2688 4750 
Q 3144 4750 3555 4637 
Q 3966 4525 4313 4306 
L 4313 3634 
Q 3963 3931 3569 4081 
Q 3175 4231 2741 4231 
Q 1884 4231 1454 3753 
Q 1025 3275 1025 2328 
Q 1025 1384 1454 906 
Q 1884 428 2741 428 
Q 3075 428 3337 486 
Q 3600 544 3809 666 
z
" transform="scale(0.015625)"/>
       <path id="DejaVuSans-65" d="M 3597 1894 
L 3597 1613 
L 953 1613 
Q 991 1019 1311 708 
Q 1631 397 2203 397 
Q 2534 397 2845 478 
Q 3156 559 3463 722 
L 3463 178 
Q 3153 47 2828 -22 
Q 2503 -91 2169 -91 
Q 1331 -91 842 396 
Q 353 884 353 1716 
Q 353 2575 817 3079 
Q 1281 3584 2069 3584 
Q 2775 3584 3186 3129 
Q 3597 2675 3597 1894 
z
M 3022 2063 
Q 3016 2534 2758 2815 
Q 2500 3097 2075 3097 
Q 1594 3097 1305 2825 
Q 1016 2553 972 2059 
L 3022 2063 
z
" transform="scale(0.015625)"/>
       <path id="DejaVuSans-6e" d="M 3513 2113 
L 3513 0 
L 2938 0 
L 2938 2094 
Q 2938 2591 2744 2837 
Q 2550 3084 2163 3084 
Q 1697 3084 1428 2787 
Q 1159 2491 1159 1978 
L 1159 0 
L 581 0 
L 581 3500 
L 1159 3500 
L 1159 2956 
Q 1366 3272 1645 3428 
Q 1925 3584 2291 3584 
Q 2894 3584 3203 3211 
Q 3513 2838 3513 2113 
z
" transform="scale(0.015625)"/>
       <path id="DejaVuSans-72" d="M 2631 2963 
Q 2534 3019 2420 3045 
Q 2306 3072 2169 3072 
Q 1681 3072 1420 2755 
Q 1159 2438 1159 1844 
L 1159 0 
L 581 0 
L 581 3500 
L 1159 3500 
L 1159 2956 
Q 1341 3275 1631 3429 
Q 1922 3584 2338 3584 
Q 2397 3584 2469 3576 
Q 2541 3569 2628 3553 
L 2631 2963 
z
" transform="scale(0.015625)"/>
       <path id="DejaVuSans-61" d="M 2194 1759 
Q 1497 1759 1228 1600 
Q 959 1441 959 1056 
Q 959 750 1161 570 
Q 1363 391 1709 391 
Q 2188 391 2477 730 
Q 2766 1069 2766 1631 
L 2766 1759 
L 2194 1759 
z
M 3341 1997 
L 3341 0 
L 2766 0 
L 2766 531 
Q 2569 213 2275 61 
Q 1981 -91 1556 -91 
Q 1019 -91 701 211 
Q 384 513 384 1019 
Q 384 1609 779 1909 
Q 1175 2209 1959 2209 
L 2766 2209 
L 2766 2266 
Q 2766 2663 2505 2880 
Q 2244 3097 1772 3097 
Q 1472 3097 1187 3025 
Q 903 2953 641 2809 
L 641 3341 
Q 956 3463 1253 3523 
Q 1550 3584 1831 3584 
Q 2591 3584 2966 3190 
Q 3341 2797 3341 1997 
z
" transform="scale(0.015625)"/>
       <path id="DejaVuSans-6c" d="M 603 4863 
L 1178 4863 
L 1178 0 
L 603 0 
L 603 4863 
z
" transform="scale(0.015625)"/>
       <path id="DejaVuSans-69" d="M 603 3500 
L 1178 3500 
L 1178 0 
L 603 0 
L 603 3500 
z
M 603 4863 
L 1178 4863 
L 1178 4134 
L 603 4134 
L 603 4863 
z
" transform="scale(0.015625)"/>
       <path id="DejaVuSans-7a" d="M 353 3500 
L 3084 3500 
L 3084 2975 
L 922 459 
L 3084 459 
L 3084 0 
L 275 0 
L 275 525 
L 2438 3041 
L 353 3041 
L 353 3500 
z
" transform="scale(0.015625)"/>
       <path id="DejaVuSans-64" d="M 2906 2969 
L 2906 4863 
L 3481 4863 
L 3481 0 
L 2906 0 
L 2906 525 
Q 2725 213 2448 61 
Q 2172 -91 1784 -91 
Q 1150 -91 751 415 
Q 353 922 353 1747 
Q 353 2572 751 3078 
Q 1150 3584 1784 3584 
Q 2172 3584 2448 3432 
Q 2725 3281 2906 2969 
z
M 947 1747 
Q 947 1113 1208 752 
Q 1469 391 1925 391 
Q 2381 391 2643 752 
Q 2906 1113 2906 1747 
Q 2906 2381 2643 2742 
Q 2381 3103 1925 3103 
Q 1469 3103 1208 2742 
Q 947 2381 947 1747 
z
" transform="scale(0.015625)"/>
       <path id="DejaVuSans-20" transform="scale(0.015625)"/>
       <path id="DejaVuSans-6d" d="M 3328 2828 
Q 3544 3216 3844 3400 
Q 4144 3584 4550 3584 
Q 5097 3584 5394 3201 
Q 5691 2819 5691 2113 
L 5691 0 
L 5113 0 
L 5113 2094 
Q 5113 2597 4934 2840 
Q 4756 3084 4391 3084 
Q 3944 3084 3684 2787 
Q 3425 2491 3425 1978 
L 3425 0 
L 2847 0 
L 2847 2094 
Q 2847 2600 2669 2842 
Q 2491 3084 2119 3084 
Q 1678 3084 1418 2786 
Q 1159 2488 1159 1978 
L 1159 0 
L 581 0 
L 581 3500 
L 1159 3500 
L 1159 2956 
Q 1356 3278 1631 3431 
Q 1906 3584 2284 3584 
Q 2666 3584 2933 3390 
Q 3200 3197 3328 2828 
z
" transform="scale(0.015625)"/>
       <path id="DejaVuSans-75" d="M 544 1381 
L 544 3500 
L 1119 3500 
L 1119 1403 
Q 1119 906 1312 657 
Q 1506 409 1894 409 
Q 2359 409 2629 706 
Q 2900 1003 2900 1516 
L 2900 3500 
L 3475 3500 
L 3475 0 
L 2900 0 
L 2900 538 
Q 2691 219 2414 64 
Q 2138 -91 1772 -91 
Q 1169 -91 856 284 
Q 544 659 544 1381 
z
M 1991 3584 
L 1991 3584 
z
" transform="scale(0.015625)"/>
       <path id="DejaVuSans-74" d="M 1172 4494 
L 1172 3500 
L 2356 3500 
L 2356 3053 
L 1172 3053 
L 1172 1153 
Q 1172 725 1289 603 
Q 1406 481 1766 481 
L 2356 481 
L 2356 0 
L 1766 0 
Q 1100 0 847 248 
Q 594 497 594 1153 
L 594 3053 
L 172 3053 
L 172 3500 
L 594 3500 
L 594 4494 
L 1172 4494 
z
" transform="scale(0.015625)"/>
       <path id="DejaVuSans-66" d="M 2375 4863 
L 2375 4384 
L 1825 4384 
Q 1516 4384 1395 4259 
Q 1275 4134 1275 3809 
L 1275 3500 
L 2222 3500 
L 2222 3053 
L 1275 3053 
L 1275 0 
L 697 0 
L 697 3053 
L 147 3053 
L 147 3500 
L 697 3500 
L 697 3744 
Q 697 4328 969 4595 
Q 1241 4863 1831 4863 
L 2375 4863 
z
" transform="scale(0.015625)"/>
      </defs>
      <use xlink:href="#DejaVuSans-47"/>
      <use xlink:href="#DejaVuSans-65" transform="translate(77.490234 0)"/>
      <use xlink:href="#DejaVuSans-6e" transform="translate(139.013672 0)"/>
      <use xlink:href="#DejaVuSans-65" transform="translate(202.392578 0)"/>
      <use xlink:href="#DejaVuSans-72" transform="translate(263.916016 0)"/>
      <use xlink:href="#DejaVuSans-61" transform="translate(305.029297 0)"/>
      <use xlink:href="#DejaVuSans-6c" transform="translate(366.308594 0)"/>
      <use xlink:href="#DejaVuSans-69" transform="translate(394.091797 0)"/>
      <use xlink:href="#DejaVuSans-7a" transform="translate(421.875 0)"/>
      <use xlink:href="#DejaVuSans-65" transform="translate(474.365234 0)"/>
      <use xlink:href="#DejaVuSans-64" transform="translate(535.888672 0)"/>
      <use xlink:href="#DejaVuSans-20" transform="translate(599.365234 0)"/>
      <use xlink:href="#DejaVuSans-6d" transform="translate(631.152344 0)"/>
      <use xlink:href="#DejaVuSans-75" transform="translate(728.564453 0)"/>
      <use xlink:href="#DejaVuSans-74" transform="translate(791.943359 0)"/>
      <use xlink:href="#DejaVuSans-75" transform="translate(831.152344 0)"/>
      <use xlink:href="#DejaVuSans-61" transform="translate(894.53125 0)"/>
      <use xlink:href="#DejaVuSans-6c" transform="translate(955.810547 0)"/>
      <use xlink:href="#DejaVuSans-20" transform="translate(983.59375 0)"/>
      <use xlink:href="#DejaVuSans-69" transform="translate(1015.380859 0)"/>
      <use xlink:href="#DejaVuSans-6e" transform="translate(1043.164062 0)"/>
      <use xlink:href="#DejaVuSans-66" transform="translate(1106.542969 0)"/>
      <use xlink:href="#DejaVuSans-6f" transform="translate(1141.748047 0)"/>
      <use xlink:href="#DejaVuSans-72" transform="translate(1202.929688 0)"/>
      <use xlink:href="#DejaVuSans-6d" transform="translate(1242.292969 0)"/>
      <use xlink:href="#DejaVuSans-61" transform="translate(1339.705078 0)"/>
      <use xlink:href="#DejaVuSans-74" transform="translate(1400.984375 0)"/>
      <use xlink:href="#DejaVuSans-69" transform="translate(1440.193359 0)"/>
      <use xlink:href="#DejaVuSans-6f" transform="translate(1467.976562 0)"/>
      <use xlink:href="#DejaVuSans-6e" transform="translate(1529.158203 0)"/>
     </g>
    </g>
   </g>
   <g id="line2d_33">
    <path d="M 57.615961 145.464046 
L 61.626022 121.919121 
L 65.636083 126.670769 
L 69.646144 113.175913 
L 73.656205 108.194843 
L 77.666266 97.468934 
L 81.676327 103.76389 
L 85.686388 98.968721 
L 89.696449 90.742952 
L 93.706511 88.437879 
L 97.716572 82.03847 
L 101.726633 86.275296 
L 105.736694 82.534507 
L 109.746755 80.437083 
L 113.756816 81.354934 
L 117.766877 82.166971 
L 121.776938 79.544688 
L 125.786999 81.18283 
L 129.79706 73.081294 
L 133.807121 74.589528 
L 137.817182 74.414512 
L 141.827244 71.943836 
L 145.837305 70.794131 
L 149.847366 71.551693 
L 153.857427 67.070779 
L 157.867488 67.812189 
L 161.877549 68.832037 
L 165.88761 68.868664 
L 169.897671 69.194107 
L 173.907732 70.155883 
L 177.917793 69.601388 
L 181.927854 69.381128 
L 185.937915 70.229077 
L 189.947977 69.378064 
L 193.958038 69.041135 
L 197.968099 70.11173 
L 201.97816 66.657472 
L 205.988221 67.565087 
L 209.998282 66.655973 
L 214.008343 65.774856 
L 218.018404 67.334985 
L 222.028465 68.049181 
L 226.038526 63.46953 
L 230.048587 65.919979 
L 234.058648 65.921305 
L 238.06871 66.12331 
L 242.078771 69.200026 
L 246.088832 65.7793 
L 250.098893 66.199229 
L 254.108954 67.367753 
L 258.119015 67.362743 
L 262.129076 66.761296 
L 266.139137 68.906694 
L 270.149198 68.682127 
L 274.159259 66.746745 
L 278.16932 69.8403 
L 282.179382 66.901484 
L 286.189443 66.445508 
L 290.199504 66.186259 
L 294.209565 66.858485 
L 298.219626 67.19942 
L 302.229687 64.90364 
L 306.239748 66.109574 
L 310.249809 67.09931 
L 314.25987 67.006386 
L 318.269931 66.167821 
L 322.279992 67.147326 
L 326.290053 66.831133 
L 330.300115 69.57793 
L 334.310176 68.518969 
" clip-path="url(#p7b3f997ad4)" style="fill: none; stroke: #b81420; stroke-width: 2; stroke-linecap: square"/>
   </g>
   <g id="line2d_34">
    <defs>
     <path id="ma7a7e9e6fc" d="M 0 -3 
L -0.673542 -0.927051 
L -2.85317 -0.927051 
L -1.089814 0.354102 
L -1.763356 2.427051 
L -0 1.145898 
L 1.763356 2.427051 
L 1.089814 0.354102 
L 2.85317 -0.927051 
L 0.673542 -0.927051 
z
" style="stroke: #b81420; stroke-linejoin: bevel"/>
    </defs>
    <g clip-path="url(#p7b3f997ad4)">
     <use xlink:href="#ma7a7e9e6fc" x="57.615961" y="145.464046" style="fill: #b81420; stroke: #b81420; stroke-linejoin: bevel"/>
     <use xlink:href="#ma7a7e9e6fc" x="61.626022" y="121.919121" style="fill: #b81420; stroke: #b81420; stroke-linejoin: bevel"/>
     <use xlink:href="#ma7a7e9e6fc" x="65.636083" y="126.670769" style="fill: #b81420; stroke: #b81420; stroke-linejoin: bevel"/>
     <use xlink:href="#ma7a7e9e6fc" x="69.646144" y="113.175913" style="fill: #b81420; stroke: #b81420; stroke-linejoin: bevel"/>
     <use xlink:href="#ma7a7e9e6fc" x="73.656205" y="108.194843" style="fill: #b81420; stroke: #b81420; stroke-linejoin: bevel"/>
     <use xlink:href="#ma7a7e9e6fc" x="77.666266" y="97.468934" style="fill: #b81420; stroke: #b81420; stroke-linejoin: bevel"/>
     <use xlink:href="#ma7a7e9e6fc" x="81.676327" y="103.76389" style="fill: #b81420; stroke: #b81420; stroke-linejoin: bevel"/>
     <use xlink:href="#ma7a7e9e6fc" x="85.686388" y="98.968721" style="fill: #b81420; stroke: #b81420; stroke-linejoin: bevel"/>
     <use xlink:href="#ma7a7e9e6fc" x="89.696449" y="90.742952" style="fill: #b81420; stroke: #b81420; stroke-linejoin: bevel"/>
     <use xlink:href="#ma7a7e9e6fc" x="93.706511" y="88.437879" style="fill: #b81420; stroke: #b81420; stroke-linejoin: bevel"/>
     <use xlink:href="#ma7a7e9e6fc" x="97.716572" y="82.03847" style="fill: #b81420; stroke: #b81420; stroke-linejoin: bevel"/>
     <use xlink:href="#ma7a7e9e6fc" x="101.726633" y="86.275296" style="fill: #b81420; stroke: #b81420; stroke-linejoin: bevel"/>
     <use xlink:href="#ma7a7e9e6fc" x="105.736694" y="82.534507" style="fill: #b81420; stroke: #b81420; stroke-linejoin: bevel"/>
     <use xlink:href="#ma7a7e9e6fc" x="109.746755" y="80.437083" style="fill: #b81420; stroke: #b81420; stroke-linejoin: bevel"/>
     <use xlink:href="#ma7a7e9e6fc" x="113.756816" y="81.354934" style="fill: #b81420; stroke: #b81420; stroke-linejoin: bevel"/>
     <use xlink:href="#ma7a7e9e6fc" x="117.766877" y="82.166971" style="fill: #b81420; stroke: #b81420; stroke-linejoin: bevel"/>
     <use xlink:href="#ma7a7e9e6fc" x="121.776938" y="79.544688" style="fill: #b81420; stroke: #b81420; stroke-linejoin: bevel"/>
     <use xlink:href="#ma7a7e9e6fc" x="125.786999" y="81.18283" style="fill: #b81420; stroke: #b81420; stroke-linejoin: bevel"/>
     <use xlink:href="#ma7a7e9e6fc" x="129.79706" y="73.081294" style="fill: #b81420; stroke: #b81420; stroke-linejoin: bevel"/>
     <use xlink:href="#ma7a7e9e6fc" x="133.807121" y="74.589528" style="fill: #b81420; stroke: #b81420; stroke-linejoin: bevel"/>
     <use xlink:href="#ma7a7e9e6fc" x="137.817182" y="74.414512" style="fill: #b81420; stroke: #b81420; stroke-linejoin: bevel"/>
     <use xlink:href="#ma7a7e9e6fc" x="141.827244" y="71.943836" style="fill: #b81420; stroke: #b81420; stroke-linejoin: bevel"/>
     <use xlink:href="#ma7a7e9e6fc" x="145.837305" y="70.794131" style="fill: #b81420; stroke: #b81420; stroke-linejoin: bevel"/>
     <use xlink:href="#ma7a7e9e6fc" x="149.847366" y="71.551693" style="fill: #b81420; stroke: #b81420; stroke-linejoin: bevel"/>
     <use xlink:href="#ma7a7e9e6fc" x="153.857427" y="67.070779" style="fill: #b81420; stroke: #b81420; stroke-linejoin: bevel"/>
     <use xlink:href="#ma7a7e9e6fc" x="157.867488" y="67.812189" style="fill: #b81420; stroke: #b81420; stroke-linejoin: bevel"/>
     <use xlink:href="#ma7a7e9e6fc" x="161.877549" y="68.832037" style="fill: #b81420; stroke: #b81420; stroke-linejoin: bevel"/>
     <use xlink:href="#ma7a7e9e6fc" x="165.88761" y="68.868664" style="fill: #b81420; stroke: #b81420; stroke-linejoin: bevel"/>
     <use xlink:href="#ma7a7e9e6fc" x="169.897671" y="69.194107" style="fill: #b81420; stroke: #b81420; stroke-linejoin: bevel"/>
     <use xlink:href="#ma7a7e9e6fc" x="173.907732" y="70.155883" style="fill: #b81420; stroke: #b81420; stroke-linejoin: bevel"/>
     <use xlink:href="#ma7a7e9e6fc" x="177.917793" y="69.601388" style="fill: #b81420; stroke: #b81420; stroke-linejoin: bevel"/>
     <use xlink:href="#ma7a7e9e6fc" x="181.927854" y="69.381128" style="fill: #b81420; stroke: #b81420; stroke-linejoin: bevel"/>
     <use xlink:href="#ma7a7e9e6fc" x="185.937915" y="70.229077" style="fill: #b81420; stroke: #b81420; stroke-linejoin: bevel"/>
     <use xlink:href="#ma7a7e9e6fc" x="189.947977" y="69.378064" style="fill: #b81420; stroke: #b81420; stroke-linejoin: bevel"/>
     <use xlink:href="#ma7a7e9e6fc" x="193.958038" y="69.041135" style="fill: #b81420; stroke: #b81420; stroke-linejoin: bevel"/>
     <use xlink:href="#ma7a7e9e6fc" x="197.968099" y="70.11173" style="fill: #b81420; stroke: #b81420; stroke-linejoin: bevel"/>
     <use xlink:href="#ma7a7e9e6fc" x="201.97816" y="66.657472" style="fill: #b81420; stroke: #b81420; stroke-linejoin: bevel"/>
     <use xlink:href="#ma7a7e9e6fc" x="205.988221" y="67.565087" style="fill: #b81420; stroke: #b81420; stroke-linejoin: bevel"/>
     <use xlink:href="#ma7a7e9e6fc" x="209.998282" y="66.655973" style="fill: #b81420; stroke: #b81420; stroke-linejoin: bevel"/>
     <use xlink:href="#ma7a7e9e6fc" x="214.008343" y="65.774856" style="fill: #b81420; stroke: #b81420; stroke-linejoin: bevel"/>
     <use xlink:href="#ma7a7e9e6fc" x="218.018404" y="67.334985" style="fill: #b81420; stroke: #b81420; stroke-linejoin: bevel"/>
     <use xlink:href="#ma7a7e9e6fc" x="222.028465" y="68.049181" style="fill: #b81420; stroke: #b81420; stroke-linejoin: bevel"/>
     <use xlink:href="#ma7a7e9e6fc" x="226.038526" y="63.46953" style="fill: #b81420; stroke: #b81420; stroke-linejoin: bevel"/>
     <use xlink:href="#ma7a7e9e6fc" x="230.048587" y="65.919979" style="fill: #b81420; stroke: #b81420; stroke-linejoin: bevel"/>
     <use xlink:href="#ma7a7e9e6fc" x="234.058648" y="65.921305" style="fill: #b81420; stroke: #b81420; stroke-linejoin: bevel"/>
     <use xlink:href="#ma7a7e9e6fc" x="238.06871" y="66.12331" style="fill: #b81420; stroke: #b81420; stroke-linejoin: bevel"/>
     <use xlink:href="#ma7a7e9e6fc" x="242.078771" y="69.200026" style="fill: #b81420; stroke: #b81420; stroke-linejoin: bevel"/>
     <use xlink:href="#ma7a7e9e6fc" x="246.088832" y="65.7793" style="fill: #b81420; stroke: #b81420; stroke-linejoin: bevel"/>
     <use xlink:href="#ma7a7e9e6fc" x="250.098893" y="66.199229" style="fill: #b81420; stroke: #b81420; stroke-linejoin: bevel"/>
     <use xlink:href="#ma7a7e9e6fc" x="254.108954" y="67.367753" style="fill: #b81420; stroke: #b81420; stroke-linejoin: bevel"/>
     <use xlink:href="#ma7a7e9e6fc" x="258.119015" y="67.362743" style="fill: #b81420; stroke: #b81420; stroke-linejoin: bevel"/>
     <use xlink:href="#ma7a7e9e6fc" x="262.129076" y="66.761296" style="fill: #b81420; stroke: #b81420; stroke-linejoin: bevel"/>
     <use xlink:href="#ma7a7e9e6fc" x="266.139137" y="68.906694" style="fill: #b81420; stroke: #b81420; stroke-linejoin: bevel"/>
     <use xlink:href="#ma7a7e9e6fc" x="270.149198" y="68.682127" style="fill: #b81420; stroke: #b81420; stroke-linejoin: bevel"/>
     <use xlink:href="#ma7a7e9e6fc" x="274.159259" y="66.746745" style="fill: #b81420; stroke: #b81420; stroke-linejoin: bevel"/>
     <use xlink:href="#ma7a7e9e6fc" x="278.16932" y="69.8403" style="fill: #b81420; stroke: #b81420; stroke-linejoin: bevel"/>
     <use xlink:href="#ma7a7e9e6fc" x="282.179382" y="66.901484" style="fill: #b81420; stroke: #b81420; stroke-linejoin: bevel"/>
     <use xlink:href="#ma7a7e9e6fc" x="286.189443" y="66.445508" style="fill: #b81420; stroke: #b81420; stroke-linejoin: bevel"/>
     <use xlink:href="#ma7a7e9e6fc" x="290.199504" y="66.186259" style="fill: #b81420; stroke: #b81420; stroke-linejoin: bevel"/>
     <use xlink:href="#ma7a7e9e6fc" x="294.209565" y="66.858485" style="fill: #b81420; stroke: #b81420; stroke-linejoin: bevel"/>
     <use xlink:href="#ma7a7e9e6fc" x="298.219626" y="67.19942" style="fill: #b81420; stroke: #b81420; stroke-linejoin: bevel"/>
     <use xlink:href="#ma7a7e9e6fc" x="302.229687" y="64.90364" style="fill: #b81420; stroke: #b81420; stroke-linejoin: bevel"/>
     <use xlink:href="#ma7a7e9e6fc" x="306.239748" y="66.109574" style="fill: #b81420; stroke: #b81420; stroke-linejoin: bevel"/>
     <use xlink:href="#ma7a7e9e6fc" x="310.249809" y="67.09931" style="fill: #b81420; stroke: #b81420; stroke-linejoin: bevel"/>
     <use xlink:href="#ma7a7e9e6fc" x="314.25987" y="67.006386" style="fill: #b81420; stroke: #b81420; stroke-linejoin: bevel"/>
     <use xlink:href="#ma7a7e9e6fc" x="318.269931" y="66.167821" style="fill: #b81420; stroke: #b81420; stroke-linejoin: bevel"/>
     <use xlink:href="#ma7a7e9e6fc" x="322.279992" y="67.147326" style="fill: #b81420; stroke: #b81420; stroke-linejoin: bevel"/>
     <use xlink:href="#ma7a7e9e6fc" x="326.290053" y="66.831133" style="fill: #b81420; stroke: #b81420; stroke-linejoin: bevel"/>
     <use xlink:href="#ma7a7e9e6fc" x="330.300115" y="69.57793" style="fill: #b81420; stroke: #b81420; stroke-linejoin: bevel"/>
     <use xlink:href="#ma7a7e9e6fc" x="334.310176" y="68.518969" style="fill: #b81420; stroke: #b81420; stroke-linejoin: bevel"/>
    </g>
   </g>
   <g id="line2d_35">
    <path d="M 57.615961 88.428689 
L 61.626022 40.107152 
L 65.636083 69.506596 
L 69.646144 44.145294 
L 73.656205 31.629684 
L 77.666266 33.579176 
L 81.676327 37.161176 
L 85.686388 27.868196 
L 89.696449 35.48961 
L 93.706511 25.361865 
L 97.716572 21.5853 
L 101.726633 27.851954 
L 105.736694 26.508348 
L 109.746755 34.169032 
L 113.756816 18.988854 
L 117.766877 30.671884 
L 121.776938 24.427676 
L 125.786999 31.308852 
L 129.79706 14.76 
L 133.807121 24.415004 
L 137.817182 27.58099 
L 141.827244 22.174999 
L 145.837305 27.32739 
L 149.847366 33.621522 
L 153.857427 29.601587 
L 157.867488 31.304265 
L 161.877549 34.63595 
L 165.88761 34.630615 
L 169.897671 22.942864 
L 173.907732 29.373333 
L 177.917793 33.568798 
L 181.927854 34.068711 
L 185.937915 34.65043 
L 189.947977 37.319778 
L 193.958038 39.930891 
L 197.968099 37.803456 
L 201.97816 33.79744 
L 205.988221 41.753313 
L 209.998282 42.716044 
L 214.008343 38.050636 
L 218.018404 46.386058 
L 222.028465 42.921152 
L 226.038526 34.555276 
L 230.048587 42.17515 
L 234.058648 35.754229 
L 238.06871 36.53955 
L 242.078771 37.70008 
L 246.088832 38.048343 
L 250.098893 37.83723 
L 254.108954 36.210726 
L 258.119015 40.706685 
L 262.129076 35.190238 
L 266.139137 39.866561 
L 270.149198 35.201152 
L 274.159259 35.044732 
L 278.16932 37.123711 
L 282.179382 35.376749 
L 286.189443 34.234817 
L 290.199504 35.651644 
L 294.209565 32.282814 
L 298.219626 35.065636 
L 302.229687 37.890577 
L 306.239748 37.560974 
L 310.249809 35.031017 
L 314.25987 33.487199 
L 318.269931 36.093163 
L 322.279992 32.06362 
L 326.290053 36.222475 
L 330.300115 36.732826 
L 334.310176 41.010377 
" clip-path="url(#p7b3f997ad4)" style="fill: none; stroke: #d3d3d3; stroke-width: 2; stroke-linecap: square"/>
   </g>
   <g id="line2d_36">
    <path d="M 57.615961 165.96 
L 61.626022 149.261478 
L 65.636083 153.618285 
L 69.646144 144.120213 
L 73.656205 139.860977 
L 77.666266 133.762281 
L 81.676327 137.524034 
L 85.686388 134.402872 
L 89.696449 120.541267 
L 93.706511 121.559966 
L 97.716572 117.2336 
L 101.726633 117.694261 
L 105.736694 110.991629 
L 109.746755 109.619157 
L 113.756816 108.316273 
L 117.766877 111.177335 
L 121.776938 110.035934 
L 125.786999 113.29546 
L 129.79706 108.801261 
L 133.807121 106.84198 
L 137.817182 109.776089 
L 141.827244 108.755137 
L 145.837305 106.077528 
L 149.847366 110.003005 
L 153.857427 97.695977 
L 157.867488 96.850344 
L 161.877549 102.767233 
L 165.88761 93.446817 
L 169.897671 104.308731 
L 173.907732 103.240362 
L 177.917793 102.063142 
L 181.927854 98.061762 
L 185.937915 100.927994 
L 189.947977 99.468684 
L 193.958038 96.416383 
L 197.968099 97.542762 
L 201.97816 96.090705 
L 205.988221 96.213233 
L 209.998282 95.458269 
L 214.008343 90.835041 
L 218.018404 92.507502 
L 222.028465 91.320885 
L 226.038526 90.999611 
L 230.048587 94.431011 
L 234.058648 95.538634 
L 238.06871 100.006939 
L 242.078771 97.298387 
L 246.088832 90.513046 
L 250.098893 92.912803 
L 254.108954 97.223803 
L 258.119015 94.789129 
L 262.129076 98.467018 
L 266.139137 98.945618 
L 270.149198 96.793386 
L 274.159259 99.916142 
L 278.16932 105.378217 
L 282.179382 101.157316 
L 286.189443 99.708755 
L 290.199504 100.032629 
L 294.209565 98.273781 
L 298.219626 97.062394 
L 302.229687 98.040024 
L 306.239748 96.282633 
L 310.249809 94.940318 
L 314.25987 98.995268 
L 318.269931 99.892612 
L 322.279992 97.088215 
L 326.290053 95.248759 
L 330.300115 95.682957 
L 334.310176 96.208174 
" clip-path="url(#p7b3f997ad4)" style="fill: none; stroke: #d3d3d3; stroke-width: 2; stroke-linecap: square"/>
   </g>
   <g id="patch_3">
    <path d="M 43.78125 173.52 
L 43.78125 7.2 
" style="fill: none; stroke: #000000; stroke-width: 0.8; stroke-linejoin: miter; stroke-linecap: square"/>
   </g>
   <g id="patch_4">
    <path d="M 348.144886 173.52 
L 348.144886 7.2 
" style="fill: none; stroke: #000000; stroke-width: 0.8; stroke-linejoin: miter; stroke-linecap: square"/>
   </g>
   <g id="patch_5">
    <path d="M 43.78125 173.52 
L 348.144886 173.52 
" style="fill: none; stroke: #000000; stroke-width: 0.8; stroke-linejoin: miter; stroke-linecap: square"/>
   </g>
   <g id="patch_6">
    <path d="M 43.78125 7.2 
L 348.144886 7.2 
" style="fill: none; stroke: #000000; stroke-width: 0.8; stroke-linejoin: miter; stroke-linecap: square"/>
   </g>
  </g>
  <g id="axes_2">
   <g id="patch_7">
    <path d="M 409.017614 173.52 
L 713.38125 173.52 
L 713.38125 7.2 
L 409.017614 7.2 
z
" style="fill: #ffffff"/>
   </g>
   <g id="patch_8">
    <path d="M 424.830905 173.52 
L 425.01039 173.52 
L 425.01039 173.360724 
L 424.830905 173.360724 
z
" clip-path="url(#p9fdbe38ee4)" style="fill: #ff0000; opacity: 0.4"/>
   </g>
   <g id="patch_9">
    <path d="M 425.01039 173.52 
L 425.189875 173.52 
L 425.189875 173.360724 
L 425.01039 173.360724 
z
" clip-path="url(#p9fdbe38ee4)" style="fill: #ff0000; opacity: 0.4"/>
   </g>
   <g id="patch_10">
    <path d="M 425.189875 173.52 
L 425.369359 173.52 
L 425.369359 173.201448 
L 425.189875 173.201448 
z
" clip-path="url(#p9fdbe38ee4)" style="fill: #ff0000; opacity: 0.4"/>
   </g>
   <g id="patch_11">
    <path d="M 425.369359 173.52 
L 425.548844 173.52 
L 425.548844 172.882895 
L 425.369359 172.882895 
z
" clip-path="url(#p9fdbe38ee4)" style="fill: #ff0000; opacity: 0.4"/>
   </g>
   <g id="patch_12">
    <path d="M 425.548844 173.52 
L 425.728329 173.52 
L 425.728329 172.126332 
L 425.548844 172.126332 
z
" clip-path="url(#p9fdbe38ee4)" style="fill: #ff0000; opacity: 0.4"/>
   </g>
   <g id="patch_13">
    <path d="M 425.728329 173.52 
L 425.907814 173.52 
L 425.907814 171.329955 
L 425.728329 171.329955 
z
" clip-path="url(#p9fdbe38ee4)" style="fill: #ff0000; opacity: 0.4"/>
   </g>
   <g id="patch_14">
    <path d="M 425.907814 173.52 
L 426.087298 173.52 
L 426.087298 169.498274 
L 425.907814 169.498274 
z
" clip-path="url(#p9fdbe38ee4)" style="fill: #ff0000; opacity: 0.4"/>
   </g>
   <g id="patch_15">
    <path d="M 426.087298 173.52 
L 426.266783 173.52 
L 426.266783 167.348044 
L 426.087298 167.348044 
z
" clip-path="url(#p9fdbe38ee4)" style="fill: #ff0000; opacity: 0.4"/>
   </g>
   <g id="patch_16">
    <path d="M 426.266783 173.52 
L 426.446268 173.52 
L 426.446268 164.003258 
L 426.266783 164.003258 
z
" clip-path="url(#p9fdbe38ee4)" style="fill: #ff0000; opacity: 0.4"/>
   </g>
   <g id="patch_17">
    <path d="M 426.446268 173.52 
L 426.625752 173.52 
L 426.625752 159.025832 
L 426.446268 159.025832 
z
" clip-path="url(#p9fdbe38ee4)" style="fill: #ff0000; opacity: 0.4"/>
   </g>
   <g id="patch_18">
    <path d="M 426.625752 173.52 
L 426.805237 173.52 
L 426.805237 155.362534 
L 426.625752 155.362534 
z
" clip-path="url(#p9fdbe38ee4)" style="fill: #ff0000; opacity: 0.4"/>
   </g>
   <g id="patch_19">
    <path d="M 426.805237 173.52 
L 426.984722 173.52 
L 426.984722 147.836742 
L 426.805237 147.836742 
z
" clip-path="url(#p9fdbe38ee4)" style="fill: #ff0000; opacity: 0.4"/>
   </g>
   <g id="patch_20">
    <path d="M 426.984722 173.52 
L 427.164206 173.52 
L 427.164206 140.231197 
L 426.984722 140.231197 
z
" clip-path="url(#p9fdbe38ee4)" style="fill: #ff0000; opacity: 0.4"/>
   </g>
   <g id="patch_21">
    <path d="M 427.164206 173.52 
L 427.343691 173.52 
L 427.343691 130.595113 
L 427.164206 130.595113 
z
" clip-path="url(#p9fdbe38ee4)" style="fill: #ff0000; opacity: 0.4"/>
   </g>
   <g id="patch_22">
    <path d="M 427.343691 173.52 
L 427.523176 173.52 
L 427.523176 122.272941 
L 427.343691 122.272941 
z
" clip-path="url(#p9fdbe38ee4)" style="fill: #ff0000; opacity: 0.4"/>
   </g>
   <g id="patch_23">
    <path d="M 427.523176 173.52 
L 427.70266 173.52 
L 427.70266 112.357797 
L 427.523176 112.357797 
z
" clip-path="url(#p9fdbe38ee4)" style="fill: #ff0000; opacity: 0.4"/>
   </g>
   <g id="patch_24">
    <path d="M 427.70266 173.52 
L 427.882145 173.52 
L 427.882145 97.306425 
L 427.70266 97.306425 
z
" clip-path="url(#p9fdbe38ee4)" style="fill: #ff0000; opacity: 0.4"/>
   </g>
   <g id="patch_25">
    <path d="M 427.882145 173.52 
L 428.06163 173.52 
L 428.06163 87.630407 
L 427.882145 87.630407 
z
" clip-path="url(#p9fdbe38ee4)" style="fill: #ff0000; opacity: 0.4"/>
   </g>
   <g id="patch_26">
    <path d="M 428.06163 173.52 
L 428.241114 173.52 
L 428.241114 75.9631 
L 428.06163 75.9631 
z
" clip-path="url(#p9fdbe38ee4)" style="fill: #ff0000; opacity: 0.4"/>
   </g>
   <g id="patch_27">
    <path d="M 428.241114 173.52 
L 428.420599 173.52 
L 428.420599 65.092851 
L 428.241114 65.092851 
z
" clip-path="url(#p9fdbe38ee4)" style="fill: #ff0000; opacity: 0.4"/>
   </g>
   <g id="patch_28">
    <path d="M 428.420599 173.52 
L 428.600084 173.52 
L 428.600084 56.491946 
L 428.420599 56.491946 
z
" clip-path="url(#p9fdbe38ee4)" style="fill: #ff0000; opacity: 0.4"/>
   </g>
   <g id="patch_29">
    <path d="M 428.600084 173.52 
L 428.779569 173.52 
L 428.779569 43.231765 
L 428.600084 43.231765 
z
" clip-path="url(#p9fdbe38ee4)" style="fill: #ff0000; opacity: 0.4"/>
   </g>
   <g id="patch_30">
    <path d="M 428.779569 173.52 
L 428.959053 173.52 
L 428.959053 36.940814 
L 428.779569 36.940814 
z
" clip-path="url(#p9fdbe38ee4)" style="fill: #ff0000; opacity: 0.4"/>
   </g>
   <g id="patch_31">
    <path d="M 428.959053 173.52 
L 429.138538 173.52 
L 429.138538 27.185158 
L 428.959053 27.185158 
z
" clip-path="url(#p9fdbe38ee4)" style="fill: #ff0000; opacity: 0.4"/>
   </g>
   <g id="patch_32">
    <path d="M 429.138538 173.52 
L 429.318023 173.52 
L 429.318023 23.9593 
L 429.138538 23.9593 
z
" clip-path="url(#p9fdbe38ee4)" style="fill: #ff0000; opacity: 0.4"/>
   </g>
   <g id="patch_33">
    <path d="M 429.318023 173.52 
L 429.497508 173.52 
L 429.497508 20.415928 
L 429.318023 20.415928 
z
" clip-path="url(#p9fdbe38ee4)" style="fill: #ff0000; opacity: 0.4"/>
   </g>
   <g id="patch_34">
    <path d="M 429.497508 173.52 
L 429.676992 173.52 
L 429.676992 15.716737 
L 429.497508 15.716737 
z
" clip-path="url(#p9fdbe38ee4)" style="fill: #ff0000; opacity: 0.4"/>
   </g>
   <g id="patch_35">
    <path d="M 429.676992 173.52 
L 429.856477 173.52 
L 429.856477 15.12 
L 429.676992 15.12 
z
" clip-path="url(#p9fdbe38ee4)" style="fill: #ff0000; opacity: 0.4"/>
   </g>
   <g id="patch_36">
    <path d="M 429.856477 173.52 
L 430.035962 173.52 
L 430.035962 17.310045 
L 429.856477 17.310045 
z
" clip-path="url(#p9fdbe38ee4)" style="fill: #ff0000; opacity: 0.4"/>
   </g>
   <g id="patch_37">
    <path d="M 430.035962 173.52 
L 430.215447 173.52 
L 430.215447 21.013213 
L 430.035962 21.013213 
z
" clip-path="url(#p9fdbe38ee4)" style="fill: #ff0000; opacity: 0.4"/>
   </g>
   <g id="patch_38">
    <path d="M 430.215447 173.52 
L 430.394931 173.52 
L 430.394931 23.48147 
L 430.215447 23.48147 
z
" clip-path="url(#p9fdbe38ee4)" style="fill: #ff0000; opacity: 0.4"/>
   </g>
   <g id="patch_39">
    <path d="M 430.394931 173.52 
L 430.574416 173.52 
L 430.574416 29.176109 
L 430.394931 29.176109 
z
" clip-path="url(#p9fdbe38ee4)" style="fill: #ff0000; opacity: 0.4"/>
   </g>
   <g id="patch_40">
    <path d="M 430.574416 173.52 
L 430.753901 173.52 
L 430.753901 32.082896 
L 430.574416 32.082896 
z
" clip-path="url(#p9fdbe38ee4)" style="fill: #ff0000; opacity: 0.4"/>
   </g>
   <g id="patch_41">
    <path d="M 430.753901 173.52 
L 430.933385 173.52 
L 430.933385 39.210031 
L 430.753901 39.210031 
z
" clip-path="url(#p9fdbe38ee4)" style="fill: #ff0000; opacity: 0.4"/>
   </g>
   <g id="patch_42">
    <path d="M 430.933385 173.52 
L 431.11287 173.52 
L 431.11287 52.390588 
L 430.933385 52.390588 
z
" clip-path="url(#p9fdbe38ee4)" style="fill: #ff0000; opacity: 0.4"/>
   </g>
   <g id="patch_43">
    <path d="M 431.11287 173.52 
L 431.292355 173.52 
L 431.292355 55.53629 
L 431.11287 55.53629 
z
" clip-path="url(#p9fdbe38ee4)" style="fill: #ff0000; opacity: 0.4"/>
   </g>
   <g id="patch_44">
    <path d="M 431.292355 173.52 
L 431.471839 173.52 
L 431.471839 60.393815 
L 431.292355 60.393815 
z
" clip-path="url(#p9fdbe38ee4)" style="fill: #ff0000; opacity: 0.4"/>
   </g>
   <g id="patch_45">
    <path d="M 431.471839 173.52 
L 431.651324 173.52 
L 431.651324 71.463891 
L 431.471839 71.463891 
z
" clip-path="url(#p9fdbe38ee4)" style="fill: #ff0000; opacity: 0.4"/>
   </g>
   <g id="patch_46">
    <path d="M 431.651324 173.52 
L 431.830809 173.52 
L 431.830809 77.396923 
L 431.651324 77.396923 
z
" clip-path="url(#p9fdbe38ee4)" style="fill: #ff0000; opacity: 0.4"/>
   </g>
   <g id="patch_47">
    <path d="M 431.830809 173.52 
L 432.010293 173.52 
L 432.010293 88.864502 
L 431.830809 88.864502 
z
" clip-path="url(#p9fdbe38ee4)" style="fill: #ff0000; opacity: 0.4"/>
   </g>
   <g id="patch_48">
    <path d="M 432.010293 173.52 
L 432.189778 173.52 
L 432.189778 92.806878 
L 432.010293 92.806878 
z
" clip-path="url(#p9fdbe38ee4)" style="fill: #ff0000; opacity: 0.4"/>
   </g>
   <g id="patch_49">
    <path d="M 432.189778 173.52 
L 432.369263 173.52 
L 432.369263 99.297376 
L 432.189778 99.297376 
z
" clip-path="url(#p9fdbe38ee4)" style="fill: #ff0000; opacity: 0.4"/>
   </g>
   <g id="patch_50">
    <path d="M 432.369263 173.52 
L 432.548747 173.52 
L 432.548747 106.743298 
L 432.369263 106.743298 
z
" clip-path="url(#p9fdbe38ee4)" style="fill: #ff0000; opacity: 0.4"/>
   </g>
   <g id="patch_51">
    <path d="M 432.548747 173.52 
L 432.728232 173.52 
L 432.728232 114.627692 
L 432.548747 114.627692 
z
" clip-path="url(#p9fdbe38ee4)" style="fill: #ff0000; opacity: 0.4"/>
   </g>
   <g id="patch_52">
    <path d="M 432.728232 173.52 
L 432.907717 173.52 
L 432.907717 122.910045 
L 432.728232 122.910045 
z
" clip-path="url(#p9fdbe38ee4)" style="fill: #ff0000; opacity: 0.4"/>
   </g>
   <g id="patch_53">
    <path d="M 432.907717 173.52 
L 433.087202 173.52 
L 433.087202 125.21938 
L 432.907717 125.21938 
z
" clip-path="url(#p9fdbe38ee4)" style="fill: #ff0000; opacity: 0.4"/>
   </g>
   <g id="patch_54">
    <path d="M 433.087202 173.52 
L 433.266687 173.52 
L 433.266687 132.30733 
L 433.087202 132.30733 
z
" clip-path="url(#p9fdbe38ee4)" style="fill: #ff0000; opacity: 0.4"/>
   </g>
   <g id="patch_55">
    <path d="M 433.266687 173.52 
L 433.446171 173.52 
L 433.446171 136.32905 
L 433.266687 136.32905 
z
" clip-path="url(#p9fdbe38ee4)" style="fill: #ff0000; opacity: 0.4"/>
   </g>
   <g id="patch_56">
    <path d="M 433.446171 173.52 
L 433.625655 173.52 
L 433.625655 140.987647 
L 433.446171 140.987647 
z
" clip-path="url(#p9fdbe38ee4)" style="fill: #ff0000; opacity: 0.4"/>
   </g>
   <g id="patch_57">
    <path d="M 433.625655 173.52 
L 433.80514 173.52 
L 433.80514 145.766154 
L 433.625655 145.766154 
z
" clip-path="url(#p9fdbe38ee4)" style="fill: #ff0000; opacity: 0.4"/>
   </g>
   <g id="patch_58">
    <path d="M 433.80514 173.52 
L 433.984625 173.52 
L 433.984625 148.633122 
L 433.80514 148.633122 
z
" clip-path="url(#p9fdbe38ee4)" style="fill: #ff0000; opacity: 0.4"/>
   </g>
   <g id="patch_59">
    <path d="M 433.984625 173.52 
L 434.16411 173.52 
L 434.16411 152.893756 
L 433.984625 152.893756 
z
" clip-path="url(#p9fdbe38ee4)" style="fill: #ff0000; opacity: 0.4"/>
   </g>
   <g id="patch_60">
    <path d="M 434.16411 173.52 
L 434.343595 173.52 
L 434.343595 155.681086 
L 434.16411 155.681086 
z
" clip-path="url(#p9fdbe38ee4)" style="fill: #ff0000; opacity: 0.4"/>
   </g>
   <g id="patch_61">
    <path d="M 434.343595 173.52 
L 434.523078 173.52 
L 434.523078 157.831203 
L 434.343595 157.831203 
z
" clip-path="url(#p9fdbe38ee4)" style="fill: #ff0000; opacity: 0.4"/>
   </g>
   <g id="patch_62">
    <path d="M 434.523078 173.52 
L 434.702563 173.52 
L 434.702563 160.30009 
L 434.523078 160.30009 
z
" clip-path="url(#p9fdbe38ee4)" style="fill: #ff0000; opacity: 0.4"/>
   </g>
   <g id="patch_63">
    <path d="M 434.702563 173.52 
L 434.882048 173.52 
L 434.882048 162.131765 
L 434.702563 162.131765 
z
" clip-path="url(#p9fdbe38ee4)" style="fill: #ff0000; opacity: 0.4"/>
   </g>
   <g id="patch_64">
    <path d="M 434.882048 173.52 
L 435.061533 173.52 
L 435.061533 164.520905 
L 434.882048 164.520905 
z
" clip-path="url(#p9fdbe38ee4)" style="fill: #ff0000; opacity: 0.4"/>
   </g>
   <g id="patch_65">
    <path d="M 435.061533 173.52 
L 435.241018 173.52 
L 435.241018 166.113665 
L 435.061533 166.113665 
z
" clip-path="url(#p9fdbe38ee4)" style="fill: #ff0000; opacity: 0.4"/>
   </g>
   <g id="patch_66">
    <path d="M 435.241018 173.52 
L 435.420503 173.52 
L 435.420503 165.755294 
L 435.241018 165.755294 
z
" clip-path="url(#p9fdbe38ee4)" style="fill: #ff0000; opacity: 0.4"/>
   </g>
   <g id="patch_67">
    <path d="M 435.420503 173.52 
L 435.599988 173.52 
L 435.599988 167.50733 
L 435.420503 167.50733 
z
" clip-path="url(#p9fdbe38ee4)" style="fill: #ff0000; opacity: 0.4"/>
   </g>
   <g id="patch_68">
    <path d="M 435.599988 173.52 
L 435.779473 173.52 
L 435.779473 168.781538 
L 435.599988 168.781538 
z
" clip-path="url(#p9fdbe38ee4)" style="fill: #ff0000; opacity: 0.4"/>
   </g>
   <g id="patch_69">
    <path d="M 435.779473 173.52 
L 435.958957 173.52 
L 435.958957 169.856626 
L 435.779473 169.856626 
z
" clip-path="url(#p9fdbe38ee4)" style="fill: #ff0000; opacity: 0.4"/>
   </g>
   <g id="patch_70">
    <path d="M 435.958957 173.52 
L 436.138441 173.52 
L 436.138441 169.339005 
L 435.958957 169.339005 
z
" clip-path="url(#p9fdbe38ee4)" style="fill: #ff0000; opacity: 0.4"/>
   </g>
   <g id="patch_71">
    <path d="M 436.138441 173.52 
L 436.317926 173.52 
L 436.317926 170.772489 
L 436.138441 170.772489 
z
" clip-path="url(#p9fdbe38ee4)" style="fill: #ff0000; opacity: 0.4"/>
   </g>
   <g id="patch_72">
    <path d="M 436.317926 173.52 
L 436.497411 173.52 
L 436.497411 171.051222 
L 436.317926 171.051222 
z
" clip-path="url(#p9fdbe38ee4)" style="fill: #ff0000; opacity: 0.4"/>
   </g>
   <g id="patch_73">
    <path d="M 436.497411 173.52 
L 436.676896 173.52 
L 436.676896 171.329955 
L 436.497411 171.329955 
z
" clip-path="url(#p9fdbe38ee4)" style="fill: #ff0000; opacity: 0.4"/>
   </g>
   <g id="patch_74">
    <path d="M 436.676896 173.52 
L 436.85638 173.52 
L 436.85638 172.166144 
L 436.676896 172.166144 
z
" clip-path="url(#p9fdbe38ee4)" style="fill: #ff0000; opacity: 0.4"/>
   </g>
   <g id="patch_75">
    <path d="M 436.85638 173.52 
L 437.035865 173.52 
L 437.035865 172.524525 
L 436.85638 172.524525 
z
" clip-path="url(#p9fdbe38ee4)" style="fill: #ff0000; opacity: 0.4"/>
   </g>
   <g id="patch_76">
    <path d="M 437.035865 173.52 
L 437.21535 173.52 
L 437.21535 172.484706 
L 437.035865 172.484706 
z
" clip-path="url(#p9fdbe38ee4)" style="fill: #ff0000; opacity: 0.4"/>
   </g>
   <g id="patch_77">
    <path d="M 437.21535 173.52 
L 437.394835 173.52 
L 437.394835 173.12181 
L 437.21535 173.12181 
z
" clip-path="url(#p9fdbe38ee4)" style="fill: #ff0000; opacity: 0.4"/>
   </g>
   <g id="patch_78">
    <path d="M 437.394835 173.52 
L 437.57432 173.52 
L 437.57432 172.882896 
L 437.394835 172.882896 
z
" clip-path="url(#p9fdbe38ee4)" style="fill: #ff0000; opacity: 0.4"/>
   </g>
   <g id="patch_79">
    <path d="M 437.57432 173.52 
L 437.753804 173.52 
L 437.753804 173.042172 
L 437.57432 173.042172 
z
" clip-path="url(#p9fdbe38ee4)" style="fill: #ff0000; opacity: 0.4"/>
   </g>
   <g id="patch_80">
    <path d="M 437.753804 173.52 
L 437.933288 173.52 
L 437.933288 173.161626 
L 437.753804 173.161626 
z
" clip-path="url(#p9fdbe38ee4)" style="fill: #ff0000; opacity: 0.4"/>
   </g>
   <g id="patch_81">
    <path d="M 437.933288 173.52 
L 438.112773 173.52 
L 438.112773 173.161629 
L 437.933288 173.161629 
z
" clip-path="url(#p9fdbe38ee4)" style="fill: #ff0000; opacity: 0.4"/>
   </g>
   <g id="patch_82">
    <path d="M 438.112773 173.52 
L 438.292258 173.52 
L 438.292258 173.281086 
L 438.112773 173.281086 
z
" clip-path="url(#p9fdbe38ee4)" style="fill: #ff0000; opacity: 0.4"/>
   </g>
   <g id="patch_83">
    <path d="M 438.292258 173.52 
L 438.471743 173.52 
L 438.471743 173.161629 
L 438.292258 173.161629 
z
" clip-path="url(#p9fdbe38ee4)" style="fill: #ff0000; opacity: 0.4"/>
   </g>
   <g id="patch_84">
    <path d="M 438.471743 173.52 
L 438.651228 173.52 
L 438.651228 173.241267 
L 438.471743 173.241267 
z
" clip-path="url(#p9fdbe38ee4)" style="fill: #ff0000; opacity: 0.4"/>
   </g>
   <g id="patch_85">
    <path d="M 438.651228 173.52 
L 438.830713 173.52 
L 438.830713 173.320905 
L 438.651228 173.320905 
z
" clip-path="url(#p9fdbe38ee4)" style="fill: #ff0000; opacity: 0.4"/>
   </g>
   <g id="patch_86">
    <path d="M 438.830713 173.52 
L 439.010196 173.52 
L 439.010196 173.320904 
L 438.830713 173.320904 
z
" clip-path="url(#p9fdbe38ee4)" style="fill: #ff0000; opacity: 0.4"/>
   </g>
   <g id="patch_87">
    <path d="M 439.010196 173.52 
L 439.189681 173.52 
L 439.189681 173.480181 
L 439.010196 173.480181 
z
" clip-path="url(#p9fdbe38ee4)" style="fill: #ff0000; opacity: 0.4"/>
   </g>
   <g id="patch_88">
    <path d="M 439.189681 173.52 
L 439.369166 173.52 
L 439.369166 173.52 
L 439.189681 173.52 
z
" clip-path="url(#p9fdbe38ee4)" style="fill: #ff0000; opacity: 0.4"/>
   </g>
   <g id="patch_89">
    <path d="M 439.369166 173.52 
L 439.548651 173.52 
L 439.548651 173.480181 
L 439.369166 173.480181 
z
" clip-path="url(#p9fdbe38ee4)" style="fill: #ff0000; opacity: 0.4"/>
   </g>
   <g id="patch_90">
    <path d="M 439.548651 173.52 
L 439.728136 173.52 
L 439.728136 173.480181 
L 439.548651 173.480181 
z
" clip-path="url(#p9fdbe38ee4)" style="fill: #ff0000; opacity: 0.4"/>
   </g>
   <g id="patch_91">
    <path d="M 439.728136 173.52 
L 439.907621 173.52 
L 439.907621 173.440362 
L 439.728136 173.440362 
z
" clip-path="url(#p9fdbe38ee4)" style="fill: #ff0000; opacity: 0.4"/>
   </g>
   <g id="patch_92">
    <path d="M 439.907621 173.52 
L 440.087105 173.52 
L 440.087105 173.480181 
L 439.907621 173.480181 
z
" clip-path="url(#p9fdbe38ee4)" style="fill: #ff0000; opacity: 0.4"/>
   </g>
   <g id="patch_93">
    <path d="M 440.087105 173.52 
L 440.26659 173.52 
L 440.26659 173.480181 
L 440.087105 173.480181 
z
" clip-path="url(#p9fdbe38ee4)" style="fill: #ff0000; opacity: 0.4"/>
   </g>
   <g id="patch_94">
    <path d="M 440.26659 173.52 
L 440.446075 173.52 
L 440.446075 173.52 
L 440.26659 173.52 
z
" clip-path="url(#p9fdbe38ee4)" style="fill: #ff0000; opacity: 0.4"/>
   </g>
   <g id="patch_95">
    <path d="M 440.446075 173.52 
L 440.625559 173.52 
L 440.625559 173.52 
L 440.446075 173.52 
z
" clip-path="url(#p9fdbe38ee4)" style="fill: #ff0000; opacity: 0.4"/>
   </g>
   <g id="patch_96">
    <path d="M 440.625559 173.52 
L 440.805044 173.52 
L 440.805044 173.52 
L 440.625559 173.52 
z
" clip-path="url(#p9fdbe38ee4)" style="fill: #ff0000; opacity: 0.4"/>
   </g>
   <g id="patch_97">
    <path d="M 440.805044 173.52 
L 440.984529 173.52 
L 440.984529 173.52 
L 440.805044 173.52 
z
" clip-path="url(#p9fdbe38ee4)" style="fill: #ff0000; opacity: 0.4"/>
   </g>
   <g id="patch_98">
    <path d="M 440.984529 173.52 
L 441.164013 173.52 
L 441.164013 173.52 
L 440.984529 173.52 
z
" clip-path="url(#p9fdbe38ee4)" style="fill: #ff0000; opacity: 0.4"/>
   </g>
   <g id="patch_99">
    <path d="M 441.164013 173.52 
L 441.343498 173.52 
L 441.343498 173.52 
L 441.164013 173.52 
z
" clip-path="url(#p9fdbe38ee4)" style="fill: #ff0000; opacity: 0.4"/>
   </g>
   <g id="patch_100">
    <path d="M 441.343498 173.52 
L 441.522983 173.52 
L 441.522983 173.440362 
L 441.343498 173.440362 
z
" clip-path="url(#p9fdbe38ee4)" style="fill: #ff0000; opacity: 0.4"/>
   </g>
   <g id="patch_101">
    <path d="M 422.852324 173.52 
L 425.827531 173.52 
L 425.827531 30.190554 
L 422.852324 30.190554 
z
" clip-path="url(#p9fdbe38ee4)" style="fill: #1f77b4; opacity: 0.4"/>
   </g>
   <g id="patch_102">
    <path d="M 425.827531 173.52 
L 428.802738 173.52 
L 428.802738 161.072029 
L 425.827531 161.072029 
z
" clip-path="url(#p9fdbe38ee4)" style="fill: #1f77b4; opacity: 0.4"/>
   </g>
   <g id="patch_103">
    <path d="M 428.802738 173.52 
L 431.777945 173.52 
L 431.777945 165.561657 
L 428.802738 165.561657 
z
" clip-path="url(#p9fdbe38ee4)" style="fill: #1f77b4; opacity: 0.4"/>
   </g>
   <g id="patch_104">
    <path d="M 431.777945 173.52 
L 434.753151 173.52 
L 434.753151 167.233558 
L 431.777945 167.233558 
z
" clip-path="url(#p9fdbe38ee4)" style="fill: #1f77b4; opacity: 0.4"/>
   </g>
   <g id="patch_105">
    <path d="M 434.753151 173.52 
L 437.728358 173.52 
L 437.728358 168.331343 
L 434.753151 168.331343 
z
" clip-path="url(#p9fdbe38ee4)" style="fill: #1f77b4; opacity: 0.4"/>
   </g>
   <g id="patch_106">
    <path d="M 437.728358 173.52 
L 440.703565 173.52 
L 440.703565 169.044783 
L 437.728358 169.044783 
z
" clip-path="url(#p9fdbe38ee4)" style="fill: #1f77b4; opacity: 0.4"/>
   </g>
   <g id="patch_107">
    <path d="M 440.703565 173.52 
L 443.678771 173.52 
L 443.678771 169.29701 
L 440.703565 169.29701 
z
" clip-path="url(#p9fdbe38ee4)" style="fill: #1f77b4; opacity: 0.4"/>
   </g>
   <g id="patch_108">
    <path d="M 443.678771 173.52 
L 446.653977 173.52 
L 446.653977 169.705375 
L 443.678771 169.705375 
z
" clip-path="url(#p9fdbe38ee4)" style="fill: #1f77b4; opacity: 0.4"/>
   </g>
   <g id="patch_109">
    <path d="M 446.653977 173.52 
L 449.629182 173.52 
L 449.629182 170.111339 
L 446.653977 170.111339 
z
" clip-path="url(#p9fdbe38ee4)" style="fill: #1f77b4; opacity: 0.4"/>
   </g>
   <g id="patch_110">
    <path d="M 449.629182 173.52 
L 452.60439 173.52 
L 452.60439 170.23145 
L 449.629182 170.23145 
z
" clip-path="url(#p9fdbe38ee4)" style="fill: #1f77b4; opacity: 0.4"/>
   </g>
   <g id="patch_111">
    <path d="M 452.60439 173.52 
L 455.579598 173.52 
L 455.579598 170.308319 
L 452.60439 170.308319 
z
" clip-path="url(#p9fdbe38ee4)" style="fill: #1f77b4; opacity: 0.4"/>
   </g>
   <g id="patch_112">
    <path d="M 455.579598 173.52 
L 458.554803 173.52 
L 458.554803 170.596575 
L 455.579598 170.596575 
z
" clip-path="url(#p9fdbe38ee4)" style="fill: #1f77b4; opacity: 0.4"/>
   </g>
   <g id="patch_113">
    <path d="M 458.554803 173.52 
L 461.530009 173.52 
L 461.530009 170.836791 
L 458.554803 170.836791 
z
" clip-path="url(#p9fdbe38ee4)" style="fill: #1f77b4; opacity: 0.4"/>
   </g>
   <g id="patch_114">
    <path d="M 461.530009 173.52 
L 464.505217 173.52 
L 464.505217 170.839195 
L 461.530009 170.839195 
z
" clip-path="url(#p9fdbe38ee4)" style="fill: #1f77b4; opacity: 0.4"/>
   </g>
   <g id="patch_115">
    <path d="M 464.505217 173.52 
L 467.480427 173.52 
L 467.480427 171.007348 
L 464.505217 171.007348 
z
" clip-path="url(#p9fdbe38ee4)" style="fill: #1f77b4; opacity: 0.4"/>
   </g>
   <g id="patch_116">
    <path d="M 467.480427 173.52 
L 470.455632 173.52 
L 470.455632 171.129854 
L 467.480427 171.129854 
z
" clip-path="url(#p9fdbe38ee4)" style="fill: #1f77b4; opacity: 0.4"/>
   </g>
   <g id="patch_117">
    <path d="M 470.455632 173.52 
L 473.430838 173.52 
L 473.430838 171.261972 
L 470.455632 171.261972 
z
" clip-path="url(#p9fdbe38ee4)" style="fill: #1f77b4; opacity: 0.4"/>
   </g>
   <g id="patch_118">
    <path d="M 473.430838 173.52 
L 476.406043 173.52 
L 476.406043 171.485373 
L 473.430838 171.485373 
z
" clip-path="url(#p9fdbe38ee4)" style="fill: #1f77b4; opacity: 0.4"/>
   </g>
   <g id="patch_119">
    <path d="M 476.406043 173.52 
L 479.381254 173.52 
L 479.381254 171.437333 
L 476.406043 171.437333 
z
" clip-path="url(#p9fdbe38ee4)" style="fill: #1f77b4; opacity: 0.4"/>
   </g>
   <g id="patch_120">
    <path d="M 479.381254 173.52 
L 482.356459 173.52 
L 482.356459 171.679948 
L 479.381254 171.679948 
z
" clip-path="url(#p9fdbe38ee4)" style="fill: #1f77b4; opacity: 0.4"/>
   </g>
   <g id="patch_121">
    <path d="M 482.356459 173.52 
L 485.331664 173.52 
L 485.331664 171.740002 
L 482.356459 171.740002 
z
" clip-path="url(#p9fdbe38ee4)" style="fill: #1f77b4; opacity: 0.4"/>
   </g>
   <g id="patch_122">
    <path d="M 485.331664 173.52 
L 488.306875 173.52 
L 488.306875 171.903351 
L 485.331664 171.903351 
z
" clip-path="url(#p9fdbe38ee4)" style="fill: #1f77b4; opacity: 0.4"/>
   </g>
   <g id="patch_123">
    <path d="M 488.306875 173.52 
L 491.28208 173.52 
L 491.28208 171.961 
L 488.306875 171.961 
z
" clip-path="url(#p9fdbe38ee4)" style="fill: #1f77b4; opacity: 0.4"/>
   </g>
   <g id="patch_124">
    <path d="M 491.28208 173.52 
L 494.257286 173.52 
L 494.257286 172.179596 
L 491.28208 172.179596 
z
" clip-path="url(#p9fdbe38ee4)" style="fill: #1f77b4; opacity: 0.4"/>
   </g>
   <g id="patch_125">
    <path d="M 494.257286 173.52 
L 497.232491 173.52 
L 497.232491 172.186803 
L 494.257286 172.186803 
z
" clip-path="url(#p9fdbe38ee4)" style="fill: #1f77b4; opacity: 0.4"/>
   </g>
   <g id="patch_126">
    <path d="M 497.232491 173.52 
L 500.207697 173.52 
L 500.207697 172.234846 
L 497.232491 172.234846 
z
" clip-path="url(#p9fdbe38ee4)" style="fill: #1f77b4; opacity: 0.4"/>
   </g>
   <g id="patch_127">
    <path d="M 500.207697 173.52 
L 503.182907 173.52 
L 503.182907 172.429423 
L 500.207697 172.429423 
z
" clip-path="url(#p9fdbe38ee4)" style="fill: #1f77b4; opacity: 0.4"/>
   </g>
   <g id="patch_128">
    <path d="M 503.182907 173.52 
L 506.158112 173.52 
L 506.158112 172.60718 
L 503.182907 172.60718 
z
" clip-path="url(#p9fdbe38ee4)" style="fill: #1f77b4; opacity: 0.4"/>
   </g>
   <g id="patch_129">
    <path d="M 506.158112 173.52 
L 509.133323 173.52 
L 509.133323 172.61679 
L 506.158112 172.61679 
z
" clip-path="url(#p9fdbe38ee4)" style="fill: #1f77b4; opacity: 0.4"/>
   </g>
   <g id="patch_130">
    <path d="M 509.133323 173.52 
L 512.108528 173.52 
L 512.108528 172.669636 
L 509.133323 172.669636 
z
" clip-path="url(#p9fdbe38ee4)" style="fill: #1f77b4; opacity: 0.4"/>
   </g>
   <g id="patch_131">
    <path d="M 512.108528 173.52 
L 515.083734 173.52 
L 515.083734 172.623995 
L 512.108528 172.623995 
z
" clip-path="url(#p9fdbe38ee4)" style="fill: #1f77b4; opacity: 0.4"/>
   </g>
   <g id="patch_132">
    <path d="M 515.083734 173.52 
L 518.058939 173.52 
L 518.058939 172.739299 
L 515.083734 172.739299 
z
" clip-path="url(#p9fdbe38ee4)" style="fill: #1f77b4; opacity: 0.4"/>
   </g>
   <g id="patch_133">
    <path d="M 518.058939 173.52 
L 521.034144 173.52 
L 521.034144 172.81857 
L 518.058939 172.81857 
z
" clip-path="url(#p9fdbe38ee4)" style="fill: #1f77b4; opacity: 0.4"/>
   </g>
   <g id="patch_134">
    <path d="M 521.034144 173.52 
L 524.00935 173.52 
L 524.00935 172.864211 
L 521.034144 172.864211 
z
" clip-path="url(#p9fdbe38ee4)" style="fill: #1f77b4; opacity: 0.4"/>
   </g>
   <g id="patch_135">
    <path d="M 524.00935 173.52 
L 526.984555 173.52 
L 526.984555 172.921863 
L 524.00935 172.921863 
z
" clip-path="url(#p9fdbe38ee4)" style="fill: #1f77b4; opacity: 0.4"/>
   </g>
   <g id="patch_136">
    <path d="M 526.984555 173.52 
L 529.959761 173.52 
L 529.959761 172.989123 
L 526.984555 172.989123 
z
" clip-path="url(#p9fdbe38ee4)" style="fill: #1f77b4; opacity: 0.4"/>
   </g>
   <g id="patch_137">
    <path d="M 529.959761 173.52 
L 532.934976 173.52 
L 532.934976 173.087613 
L 529.959761 173.087613 
z
" clip-path="url(#p9fdbe38ee4)" style="fill: #1f77b4; opacity: 0.4"/>
   </g>
   <g id="patch_138">
    <path d="M 532.934976 173.52 
L 535.910181 173.52 
L 535.910181 173.058786 
L 532.934976 173.058786 
z
" clip-path="url(#p9fdbe38ee4)" style="fill: #1f77b4; opacity: 0.4"/>
   </g>
   <g id="patch_139">
    <path d="M 535.910181 173.52 
L 538.885387 173.52 
L 538.885387 173.147666 
L 535.910181 173.147666 
z
" clip-path="url(#p9fdbe38ee4)" style="fill: #1f77b4; opacity: 0.4"/>
   </g>
   <g id="patch_140">
    <path d="M 538.885387 173.52 
L 541.860592 173.52 
L 541.860592 173.214926 
L 538.885387 173.214926 
z
" clip-path="url(#p9fdbe38ee4)" style="fill: #1f77b4; opacity: 0.4"/>
   </g>
   <g id="patch_141">
    <path d="M 541.860592 173.52 
L 544.835798 173.52 
L 544.835798 173.234143 
L 541.860592 173.234143 
z
" clip-path="url(#p9fdbe38ee4)" style="fill: #1f77b4; opacity: 0.4"/>
   </g>
   <g id="patch_142">
    <path d="M 544.835798 173.52 
L 547.811003 173.52 
L 547.811003 173.200513 
L 544.835798 173.200513 
z
" clip-path="url(#p9fdbe38ee4)" style="fill: #1f77b4; opacity: 0.4"/>
   </g>
   <g id="patch_143">
    <path d="M 547.811003 173.52 
L 550.786209 173.52 
L 550.786209 173.279784 
L 547.811003 173.279784 
z
" clip-path="url(#p9fdbe38ee4)" style="fill: #1f77b4; opacity: 0.4"/>
   </g>
   <g id="patch_144">
    <path d="M 550.786209 173.52 
L 553.761424 173.52 
L 553.761424 173.279785 
L 550.786209 173.279785 
z
" clip-path="url(#p9fdbe38ee4)" style="fill: #1f77b4; opacity: 0.4"/>
   </g>
   <g id="patch_145">
    <path d="M 553.761424 173.52 
L 556.736629 173.52 
L 556.736629 173.289393 
L 553.761424 173.289393 
z
" clip-path="url(#p9fdbe38ee4)" style="fill: #1f77b4; opacity: 0.4"/>
   </g>
   <g id="patch_146">
    <path d="M 556.736629 173.52 
L 559.711835 173.52 
L 559.711835 173.356653 
L 556.736629 173.356653 
z
" clip-path="url(#p9fdbe38ee4)" style="fill: #1f77b4; opacity: 0.4"/>
   </g>
   <g id="patch_147">
    <path d="M 559.711835 173.52 
L 562.68704 173.52 
L 562.68704 173.335034 
L 559.711835 173.335034 
z
" clip-path="url(#p9fdbe38ee4)" style="fill: #1f77b4; opacity: 0.4"/>
   </g>
   <g id="patch_148">
    <path d="M 562.68704 173.52 
L 565.662246 173.52 
L 565.662246 173.402294 
L 562.68704 173.402294 
z
" clip-path="url(#p9fdbe38ee4)" style="fill: #1f77b4; opacity: 0.4"/>
   </g>
   <g id="patch_149">
    <path d="M 565.662246 173.52 
L 568.637451 173.52 
L 568.637451 173.404696 
L 565.662246 173.404696 
z
" clip-path="url(#p9fdbe38ee4)" style="fill: #1f77b4; opacity: 0.4"/>
   </g>
   <g id="patch_150">
    <path d="M 568.637451 173.52 
L 571.612656 173.52 
L 571.612656 173.43112 
L 568.637451 173.43112 
z
" clip-path="url(#p9fdbe38ee4)" style="fill: #1f77b4; opacity: 0.4"/>
   </g>
   <g id="patch_151">
    <path d="M 571.612656 173.52 
L 574.587862 173.52 
L 574.587862 173.373468 
L 571.612656 173.373468 
z
" clip-path="url(#p9fdbe38ee4)" style="fill: #1f77b4; opacity: 0.4"/>
   </g>
   <g id="patch_152">
    <path d="M 574.587862 173.52 
L 577.563067 173.52 
L 577.563067 173.440729 
L 574.587862 173.440729 
z
" clip-path="url(#p9fdbe38ee4)" style="fill: #1f77b4; opacity: 0.4"/>
   </g>
   <g id="patch_153">
    <path d="M 577.563067 173.52 
L 580.538283 173.52 
L 580.538283 173.447936 
L 577.563067 173.447936 
z
" clip-path="url(#p9fdbe38ee4)" style="fill: #1f77b4; opacity: 0.4"/>
   </g>
   <g id="patch_154">
    <path d="M 580.538283 173.52 
L 583.513488 173.52 
L 583.513488 173.435925 
L 580.538283 173.435925 
z
" clip-path="url(#p9fdbe38ee4)" style="fill: #1f77b4; opacity: 0.4"/>
   </g>
   <g id="patch_155">
    <path d="M 583.513488 173.52 
L 586.488694 173.52 
L 586.488694 173.479163 
L 583.513488 173.479163 
z
" clip-path="url(#p9fdbe38ee4)" style="fill: #1f77b4; opacity: 0.4"/>
   </g>
   <g id="patch_156">
    <path d="M 586.488694 173.52 
L 589.463899 173.52 
L 589.463899 173.450337 
L 586.488694 173.450337 
z
" clip-path="url(#p9fdbe38ee4)" style="fill: #1f77b4; opacity: 0.4"/>
   </g>
   <g id="patch_157">
    <path d="M 589.463899 173.52 
L 592.439104 173.52 
L 592.439104 173.481565 
L 589.463899 173.481565 
z
" clip-path="url(#p9fdbe38ee4)" style="fill: #1f77b4; opacity: 0.4"/>
   </g>
   <g id="patch_158">
    <path d="M 592.439104 173.52 
L 595.41431 173.52 
L 595.41431 173.469555 
L 592.439104 173.469555 
z
" clip-path="url(#p9fdbe38ee4)" style="fill: #1f77b4; opacity: 0.4"/>
   </g>
   <g id="patch_159">
    <path d="M 595.41431 173.52 
L 598.389515 173.52 
L 598.389515 173.488772 
L 595.41431 173.488772 
z
" clip-path="url(#p9fdbe38ee4)" style="fill: #1f77b4; opacity: 0.4"/>
   </g>
   <g id="patch_160">
    <path d="M 598.389515 173.52 
L 601.364721 173.52 
L 601.364721 173.500783 
L 598.389515 173.500783 
z
" clip-path="url(#p9fdbe38ee4)" style="fill: #1f77b4; opacity: 0.4"/>
   </g>
   <g id="patch_161">
    <path d="M 601.364721 173.52 
L 604.339926 173.52 
L 604.339926 173.500783 
L 601.364721 173.500783 
z
" clip-path="url(#p9fdbe38ee4)" style="fill: #1f77b4; opacity: 0.4"/>
   </g>
   <g id="patch_162">
    <path d="M 604.339926 173.52 
L 607.315131 173.52 
L 607.315131 173.483968 
L 604.339926 173.483968 
z
" clip-path="url(#p9fdbe38ee4)" style="fill: #1f77b4; opacity: 0.4"/>
   </g>
   <g id="patch_163">
    <path d="M 607.315131 173.52 
L 610.290337 173.52 
L 610.290337 173.503185 
L 607.315131 173.503185 
z
" clip-path="url(#p9fdbe38ee4)" style="fill: #1f77b4; opacity: 0.4"/>
   </g>
   <g id="patch_164">
    <path d="M 610.290337 173.52 
L 613.265542 173.52 
L 613.265542 173.507989 
L 610.290337 173.507989 
z
" clip-path="url(#p9fdbe38ee4)" style="fill: #1f77b4; opacity: 0.4"/>
   </g>
   <g id="patch_165">
    <path d="M 613.265542 173.52 
L 616.240748 173.52 
L 616.240748 173.507989 
L 613.265542 173.507989 
z
" clip-path="url(#p9fdbe38ee4)" style="fill: #1f77b4; opacity: 0.4"/>
   </g>
   <g id="patch_166">
    <path d="M 616.240748 173.52 
L 619.215953 173.52 
L 619.215953 173.515196 
L 616.240748 173.515196 
z
" clip-path="url(#p9fdbe38ee4)" style="fill: #1f77b4; opacity: 0.4"/>
   </g>
   <g id="patch_167">
    <path d="M 619.215953 173.52 
L 622.191159 173.52 
L 622.191159 173.503185 
L 619.215953 173.503185 
z
" clip-path="url(#p9fdbe38ee4)" style="fill: #1f77b4; opacity: 0.4"/>
   </g>
   <g id="patch_168">
    <path d="M 622.191159 173.52 
L 625.166364 173.52 
L 625.166364 173.517598 
L 622.191159 173.517598 
z
" clip-path="url(#p9fdbe38ee4)" style="fill: #1f77b4; opacity: 0.4"/>
   </g>
   <g id="patch_169">
    <path d="M 625.166364 173.52 
L 628.141569 173.52 
L 628.141569 173.517598 
L 625.166364 173.517598 
z
" clip-path="url(#p9fdbe38ee4)" style="fill: #1f77b4; opacity: 0.4"/>
   </g>
   <g id="patch_170">
    <path d="M 628.141569 173.52 
L 631.116775 173.52 
L 631.116775 173.512794 
L 628.141569 173.512794 
z
" clip-path="url(#p9fdbe38ee4)" style="fill: #1f77b4; opacity: 0.4"/>
   </g>
   <g id="patch_171">
    <path d="M 631.116775 173.52 
L 634.09198 173.52 
L 634.09198 173.515196 
L 631.116775 173.515196 
z
" clip-path="url(#p9fdbe38ee4)" style="fill: #1f77b4; opacity: 0.4"/>
   </g>
   <g id="patch_172">
    <path d="M 634.09198 173.52 
L 637.067186 173.52 
L 637.067186 173.52 
L 634.09198 173.52 
z
" clip-path="url(#p9fdbe38ee4)" style="fill: #1f77b4; opacity: 0.4"/>
   </g>
   <g id="patch_173">
    <path d="M 637.067186 173.52 
L 640.042411 173.52 
L 640.042411 173.515196 
L 637.067186 173.515196 
z
" clip-path="url(#p9fdbe38ee4)" style="fill: #1f77b4; opacity: 0.4"/>
   </g>
   <g id="patch_174">
    <path d="M 640.042411 173.52 
L 643.017616 173.52 
L 643.017616 173.517598 
L 640.042411 173.517598 
z
" clip-path="url(#p9fdbe38ee4)" style="fill: #1f77b4; opacity: 0.4"/>
   </g>
   <g id="patch_175">
    <path d="M 643.017616 173.52 
L 645.992822 173.52 
L 645.992822 173.517598 
L 643.017616 173.517598 
z
" clip-path="url(#p9fdbe38ee4)" style="fill: #1f77b4; opacity: 0.4"/>
   </g>
   <g id="patch_176">
    <path d="M 645.992822 173.52 
L 648.968027 173.52 
L 648.968027 173.52 
L 645.992822 173.52 
z
" clip-path="url(#p9fdbe38ee4)" style="fill: #1f77b4; opacity: 0.4"/>
   </g>
   <g id="patch_177">
    <path d="M 648.968027 173.52 
L 651.943233 173.52 
L 651.943233 173.52 
L 648.968027 173.52 
z
" clip-path="url(#p9fdbe38ee4)" style="fill: #1f77b4; opacity: 0.4"/>
   </g>
   <g id="patch_178">
    <path d="M 651.943233 173.52 
L 654.918438 173.52 
L 654.918438 173.52 
L 651.943233 173.52 
z
" clip-path="url(#p9fdbe38ee4)" style="fill: #1f77b4; opacity: 0.4"/>
   </g>
   <g id="patch_179">
    <path d="M 654.918438 173.52 
L 657.893643 173.52 
L 657.893643 173.52 
L 654.918438 173.52 
z
" clip-path="url(#p9fdbe38ee4)" style="fill: #1f77b4; opacity: 0.4"/>
   </g>
   <g id="patch_180">
    <path d="M 657.893643 173.52 
L 660.868849 173.52 
L 660.868849 173.52 
L 657.893643 173.52 
z
" clip-path="url(#p9fdbe38ee4)" style="fill: #1f77b4; opacity: 0.4"/>
   </g>
   <g id="patch_181">
    <path d="M 660.868849 173.52 
L 663.844054 173.52 
L 663.844054 173.517598 
L 660.868849 173.517598 
z
" clip-path="url(#p9fdbe38ee4)" style="fill: #1f77b4; opacity: 0.4"/>
   </g>
   <g id="patch_182">
    <path d="M 663.844054 173.52 
L 666.81926 173.52 
L 666.81926 173.52 
L 663.844054 173.52 
z
" clip-path="url(#p9fdbe38ee4)" style="fill: #1f77b4; opacity: 0.4"/>
   </g>
   <g id="patch_183">
    <path d="M 666.81926 173.52 
L 669.794465 173.52 
L 669.794465 173.517598 
L 666.81926 173.517598 
z
" clip-path="url(#p9fdbe38ee4)" style="fill: #1f77b4; opacity: 0.4"/>
   </g>
   <g id="patch_184">
    <path d="M 669.794465 173.52 
L 672.769671 173.52 
L 672.769671 173.52 
L 669.794465 173.52 
z
" clip-path="url(#p9fdbe38ee4)" style="fill: #1f77b4; opacity: 0.4"/>
   </g>
   <g id="patch_185">
    <path d="M 672.769671 173.52 
L 675.744876 173.52 
L 675.744876 173.52 
L 672.769671 173.52 
z
" clip-path="url(#p9fdbe38ee4)" style="fill: #1f77b4; opacity: 0.4"/>
   </g>
   <g id="patch_186">
    <path d="M 675.744876 173.52 
L 678.720081 173.52 
L 678.720081 173.52 
L 675.744876 173.52 
z
" clip-path="url(#p9fdbe38ee4)" style="fill: #1f77b4; opacity: 0.4"/>
   </g>
   <g id="patch_187">
    <path d="M 678.720081 173.52 
L 681.695287 173.52 
L 681.695287 173.52 
L 678.720081 173.52 
z
" clip-path="url(#p9fdbe38ee4)" style="fill: #1f77b4; opacity: 0.4"/>
   </g>
   <g id="patch_188">
    <path d="M 681.695287 173.52 
L 684.670512 173.52 
L 684.670512 173.517598 
L 681.695287 173.517598 
z
" clip-path="url(#p9fdbe38ee4)" style="fill: #1f77b4; opacity: 0.4"/>
   </g>
   <g id="patch_189">
    <path d="M 684.670512 173.52 
L 687.645718 173.52 
L 687.645718 173.52 
L 684.670512 173.52 
z
" clip-path="url(#p9fdbe38ee4)" style="fill: #1f77b4; opacity: 0.4"/>
   </g>
   <g id="patch_190">
    <path d="M 687.645718 173.52 
L 690.620923 173.52 
L 690.620923 173.52 
L 687.645718 173.52 
z
" clip-path="url(#p9fdbe38ee4)" style="fill: #1f77b4; opacity: 0.4"/>
   </g>
   <g id="patch_191">
    <path d="M 690.620923 173.52 
L 693.596128 173.52 
L 693.596128 173.52 
L 690.620923 173.52 
z
" clip-path="url(#p9fdbe38ee4)" style="fill: #1f77b4; opacity: 0.4"/>
   </g>
   <g id="patch_192">
    <path d="M 693.596128 173.52 
L 696.571334 173.52 
L 696.571334 173.52 
L 693.596128 173.52 
z
" clip-path="url(#p9fdbe38ee4)" style="fill: #1f77b4; opacity: 0.4"/>
   </g>
   <g id="patch_193">
    <path d="M 696.571334 173.52 
L 699.546539 173.52 
L 699.546539 173.517598 
L 696.571334 173.517598 
z
" clip-path="url(#p9fdbe38ee4)" style="fill: #1f77b4; opacity: 0.4"/>
   </g>
   <g id="matplotlib.axis_3">
    <g id="xtick_9">
     <g id="line2d_37">
      <path d="M 422.851279 173.52 
L 422.851279 7.2 
" clip-path="url(#p9fdbe38ee4)" style="fill: none; stroke: #b0b0b0; stroke-width: 0.8; stroke-linecap: square"/>
     </g>
     <g id="line2d_38">
      <g>
       <use xlink:href="#m38397369a3" x="422.851279" y="173.52" style="stroke: #000000; stroke-width: 0.8"/>
      </g>
     </g>
     <g id="text_19">
      <!-- 0 -->
      <g transform="translate(419.670029 188.118438) scale(0.1 -0.1)">
       <use xlink:href="#DejaVuSans-30"/>
      </g>
     </g>
    </g>
    <g id="xtick_10">
     <g id="line2d_39">
      <path d="M 475.131865 173.52 
L 475.131865 7.2 
" clip-path="url(#p9fdbe38ee4)" style="fill: none; stroke: #b0b0b0; stroke-width: 0.8; stroke-linecap: square"/>
     </g>
     <g id="line2d_40">
      <g>
       <use xlink:href="#m38397369a3" x="475.131865" y="173.52" style="stroke: #000000; stroke-width: 0.8"/>
      </g>
     </g>
     <g id="text_20">
      <!-- 5 -->
      <g transform="translate(471.950615 188.118438) scale(0.1 -0.1)">
       <use xlink:href="#DejaVuSans-35"/>
      </g>
     </g>
    </g>
    <g id="xtick_11">
     <g id="line2d_41">
      <path d="M 527.412452 173.52 
L 527.412452 7.2 
" clip-path="url(#p9fdbe38ee4)" style="fill: none; stroke: #b0b0b0; stroke-width: 0.8; stroke-linecap: square"/>
     </g>
     <g id="line2d_42">
      <g>
       <use xlink:href="#m38397369a3" x="527.412452" y="173.52" style="stroke: #000000; stroke-width: 0.8"/>
      </g>
     </g>
     <g id="text_21">
      <!-- 10 -->
      <g transform="translate(521.049952 188.118438) scale(0.1 -0.1)">
       <use xlink:href="#DejaVuSans-31"/>
       <use xlink:href="#DejaVuSans-30" transform="translate(63.623047 0)"/>
      </g>
     </g>
    </g>
    <g id="xtick_12">
     <g id="line2d_43">
      <path d="M 579.693039 173.52 
L 579.693039 7.2 
" clip-path="url(#p9fdbe38ee4)" style="fill: none; stroke: #b0b0b0; stroke-width: 0.8; stroke-linecap: square"/>
     </g>
     <g id="line2d_44">
      <g>
       <use xlink:href="#m38397369a3" x="579.693039" y="173.52" style="stroke: #000000; stroke-width: 0.8"/>
      </g>
     </g>
     <g id="text_22">
      <!-- 15 -->
      <g transform="translate(573.330539 188.118438) scale(0.1 -0.1)">
       <use xlink:href="#DejaVuSans-31"/>
       <use xlink:href="#DejaVuSans-35" transform="translate(63.623047 0)"/>
      </g>
     </g>
    </g>
    <g id="xtick_13">
     <g id="line2d_45">
      <path d="M 631.973626 173.52 
L 631.973626 7.2 
" clip-path="url(#p9fdbe38ee4)" style="fill: none; stroke: #b0b0b0; stroke-width: 0.8; stroke-linecap: square"/>
     </g>
     <g id="line2d_46">
      <g>
       <use xlink:href="#m38397369a3" x="631.973626" y="173.52" style="stroke: #000000; stroke-width: 0.8"/>
      </g>
     </g>
     <g id="text_23">
      <!-- 20 -->
      <g transform="translate(625.611126 188.118438) scale(0.1 -0.1)">
       <use xlink:href="#DejaVuSans-32"/>
       <use xlink:href="#DejaVuSans-30" transform="translate(63.623047 0)"/>
      </g>
     </g>
    </g>
    <g id="xtick_14">
     <g id="line2d_47">
      <path d="M 684.254212 173.52 
L 684.254212 7.2 
" clip-path="url(#p9fdbe38ee4)" style="fill: none; stroke: #b0b0b0; stroke-width: 0.8; stroke-linecap: square"/>
     </g>
     <g id="line2d_48">
      <g>
       <use xlink:href="#m38397369a3" x="684.254212" y="173.52" style="stroke: #000000; stroke-width: 0.8"/>
      </g>
     </g>
     <g id="text_24">
      <!-- 25 -->
      <g transform="translate(677.891712 188.118438) scale(0.1 -0.1)">
       <use xlink:href="#DejaVuSans-32"/>
       <use xlink:href="#DejaVuSans-35" transform="translate(63.623047 0)"/>
      </g>
     </g>
    </g>
    <g id="text_25">
     <!-- $\theta$ -->
     <g transform="translate(558.099432 201.796563) scale(0.1 -0.1)">
      <defs>
       <path id="DejaVuSans-Oblique-3b8" d="M 2913 2219 
L 925 2219 
Q 791 1284 928 888 
Q 1100 400 1566 400 
Q 2034 400 2391 891 
Q 2703 1322 2913 2219 
z
M 3009 2750 
Q 3094 3638 2984 3950 
Q 2813 4444 2353 4444 
Q 1875 4444 1525 3956 
Q 1250 3563 1034 2750 
L 3009 2750 
z
M 2444 4913 
Q 3194 4913 3494 4250 
Q 3794 3591 3566 2422 
Q 3341 1256 2781 594 
Q 2225 -72 1475 -72 
Q 722 -72 425 594 
Q 128 1256 353 2422 
Q 581 3591 1134 4250 
Q 1691 4913 2444 4913 
z
" transform="scale(0.015625)"/>
      </defs>
      <use xlink:href="#DejaVuSans-Oblique-3b8" transform="translate(0 0.234375)"/>
     </g>
    </g>
   </g>
   <g id="matplotlib.axis_4">
    <g id="ytick_9">
     <g id="line2d_49">
      <path d="M 409.017614 173.52 
L 713.38125 173.52 
" clip-path="url(#p9fdbe38ee4)" style="fill: none; stroke: #b0b0b0; stroke-width: 0.8; stroke-linecap: square"/>
     </g>
     <g id="line2d_50">
      <g>
       <use xlink:href="#m6e640e2702" x="409.017614" y="173.52" style="stroke: #000000; stroke-width: 0.8"/>
      </g>
     </g>
     <g id="text_26">
      <!-- 0.0 -->
      <g transform="translate(386.114489 177.319219) scale(0.1 -0.1)">
       <use xlink:href="#DejaVuSans-30"/>
       <use xlink:href="#DejaVuSans-2e" transform="translate(63.623047 0)"/>
       <use xlink:href="#DejaVuSans-30" transform="translate(95.410156 0)"/>
      </g>
     </g>
    </g>
    <g id="ytick_10">
     <g id="line2d_51">
      <path d="M 409.017614 139.344261 
L 713.38125 139.344261 
" clip-path="url(#p9fdbe38ee4)" style="fill: none; stroke: #b0b0b0; stroke-width: 0.8; stroke-linecap: square"/>
     </g>
     <g id="line2d_52">
      <g>
       <use xlink:href="#m6e640e2702" x="409.017614" y="139.344261" style="stroke: #000000; stroke-width: 0.8"/>
      </g>
     </g>
     <g id="text_27">
      <!-- 0.5 -->
      <g transform="translate(386.114489 143.14348) scale(0.1 -0.1)">
       <use xlink:href="#DejaVuSans-30"/>
       <use xlink:href="#DejaVuSans-2e" transform="translate(63.623047 0)"/>
       <use xlink:href="#DejaVuSans-35" transform="translate(95.410156 0)"/>
      </g>
     </g>
    </g>
    <g id="ytick_11">
     <g id="line2d_53">
      <path d="M 409.017614 105.168522 
L 713.38125 105.168522 
" clip-path="url(#p9fdbe38ee4)" style="fill: none; stroke: #b0b0b0; stroke-width: 0.8; stroke-linecap: square"/>
     </g>
     <g id="line2d_54">
      <g>
       <use xlink:href="#m6e640e2702" x="409.017614" y="105.168522" style="stroke: #000000; stroke-width: 0.8"/>
      </g>
     </g>
     <g id="text_28">
      <!-- 1.0 -->
      <g transform="translate(386.114489 108.967741) scale(0.1 -0.1)">
       <use xlink:href="#DejaVuSans-31"/>
       <use xlink:href="#DejaVuSans-2e" transform="translate(63.623047 0)"/>
       <use xlink:href="#DejaVuSans-30" transform="translate(95.410156 0)"/>
      </g>
     </g>
    </g>
    <g id="ytick_12">
     <g id="line2d_55">
      <path d="M 409.017614 70.992783 
L 713.38125 70.992783 
" clip-path="url(#p9fdbe38ee4)" style="fill: none; stroke: #b0b0b0; stroke-width: 0.8; stroke-linecap: square"/>
     </g>
     <g id="line2d_56">
      <g>
       <use xlink:href="#m6e640e2702" x="409.017614" y="70.992783" style="stroke: #000000; stroke-width: 0.8"/>
      </g>
     </g>
     <g id="text_29">
      <!-- 1.5 -->
      <g transform="translate(386.114489 74.792002) scale(0.1 -0.1)">
       <use xlink:href="#DejaVuSans-31"/>
       <use xlink:href="#DejaVuSans-2e" transform="translate(63.623047 0)"/>
       <use xlink:href="#DejaVuSans-35" transform="translate(95.410156 0)"/>
      </g>
     </g>
    </g>
    <g id="ytick_13">
     <g id="line2d_57">
      <path d="M 409.017614 36.817044 
L 713.38125 36.817044 
" clip-path="url(#p9fdbe38ee4)" style="fill: none; stroke: #b0b0b0; stroke-width: 0.8; stroke-linecap: square"/>
     </g>
     <g id="line2d_58">
      <g>
       <use xlink:href="#m6e640e2702" x="409.017614" y="36.817044" style="stroke: #000000; stroke-width: 0.8"/>
      </g>
     </g>
     <g id="text_30">
      <!-- 2.0 -->
      <g transform="translate(386.114489 40.616263) scale(0.1 -0.1)">
       <use xlink:href="#DejaVuSans-32"/>
       <use xlink:href="#DejaVuSans-2e" transform="translate(63.623047 0)"/>
       <use xlink:href="#DejaVuSans-30" transform="translate(95.410156 0)"/>
      </g>
     </g>
    </g>
   </g>
   <g id="patch_194">
    <path d="M 409.017614 173.52 
L 409.017614 7.2 
" style="fill: none; stroke: #000000; stroke-width: 0.8; stroke-linejoin: miter; stroke-linecap: square"/>
   </g>
   <g id="patch_195">
    <path d="M 713.38125 173.52 
L 713.38125 7.2 
" style="fill: none; stroke: #000000; stroke-width: 0.8; stroke-linejoin: miter; stroke-linecap: square"/>
   </g>
   <g id="patch_196">
    <path d="M 409.017614 173.52 
L 713.38125 173.52 
" style="fill: none; stroke: #000000; stroke-width: 0.8; stroke-linejoin: miter; stroke-linecap: square"/>
   </g>
   <g id="patch_197">
    <path d="M 409.017614 7.2 
L 713.38125 7.2 
" style="fill: none; stroke: #000000; stroke-width: 0.8; stroke-linejoin: miter; stroke-linecap: square"/>
   </g>
   <g id="legend_1">
    <g id="patch_198">
     <path d="M 600.830625 52.0275 
L 704.98125 52.0275 
Q 707.38125 52.0275 707.38125 49.6275 
L 707.38125 15.6 
Q 707.38125 13.2 704.98125 13.2 
L 600.830625 13.2 
Q 598.430625 13.2 598.430625 15.6 
L 598.430625 49.6275 
Q 598.430625 52.0275 600.830625 52.0275 
z
" style="fill: #ffffff; opacity: 0.8; stroke: #cccccc; stroke-linejoin: miter"/>
    </g>
    <g id="patch_199">
     <path d="M 603.230625 27.118125 
L 627.230625 27.118125 
L 627.230625 18.718125 
L 603.230625 18.718125 
z
" style="fill: #ff0000; opacity: 0.4"/>
    </g>
    <g id="text_31">
     <!-- Initial prior -->
     <g transform="translate(636.830625 27.118125) scale(0.12 -0.12)">
      <defs>
       <path id="DejaVuSans-49" d="M 628 4666 
L 1259 4666 
L 1259 0 
L 628 0 
L 628 4666 
z
" transform="scale(0.015625)"/>
      </defs>
      <use xlink:href="#DejaVuSans-49"/>
      <use xlink:href="#DejaVuSans-6e" transform="translate(29.492188 0)"/>
      <use xlink:href="#DejaVuSans-69" transform="translate(92.871094 0)"/>
      <use xlink:href="#DejaVuSans-74" transform="translate(120.654297 0)"/>
      <use xlink:href="#DejaVuSans-69" transform="translate(159.863281 0)"/>
      <use xlink:href="#DejaVuSans-61" transform="translate(187.646484 0)"/>
      <use xlink:href="#DejaVuSans-6c" transform="translate(248.925781 0)"/>
      <use xlink:href="#DejaVuSans-20" transform="translate(276.708984 0)"/>
      <use xlink:href="#DejaVuSans-70" transform="translate(308.496094 0)"/>
      <use xlink:href="#DejaVuSans-72" transform="translate(371.972656 0)"/>
      <use xlink:href="#DejaVuSans-69" transform="translate(413.085938 0)"/>
      <use xlink:href="#DejaVuSans-6f" transform="translate(440.869141 0)"/>
      <use xlink:href="#DejaVuSans-72" transform="translate(502.050781 0)"/>
     </g>
    </g>
    <g id="patch_200">
     <path d="M 603.230625 44.731875 
L 627.230625 44.731875 
L 627.230625 36.331875 
L 603.230625 36.331875 
z
" style="fill: #1f77b4; opacity: 0.4"/>
    </g>
    <g id="text_32">
     <!-- Fitted prior -->
     <g transform="translate(636.830625 44.731875) scale(0.12 -0.12)">
      <defs>
       <path id="DejaVuSans-46" d="M 628 4666 
L 3309 4666 
L 3309 4134 
L 1259 4134 
L 1259 2759 
L 3109 2759 
L 3109 2228 
L 1259 2228 
L 1259 0 
L 628 0 
L 628 4666 
z
" transform="scale(0.015625)"/>
      </defs>
      <use xlink:href="#DejaVuSans-46"/>
      <use xlink:href="#DejaVuSans-69" transform="translate(50.269531 0)"/>
      <use xlink:href="#DejaVuSans-74" transform="translate(78.052734 0)"/>
      <use xlink:href="#DejaVuSans-74" transform="translate(117.261719 0)"/>
      <use xlink:href="#DejaVuSans-65" transform="translate(156.470703 0)"/>
      <use xlink:href="#DejaVuSans-64" transform="translate(217.994141 0)"/>
      <use xlink:href="#DejaVuSans-20" transform="translate(281.470703 0)"/>
      <use xlink:href="#DejaVuSans-70" transform="translate(313.257812 0)"/>
      <use xlink:href="#DejaVuSans-72" transform="translate(376.734375 0)"/>
      <use xlink:href="#DejaVuSans-69" transform="translate(417.847656 0)"/>
      <use xlink:href="#DejaVuSans-6f" transform="translate(445.630859 0)"/>
      <use xlink:href="#DejaVuSans-72" transform="translate(506.8125 0)"/>
     </g>
    </g>
   </g>
  </g>
 </g>
 <defs>
  <clipPath id="p7b3f997ad4">
   <rect x="43.78125" y="7.2" width="304.363636" height="166.32"/>
  </clipPath>
  <clipPath id="p9fdbe38ee4">
   <rect x="409.017614" y="7.2" width="304.363636" height="166.32"/>
  </clipPath>
 </defs>
</svg>
